<?xml version="1.0" encoding="UTF-8"?>
<svg width="100px" height="134px" viewBox="0 0 100 134" version="1.1" xmlns="http://www.w3.org/2000/svg" xmlns:xlink="http://www.w3.org/1999/xlink">
    <title>UrunEkle_abacus</title>
    <g id="App_V5" stroke="none" stroke-width="1" fill="none" fill-rule="evenodd">
        <g id="UrunEkle_abacus" fill-rule="nonzero">
            <path d="M54.3422977,43.8605744 L45.6472585,43.8605744 C44.5328982,43.8605744 43.6300261,42.9574413 43.6300261,41.843342 C43.6300261,40.7292428 44.5331593,39.8261097 45.6472585,39.8261097 L54.3422977,39.8261097 C55.456658,39.8261097 56.35953,40.7292428 56.35953,41.843342 C56.35953,42.9574413 55.456658,43.8605744 54.3422977,43.8605744 Z" id="Path" fill="#12293F"></path>
            <path d="M28.2577023,18.8631854 L10.8681462,18.8631854 C9.7537859,18.8631854 8.85091384,17.9600522 8.85091384,16.845953 C8.85091384,15.7318538 9.754047,14.8287206 10.8681462,14.8287206 L28.2577023,14.8287206 C29.3720627,14.8287206 30.2749347,15.7318538 30.2749347,16.845953 C30.2749347,17.9600522 29.3720627,18.8631854 28.2577023,18.8631854 Z" id="Path" fill="#12293F"></path>
            <path d="M89.1211488,18.8631854 L71.7315927,18.8631854 C70.6172324,18.8631854 69.7143603,17.9600522 69.7143603,16.845953 C69.7143603,15.7318538 70.6174935,14.8287206 71.7315927,14.8287206 L89.1211488,14.8287206 C90.2355091,14.8287206 91.1383812,15.7318538 91.1383812,16.845953 C91.1383812,17.9600522 90.2355091,18.8631854 89.1211488,18.8631854 L89.1211488,18.8631854 Z" id="Path" fill="#12293F"></path>
            <path d="M36.9524804,43.8605744 L10.8684073,43.8605744 C9.754047,43.8605744 8.85117493,42.9574413 8.85117493,41.843342 C8.85117493,40.7292428 9.75430809,39.8261097 10.8684073,39.8261097 L36.9524804,39.8261097 C38.0668407,39.8261097 38.9697128,40.7292428 38.9697128,41.843342 C38.9697128,42.9574413 38.0668407,43.8605744 36.9524804,43.8605744 Z" id="Path" fill="#12293F"></path>
            <path d="M71.4597911,68.8579634 L36.9524804,68.8579634 C35.8381201,68.8579634 34.935248,67.9548303 34.935248,66.8407311 C34.935248,65.7266319 35.8383812,64.8234987 36.9524804,64.8234987 L71.4597911,64.8234987 C72.5741514,64.8234987 73.4770236,65.7266319 73.4770236,66.8407311 C73.4770236,67.9548303 72.5741514,68.8579634 71.4597911,68.8579634 Z" id="Path" fill="#12293F"></path>
            <path d="M28.2577023,93.8553525 L10.8681462,93.8553525 C9.7537859,93.8553525 8.85091384,92.9522193 8.85091384,91.8381201 C8.85091384,90.7240209 9.754047,89.8208877 10.8681462,89.8208877 L28.2577023,89.8208877 C29.3720627,89.8208877 30.2749348,90.7240209 30.2749348,91.8381201 C30.2751958,92.9522193 29.3720627,93.8553525 28.2577023,93.8553525 Z" id="Path" fill="#12293F"></path>
            <path d="M89.1211488,93.8553525 L71.7315927,93.8553525 C70.6172324,93.8553525 69.7143603,92.9522193 69.7143603,91.8381201 C69.7143603,90.7240209 70.6174935,89.8208877 71.7315927,89.8208877 L89.1211488,89.8208877 C90.2355091,89.8208877 91.1383812,90.7240209 91.1383812,91.8381201 C91.1383812,92.9522193 90.2355091,93.8553525 89.1211488,93.8553525 L89.1211488,93.8553525 Z" id="Path" fill="#12293F"></path>
            <path d="M45.6472585,118.852742 L10.8684073,118.852742 C9.754047,118.852742 8.85117493,117.949608 8.85117493,116.835509 C8.85117493,115.72141 9.75430809,114.818277 10.8684073,114.818277 L45.6472585,114.818277 C46.7616188,114.818277 47.6644909,115.72141 47.6644909,116.835509 C47.6644909,117.949608 46.7616188,118.852742 45.6472585,118.852742 Z" id="Path" fill="#12293F"></path>
            <path d="M89.1211488,130.964491 L89.1211488,2.71723238 C89.1211488,1.21644909 90.3375979,0 91.8381201,0 L97.2723238,0 C98.772846,0 99.989295,1.21644909 99.989295,2.71723238 L99.989295,130.964491 C99.989295,132.465013 98.772846,133.681462 97.2723238,133.681462 L91.8381201,133.681462 C90.3375979,133.681462 89.1211488,132.465013 89.1211488,130.964491 Z" id="Path" fill="#F1D59D"></path>
            <path d="M97.2723238,0 L92.9250653,0 C94.4255875,0 95.6420366,1.21644909 95.6420366,2.71723238 L95.6420366,130.964491 C95.6420366,132.465013 94.4255875,133.681462 92.9250653,133.681462 L97.2723238,133.681462 C98.772846,133.681462 99.9892951,132.465013 99.9892951,130.964491 L99.9892951,2.71723238 C99.9895561,1.21644909 98.773107,0 97.2723238,0 Z" id="Path" fill="#EFCB84"></path>
            <path d="M5.3800886e-14,130.964491 L5.3800886e-14,2.71723238 C5.3800886e-14,1.21644909 1.21644909,0 2.71723238,0 L8.15143603,0 C9.65195822,0 10.8686684,1.21644909 10.8686684,2.71723238 L10.8686684,130.964491 C10.8686684,132.465013 9.65221932,133.681462 8.15143603,133.681462 L2.71723238,133.681462 C1.21644909,133.681462 5.3800886e-14,132.465013 5.3800886e-14,130.964491 Z" id="Path" fill="#F1D59D"></path>
            <path d="M8.15143603,0 L3.80417755,0 C5.30469974,0 6.52140992,1.21644909 6.52140992,2.71723238 L6.52140992,130.964491 C6.52140992,132.465013 5.30496084,133.681462 3.80417755,133.681462 L8.15143603,133.681462 C9.65195822,133.681462 10.8686684,132.465013 10.8686684,130.964491 L10.8686684,2.71723238 C10.8684073,1.21644909 9.65195822,0 8.15143603,0 L8.15143603,0 Z" id="Path" fill="#EFCB84"></path>
            <path d="M67.3843342,24.997389 C64.9832898,24.997389 63.0370757,23.0509138 63.0370757,20.6501305 L63.0370757,13.0420366 C63.0370757,10.6409922 64.9835509,8.69477807 67.3843342,8.69477807 C69.7853786,8.69477807 71.7315927,10.6412533 71.7315927,13.0420366 L71.7315927,20.6498695 C71.7315927,23.0509138 69.7851175,24.997389 67.3843342,24.997389 L67.3843342,24.997389 Z" id="Path" fill="#E9686A"></path>
            <path d="M67.3843342,8.69477807 C66.8073107,8.69477807 66.2577023,8.80966057 65.754047,9.01383812 C67.3467363,9.65900783 68.4710183,11.2182768 68.4710183,13.0422977 L68.4710183,20.6501305 C68.4710183,22.4741514 67.3464752,24.0334204 65.754047,24.6785901 C66.2577023,24.8827676 66.8073107,24.9976501 67.3843342,24.9976501 C69.7853786,24.9976501 71.7315927,23.0511749 71.7315927,20.6503916 L71.7315927,13.0420366 C71.7315927,10.6409922 69.7851175,8.69477807 67.3843342,8.69477807 Z" id="Path" fill="#D75254"></path>
            <path d="M58.6895561,24.997389 C56.2885117,24.997389 54.3422977,23.0509138 54.3422977,20.6501305 L54.3422977,13.0420366 C54.3422977,10.6409922 56.2887728,8.69477807 58.6895561,8.69477807 C61.0906005,8.69477807 63.0368146,10.6412533 63.0368146,13.0420366 L63.0368146,20.6498695 C63.0368146,23.0509138 61.0906005,24.997389 58.6895561,24.997389 L58.6895561,24.997389 Z" id="Path" fill="#E9686A"></path>
            <path d="M58.6895561,8.69477807 C58.1125326,8.69477807 57.5629243,8.80966057 57.0592689,9.01383812 C58.6519582,9.65900783 59.7762402,11.2182768 59.7762402,13.0422977 L59.7762402,20.6501305 C59.7762402,22.4741514 58.6516971,24.0334204 57.0592689,24.6785901 C57.5629243,24.8827676 58.1125326,24.9976501 58.6895561,24.9976501 C61.0906005,24.9976501 63.0368146,23.0511749 63.0368146,20.6503916 L63.0368146,13.0420366 C63.0368146,10.6409922 61.0903394,8.69477807 58.6895561,8.69477807 L58.6895561,8.69477807 Z" id="Path" fill="#D75254"></path>
            <path d="M49.9947781,24.997389 C47.5937337,24.997389 45.6475196,23.0509138 45.6475196,20.6501305 L45.6475196,13.0420366 C45.6475196,10.6409922 47.5939948,8.69477807 49.9947781,8.69477807 C52.3958225,8.69477807 54.3420366,10.6412533 54.3420366,13.0420366 L54.3420366,20.6498695 C54.3420366,23.0509138 52.3958225,24.997389 49.9947781,24.997389 L49.9947781,24.997389 Z" id="Path" fill="#E9686A"></path>
            <path d="M49.9947781,8.69477807 C49.4177546,8.69477807 48.8681462,8.80966057 48.3644909,9.01383812 C49.9571802,9.65900783 51.0814621,11.2182768 51.0814621,13.0422977 L51.0814621,20.6501305 C51.0814621,22.4741514 49.9569191,24.0334204 48.3644909,24.6785901 C48.8681462,24.8827676 49.4177546,24.9976501 49.9947781,24.9976501 C52.3958225,24.9976501 54.3420366,23.0511749 54.3420366,20.6503916 L54.3420366,13.0420366 C54.3420366,10.6409922 52.3958225,8.69477807 49.9947781,8.69477807 L49.9947781,8.69477807 Z" id="Path" fill="#D75254"></path>
            <path d="M41.3,24.997389 C38.8989556,24.997389 36.9527415,23.0509138 36.9527415,20.6501305 L36.9527415,13.0420366 C36.9527415,10.6409922 38.8992167,8.69477807 41.3,8.69477807 C43.7010444,8.69477807 45.6472585,10.6412533 45.6472585,13.0420366 L45.6472585,20.6498695 C45.6475196,23.0509138 43.7010444,24.997389 41.3,24.997389 L41.3,24.997389 Z" id="Path" fill="#E9686A"></path>
            <path d="M41.3,8.69477807 C40.7229765,8.69477807 40.1733681,8.80966057 39.6697128,9.01383812 C41.2624021,9.65900783 42.3866841,11.2182768 42.3866841,13.0422977 L42.3866841,20.6501305 C42.3866841,22.4741514 41.262141,24.0334204 39.6697128,24.6785901 C40.1733681,24.8827676 40.7229765,24.9976501 41.3,24.9976501 C43.7010444,24.9976501 45.6472585,23.0511749 45.6472585,20.6503916 L45.6472585,13.0420366 C45.6475196,10.6409922 43.7010444,8.69477807 41.3,8.69477807 Z" id="Path" fill="#D75254"></path>
            <path d="M32.6052219,24.997389 C30.2041775,24.997389 28.2579634,23.0509138 28.2579634,20.6501305 L28.2579634,13.0420366 C28.2579634,10.6409922 30.2044386,8.69477807 32.6052219,8.69477807 C35.0062663,8.69477807 36.9524804,10.6412533 36.9524804,13.0420366 L36.9524804,20.6498695 C36.9527415,23.0509138 35.0062663,24.997389 32.6052219,24.997389 L32.6052219,24.997389 Z" id="Path" fill="#E9686A"></path>
            <path d="M32.6052219,8.69477807 C32.0281984,8.69477807 31.4785901,8.80966057 30.9749347,9.01383812 C32.567624,9.65900783 33.6921671,11.2182768 33.6921671,13.0422977 L33.6921671,20.6501305 C33.6921671,22.4741514 32.567624,24.0334204 30.9749347,24.6785901 C31.4785901,24.8827676 32.0281984,24.9976501 32.6052219,24.9976501 C35.0062663,24.9976501 36.9524804,23.0511749 36.9524804,20.6503916 L36.9524804,13.0420366 C36.9527415,10.6409922 35.0062663,8.69477807 32.6052219,8.69477807 Z" id="Path" fill="#D75254"></path>
            <path d="M84.7736292,49.9947781 C82.3725849,49.9947781 80.4263708,48.0483029 80.4263708,45.6475196 L80.4263708,38.0396867 C80.4263708,35.6386423 82.372846,33.6924282 84.7736292,33.6924282 C87.1746736,33.6924282 89.1208877,35.6389034 89.1208877,38.0396867 L89.1208877,45.6475196 C89.1211488,48.0483029 87.1746736,49.9947781 84.7736292,49.9947781 Z" id="Path" fill="#F49E21"></path>
            <path d="M84.7736292,33.6921671 C84.1966057,33.6921671 83.6469974,33.8070496 83.143342,34.0112272 C84.7360313,34.6563969 85.8603133,36.2156658 85.8603133,38.0396867 L85.8603133,45.6475196 C85.8603133,47.4715405 84.7357702,49.0308094 83.143342,49.6759791 C83.6469974,49.8801567 84.1966057,49.9950392 84.7736292,49.9950392 C87.1746736,49.9950392 89.1208877,48.048564 89.1208877,45.6477807 L89.1208877,38.0399478 C89.1211488,35.6383812 87.1746736,33.6921671 84.7736292,33.6921671 Z" id="Path" fill="#DE8D17"></path>
            <path d="M76.0788512,49.9947781 C73.6778068,49.9947781 71.7315927,48.0483029 71.7315927,45.6475196 L71.7315927,38.0396867 C71.7315927,35.6386423 73.6780679,33.6924282 76.0788512,33.6924282 C78.4798956,33.6924282 80.4261097,35.6389034 80.4261097,38.0396867 L80.4261097,45.6475196 C80.4263708,48.0483029 78.4798956,49.9947781 76.0788512,49.9947781 Z" id="Path" fill="#F49E21"></path>
            <path d="M76.0788512,33.6921671 C75.5018277,33.6921671 74.9522193,33.8070496 74.448564,34.0112272 C76.0412533,34.6563969 77.1655352,36.2156658 77.1655352,38.0396867 L77.1655352,45.6475196 C77.1655352,47.4715405 76.0409922,49.0308094 74.448564,49.6759791 C74.9522193,49.8801567 75.5018277,49.9950392 76.0788512,49.9950392 C78.4798956,49.9950392 80.4261097,48.048564 80.4261097,45.6477807 L80.4261097,38.0399478 C80.4263708,35.6383812 78.4798956,33.6921671 76.0788512,33.6921671 L76.0788512,33.6921671 Z" id="Path" fill="#DE8D17"></path>
            <path d="M67.3843342,49.9947781 C64.9832898,49.9947781 63.0370757,48.0483029 63.0370757,45.6475196 L63.0370757,38.0396867 C63.0370757,35.6386423 64.9835509,33.6924282 67.3843342,33.6924282 C69.7853786,33.6924282 71.7315927,35.6389034 71.7315927,38.0396867 L71.7315927,45.6475196 C71.7315927,48.0483029 69.7851175,49.9947781 67.3843342,49.9947781 Z" id="Path" fill="#F49E21"></path>
            <path d="M67.3843342,33.6921671 C66.8073107,33.6921671 66.2577023,33.8070496 65.754047,34.0112272 C67.3467363,34.6563969 68.4710183,36.2156658 68.4710183,38.0396867 L68.4710183,45.6475196 C68.4710183,47.4715405 67.3464752,49.0308094 65.754047,49.6759791 C66.2577023,49.8801567 66.8073107,49.9950392 67.3843342,49.9950392 C69.7853786,49.9950392 71.7315927,48.048564 71.7315927,45.6477807 L71.7315927,38.0399478 C71.7315927,35.6383812 69.7851175,33.6921671 67.3843342,33.6921671 Z" id="Path" fill="#DE8D17"></path>
            <path d="M58.6895561,49.9947781 C56.2885117,49.9947781 54.3422977,48.0483029 54.3422977,45.6475196 L54.3422977,38.0396867 C54.3422977,35.6386423 56.2887728,33.6924282 58.6895561,33.6924282 C61.0906005,33.6924282 63.0368146,35.6389034 63.0368146,38.0396867 L63.0368146,45.6475196 C63.0368146,48.0483029 61.0906005,49.9947781 58.6895561,49.9947781 Z" id="Path" fill="#F49E21"></path>
            <path d="M58.6895561,33.6921671 C58.1125326,33.6921671 57.5629243,33.8070496 57.0592689,34.0112272 C58.6519582,34.6563969 59.7762402,36.2156658 59.7762402,38.0396867 L59.7762402,45.6475196 C59.7762402,47.4715405 58.6516971,49.0308094 57.0592689,49.6759791 C57.5629243,49.8801567 58.1125326,49.9950392 58.6895561,49.9950392 C61.0906005,49.9950392 63.0368146,48.048564 63.0368146,45.6477807 L63.0368146,38.0399478 C63.0368146,35.6383812 61.0903394,33.6921671 58.6895561,33.6921671 L58.6895561,33.6921671 Z" id="Path" fill="#DE8D17"></path>
            <path d="M41.3,49.9947781 C38.8989556,49.9947781 36.9527415,48.0483029 36.9527415,45.6475196 L36.9527415,38.0396867 C36.9527415,35.6386423 38.8992167,33.6924282 41.3,33.6924282 C43.7010444,33.6924282 45.6472585,35.6389034 45.6472585,38.0396867 L45.6472585,45.6475196 C45.6475196,48.0483029 43.7010444,49.9947781 41.3,49.9947781 Z" id="Path" fill="#F49E21"></path>
            <path d="M41.3,33.6921671 C40.7229765,33.6921671 40.1733681,33.8070496 39.6697128,34.0112272 C41.2624021,34.6563969 42.3866841,36.2156658 42.3866841,38.0396867 L42.3866841,45.6475196 C42.3866841,47.4715405 41.262141,49.0308094 39.6697128,49.6759791 C40.1733681,49.8801567 40.7229765,49.9950392 41.3,49.9950392 C43.7010444,49.9950392 45.6472585,48.048564 45.6472585,45.6477807 L45.6472585,38.0399478 C45.6475196,35.6383812 43.7010444,33.6921671 41.3,33.6921671 Z" id="Path" fill="#DE8D17"></path>
            <path d="M84.7736292,74.9921671 C82.3725849,74.9921671 80.4263708,73.0456919 80.4263708,70.6449086 L80.4263708,63.0370757 C80.4263708,60.6360313 82.372846,58.6898172 84.7736292,58.6898172 C87.1746736,58.6898172 89.1208877,60.6362924 89.1208877,63.0370757 L89.1208877,70.6449086 C89.1211488,73.0456919 87.1746736,74.9921671 84.7736292,74.9921671 Z" id="Path" fill="#05D684"></path>
            <path d="M84.7736292,58.689295 C84.1966057,58.689295 83.6469974,58.8041775 83.143342,59.0083551 C84.7360313,59.6535248 85.8603133,61.2127937 85.8603133,63.0368146 L85.8603133,70.6446475 C85.8603133,72.4686684 84.7357702,74.0279373 83.143342,74.673107 C83.6469974,74.8772846 84.1966057,74.9921671 84.7736292,74.9921671 C87.1746736,74.9921671 89.1208877,73.0456919 89.1208877,70.6449086 L89.1208877,63.0370757 C89.1211488,60.6357702 87.1746736,58.689295 84.7736292,58.689295 L84.7736292,58.689295 Z" id="Path" fill="#06C47A"></path>
            <path d="M76.0788512,74.9921671 C73.6778068,74.9921671 71.7315927,73.0456919 71.7315927,70.6449086 L71.7315927,63.0370757 C71.7315927,60.6360313 73.6780679,58.6898172 76.0788512,58.6898172 C78.4798956,58.6898172 80.4261097,60.6362924 80.4261097,63.0370757 L80.4261097,70.6449086 C80.4263708,73.0456919 78.4798956,74.9921671 76.0788512,74.9921671 Z" id="Path" fill="#05D684"></path>
            <path d="M76.0788512,58.689295 C75.5018277,58.689295 74.9522193,58.8041775 74.448564,59.0083551 C76.0412533,59.6535248 77.1655352,61.2127937 77.1655352,63.0368146 L77.1655352,70.6446475 C77.1655352,72.4686684 76.0409922,74.0279373 74.448564,74.673107 C74.9522193,74.8772846 75.5018277,74.9921671 76.0788512,74.9921671 C78.4798956,74.9921671 80.4261097,73.0456919 80.4261097,70.6449086 L80.4261097,63.0370757 C80.4263708,60.6357702 78.4798956,58.689295 76.0788512,58.689295 L76.0788512,58.689295 Z" id="Path" fill="#06C47A"></path>
            <path d="M32.6052219,74.9921671 C30.2041775,74.9921671 28.2579634,73.0456919 28.2579634,70.6449086 L28.2579634,63.0370757 C28.2579634,60.6360313 30.2044386,58.6898172 32.6052219,58.6898172 C35.0062663,58.6898172 36.9524804,60.6362924 36.9524804,63.0370757 L36.9524804,70.6449086 C36.9527415,73.0456919 35.0062663,74.9921671 32.6052219,74.9921671 Z" id="Path" fill="#05D684"></path>
            <path d="M32.6052219,58.689295 C32.0281984,58.689295 31.4785901,58.8041775 30.9749347,59.0083551 C32.567624,59.6535248 33.6921671,61.2127937 33.6921671,63.0368146 L33.6921671,70.6446475 C33.6921671,72.4686684 32.567624,74.0279373 30.9749347,74.673107 C31.4785901,74.8772846 32.0281984,74.9921671 32.6052219,74.9921671 C35.0062663,74.9921671 36.9524804,73.0456919 36.9524804,70.6449086 L36.9524804,63.0370757 C36.9527415,60.6357702 35.0062663,58.689295 32.6052219,58.689295 L32.6052219,58.689295 Z" id="Path" fill="#06C47A"></path>
            <path d="M23.910705,74.9921671 C21.5096606,74.9921671 19.5634465,73.0456919 19.5634465,70.6449086 L19.5634465,63.0370757 C19.5634465,60.6360313 21.5099217,58.6898172 23.910705,58.6898172 C26.3117493,58.6898172 28.2579634,60.6362924 28.2579634,63.0370757 L28.2579634,70.6449086 C28.2579634,73.0456919 26.3114883,74.9921671 23.910705,74.9921671 Z" id="Path" fill="#05D684"></path>
            <path d="M23.910705,58.689295 C23.3336815,58.689295 22.7840731,58.8041775 22.2804178,59.0083551 C23.873107,59.6535248 24.9976501,61.2127937 24.9976501,63.0368146 L24.9976501,70.6446475 C24.9976501,72.4686684 23.873107,74.0279373 22.2804178,74.673107 C22.7840731,74.8772846 23.3336815,74.9921671 23.910705,74.9921671 C26.3117493,74.9921671 28.2579634,73.0456919 28.2579634,70.6449086 L28.2579634,63.0370757 C28.2579634,60.6357702 26.3114883,58.689295 23.910705,58.689295 L23.910705,58.689295 Z" id="Path" fill="#06C47A"></path>
            <path d="M15.2159269,74.9921671 C12.8148825,74.9921671 10.8686684,73.0456919 10.8686684,70.6449086 L10.8686684,63.0370757 C10.8686684,60.6360313 12.8151436,58.6898172 15.2159269,58.6898172 C17.6169713,58.6898172 19.5631854,60.6362924 19.5631854,63.0370757 L19.5631854,70.6449086 C19.5631854,73.0456919 17.6169713,74.9921671 15.2159269,74.9921671 Z" id="Path" fill="#05D684"></path>
            <path d="M15.2159269,58.689295 C14.6389034,58.689295 14.089295,58.8041775 13.5856397,59.0083551 C15.178329,59.6535248 16.3028721,61.2127937 16.3028721,63.0368146 L16.3028721,70.6446475 C16.3028721,72.4686684 15.178329,74.0279373 13.5856397,74.673107 C14.089295,74.8772846 14.6389034,74.9921671 15.2159269,74.9921671 C17.6169713,74.9921671 19.5631854,73.0456919 19.5631854,70.6449086 L19.5631854,63.0370757 C19.5631854,60.6357702 17.6167102,58.689295 15.2159269,58.689295 L15.2159269,58.689295 Z" id="Path" fill="#06C47A"></path>
            <path d="M67.3843342,99.989295 C64.9832898,99.989295 63.0370757,98.0428198 63.0370757,95.6420366 L63.0370757,88.0342037 C63.0370757,85.6331593 64.9835509,83.6869452 67.3843342,83.6869452 C69.7853786,83.6869452 71.7315927,85.6334204 71.7315927,88.0342037 L71.7315927,95.6420366 C71.7315927,98.0430809 69.7851175,99.989295 67.3843342,99.989295 Z" id="Path" fill="#32B1CC"></path>
            <path d="M67.3843342,83.6866841 C66.8073107,83.6866841 66.2577023,83.8015666 65.754047,84.0057441 C67.3467363,84.6509138 68.4710183,86.2101828 68.4710183,88.0342037 L68.4710183,95.6420366 C68.4710183,97.4660574 67.3464752,99.0253264 65.754047,99.6704961 C66.2577023,99.8746736 66.8073107,99.9895561 67.3843342,99.9895561 C69.7853786,99.9895561 71.7315927,98.0430809 71.7315927,95.6422977 L71.7315927,88.0344648 C71.7315927,85.6331593 69.7851175,83.6866841 67.3843342,83.6866841 L67.3843342,83.6866841 Z" id="Path" fill="#279DB6"></path>
            <path d="M58.6895561,99.989295 C56.2885117,99.989295 54.3422977,98.0428198 54.3422977,95.6420366 L54.3422977,88.0342037 C54.3422977,85.6331593 56.2887728,83.6869452 58.6895561,83.6869452 C61.0906005,83.6869452 63.0368146,85.6334204 63.0368146,88.0342037 L63.0368146,95.6420366 C63.0368146,98.0430809 61.0906005,99.989295 58.6895561,99.989295 Z" id="Path" fill="#32B1CC"></path>
            <path d="M58.6895561,83.6866841 C58.1125326,83.6866841 57.5629243,83.8015666 57.0592689,84.0057441 C58.6519582,84.6509138 59.7762402,86.2101828 59.7762402,88.0342037 L59.7762402,95.6420366 C59.7762402,97.4660574 58.6516971,99.0253264 57.0592689,99.6704961 C57.5629243,99.8746736 58.1125326,99.9895561 58.6895561,99.9895561 C61.0906005,99.9895561 63.0368146,98.0430809 63.0368146,95.6422977 L63.0368146,88.0344648 C63.0368146,85.6331593 61.0903394,83.6866841 58.6895561,83.6866841 L58.6895561,83.6866841 Z" id="Path" fill="#279DB6"></path>
            <path d="M49.9947781,99.989295 C47.5937337,99.989295 45.6475196,98.0428198 45.6475196,95.6420366 L45.6475196,88.0342037 C45.6475196,85.6331593 47.5939948,83.6869452 49.9947781,83.6869452 C52.3958225,83.6869452 54.3420366,85.6334204 54.3420366,88.0342037 L54.3420366,95.6420366 C54.3420366,98.0430809 52.3958225,99.989295 49.9947781,99.989295 L49.9947781,99.989295 Z" id="Path" fill="#32B1CC"></path>
            <path d="M49.9947781,83.6866841 C49.4177546,83.6866841 48.8681462,83.8015666 48.3644909,84.0057441 C49.9571802,84.6509138 51.0814621,86.2101828 51.0814621,88.0342037 L51.0814621,95.6420366 C51.0814621,97.4660574 49.9569191,99.0253264 48.3644909,99.6704961 C48.8681462,99.8746736 49.4177546,99.9895561 49.9947781,99.9895561 C52.3958225,99.9895561 54.3420366,98.0430809 54.3420366,95.6422977 L54.3420366,88.0344648 C54.3420366,85.6331593 52.3958225,83.6866841 49.9947781,83.6866841 L49.9947781,83.6866841 Z" id="Path" fill="#279DB6"></path>
            <path d="M41.3,99.989295 C38.8989556,99.989295 36.9527415,98.0428198 36.9527415,95.6420366 L36.9527415,88.0342037 C36.9527415,85.6331593 38.8992167,83.6869452 41.3,83.6869452 C43.7010444,83.6869452 45.6472585,85.6334204 45.6472585,88.0342037 L45.6472585,95.6420366 C45.6475196,98.0430809 43.7010444,99.989295 41.3,99.989295 Z" id="Path" fill="#32B1CC"></path>
            <path d="M41.3,83.6866841 C40.7229765,83.6866841 40.1733681,83.8015666 39.6697128,84.0057441 C41.2624021,84.6509138 42.3866841,86.2101828 42.3866841,88.0342037 L42.3866841,95.6420366 C42.3866841,97.4660574 41.262141,99.0253264 39.6697128,99.6704961 C40.1733681,99.8746736 40.7229765,99.9895561 41.3,99.9895561 C43.7010444,99.9895561 45.6472585,98.0430809 45.6472585,95.6422977 L45.6472585,88.0344648 C45.6475196,85.6331593 43.7010444,83.6866841 41.3,83.6866841 L41.3,83.6866841 Z" id="Path" fill="#279DB6"></path>
            <path d="M32.6052219,99.989295 C30.2041775,99.989295 28.2579634,98.0428198 28.2579634,95.6420366 L28.2579634,88.0342037 C28.2579634,85.6331593 30.2044386,83.6869452 32.6052219,83.6869452 C35.0062663,83.6869452 36.9524804,85.6334204 36.9524804,88.0342037 L36.9524804,95.6420366 C36.9527415,98.0430809 35.0062663,99.989295 32.6052219,99.989295 Z" id="Path" fill="#32B1CC"></path>
            <path d="M32.6052219,83.6866841 C32.0281984,83.6866841 31.4785901,83.8015666 30.9749347,84.0057441 C32.567624,84.6509138 33.6921671,86.2101828 33.6921671,88.0342037 L33.6921671,95.6420366 C33.6921671,97.4660574 32.567624,99.0253264 30.9749347,99.6704961 C31.4785901,99.8746736 32.0281984,99.9895561 32.6052219,99.9895561 C35.0062663,99.9895561 36.9524804,98.0430809 36.9524804,95.6422977 L36.9524804,88.0344648 C36.9527415,85.6331593 35.0062663,83.6866841 32.6052219,83.6866841 L32.6052219,83.6866841 Z" id="Path" fill="#279DB6"></path>
            <path d="M84.7736292,124.986684 C82.3725849,124.986684 80.4263708,123.040209 80.4263708,120.639426 L80.4263708,113.031593 C80.4263708,110.630548 82.372846,108.684334 84.7736292,108.684334 C87.1746736,108.684334 89.1208877,110.630809 89.1208877,113.031593 L89.1208877,120.639426 C89.1211488,123.04047 87.1746736,124.986684 84.7736292,124.986684 Z" id="Path" fill="#00856C"></path>
            <path d="M84.7736292,108.684073 C84.1966057,108.684073 83.6469974,108.798956 83.143342,109.003133 C84.7360313,109.648303 85.8603133,111.207572 85.8603133,113.031593 L85.8603133,120.639426 C85.8603133,122.463446 84.7357702,124.022715 83.143342,124.667885 C83.6469974,124.872063 84.1966057,124.986945 84.7736292,124.986945 C87.1746736,124.986945 89.1208877,123.04047 89.1208877,120.639687 L89.1208877,113.031854 C89.1211488,110.630548 87.1746736,108.684073 84.7736292,108.684073 L84.7736292,108.684073 Z" id="Path" fill="#016F5B"></path>
            <path d="M76.0788512,124.986684 C73.6778068,124.986684 71.7315927,123.040209 71.7315927,120.639426 L71.7315927,113.031593 C71.7315927,110.630548 73.6780679,108.684334 76.0788512,108.684334 C78.4798956,108.684334 80.4261097,110.630809 80.4261097,113.031593 L80.4261097,120.639426 C80.4263708,123.04047 78.4798956,124.986684 76.0788512,124.986684 Z" id="Path" fill="#00856C"></path>
            <path d="M76.0788512,108.684073 C75.5018277,108.684073 74.9522193,108.798956 74.448564,109.003133 C76.0412533,109.648303 77.1655352,111.207572 77.1655352,113.031593 L77.1655352,120.639426 C77.1655352,122.463446 76.0409922,124.022715 74.448564,124.667885 C74.9522193,124.872063 75.5018277,124.986945 76.0788512,124.986945 C78.4798956,124.986945 80.4261097,123.04047 80.4261097,120.639687 L80.4261097,113.031854 C80.4263708,110.630548 78.4798956,108.684073 76.0788512,108.684073 L76.0788512,108.684073 Z" id="Path" fill="#016F5B"></path>
            <path d="M67.3843342,124.986684 C64.9832898,124.986684 63.0370757,123.040209 63.0370757,120.639426 L63.0370757,113.031593 C63.0370757,110.630548 64.9835509,108.684334 67.3843342,108.684334 C69.7853786,108.684334 71.7315927,110.630809 71.7315927,113.031593 L71.7315927,120.639426 C71.7315927,123.04047 69.7851175,124.986684 67.3843342,124.986684 Z" id="Path" fill="#00856C"></path>
            <path d="M67.3843342,108.684073 C66.8073107,108.684073 66.2577023,108.798956 65.754047,109.003133 C67.3467363,109.648303 68.4710183,111.207572 68.4710183,113.031593 L68.4710183,120.639426 C68.4710183,122.463446 67.3464752,124.022715 65.754047,124.667885 C66.2577023,124.872063 66.8073107,124.986945 67.3843342,124.986945 C69.7853786,124.986945 71.7315927,123.04047 71.7315927,120.639687 L71.7315927,113.031854 C71.7315927,110.630548 69.7851175,108.684073 67.3843342,108.684073 L67.3843342,108.684073 Z" id="Path" fill="#016F5B"></path>
            <path d="M58.6895561,124.986684 C56.2885117,124.986684 54.3422977,123.040209 54.3422977,120.639426 L54.3422977,113.031593 C54.3422977,110.630548 56.2887728,108.684334 58.6895561,108.684334 C61.0906005,108.684334 63.0368146,110.630809 63.0368146,113.031593 L63.0368146,120.639426 C63.0368146,123.04047 61.0906005,124.986684 58.6895561,124.986684 Z" id="Path" fill="#00856C"></path>
            <path d="M58.6895561,108.684073 C58.1125326,108.684073 57.5629243,108.798956 57.0592689,109.003133 C58.6519582,109.648303 59.7762402,111.207572 59.7762402,113.031593 L59.7762402,120.639426 C59.7762402,122.463446 58.6516971,124.022715 57.0592689,124.667885 C57.5629243,124.872063 58.1125326,124.986945 58.6895561,124.986945 C61.0906005,124.986945 63.0368146,123.04047 63.0368146,120.639687 L63.0368146,113.031854 C63.0368146,110.630548 61.0903394,108.684073 58.6895561,108.684073 L58.6895561,108.684073 Z" id="Path" fill="#016F5B"></path>
            <path d="M49.9947781,124.986684 C47.5937337,124.986684 45.6475196,123.040209 45.6475196,120.639426 L45.6475196,113.031593 C45.6475196,110.630548 47.5939948,108.684334 49.9947781,108.684334 C52.3958225,108.684334 54.3420366,110.630809 54.3420366,113.031593 L54.3420366,120.639426 C54.3420366,123.04047 52.3958225,124.986684 49.9947781,124.986684 L49.9947781,124.986684 Z" id="Path" fill="#00856C"></path>
            <path d="M49.9947781,108.684073 C49.4177546,108.684073 48.8681462,108.798956 48.3644909,109.003133 C49.9571802,109.648303 51.0814621,111.207572 51.0814621,113.031593 L51.0814621,120.639426 C51.0814621,122.463446 49.9569191,124.022715 48.3644909,124.667885 C48.8681462,124.872063 49.4177546,124.986945 49.9947781,124.986945 C52.3958225,124.986945 54.3420366,123.04047 54.3420366,120.639687 L54.3420366,113.031854 C54.3420366,110.630548 52.3958225,108.684073 49.9947781,108.684073 L49.9947781,108.684073 Z" id="Path" fill="#016F5B"></path>
        </g>
    </g>
</svg>