<?xml version="1.0" encoding="UTF-8"?>
<svg width="22px" height="22px" viewBox="0 0 22 22" version="1.1" xmlns="http://www.w3.org/2000/svg" xmlns:xlink="http://www.w3.org/1999/xlink">
    <title>Group</title>
    <g id="App_V4" stroke="none" stroke-width="1" fill="none" fill-rule="evenodd">
        <g id="00_TradeRoom" transform="translate(-332.000000, -18.000000)" stroke="#00856C">
            <path d="M343,39 C348.522847,39 353,34.5228475 353,29 C353,23.4771525 348.522847,19 343,19 C337.477153,19 333,23.4771525 333,29 C333,34.5228475 337.477153,39 343,39 Z M343,32 L343,31 C343,30 343,29.5 344,29 C345,28.5 346,28 346,26.5 C346,25.5 345,24 343,24 C341,24 340,25.2641372 340,27 M343,33 L343,35" id="Group"></path>
        </g>
    </g>
</svg>