<?xml version="1.0" encoding="UTF-8"?>
<svg width="335px" height="88px" viewBox="0 0 335 88" version="1.1" xmlns="http://www.w3.org/2000/svg" xmlns:xlink="http://www.w3.org/1999/xlink">
    <title>banner_barty_buy</title>
    <defs>
        <linearGradient x1="100%" y1="46.791609%" x2="0%" y2="53.2132125%" id="linearGradient-1">
            <stop stop-color="#05D684" offset="0%"></stop>
            <stop stop-color="#32B1CC" offset="100%"></stop>
        </linearGradient>
    </defs>
    <g id="App_V5" stroke="none" stroke-width="1" fill="none" fill-rule="evenodd">
        <g id="banner_barty_buy">
            <rect id="Rectangle-Copy-2" fill="url(#linearGradient-1)" x="0" y="0" width="335" height="88" rx="3"></rect>
            <path d="M14.355,53.13 C16.266,53.13 17.605,52.116 17.605,50.413 L17.605,50.387 C17.605,48.879 16.617,48.19 14.693,47.722 C12.938,47.306 12.522,46.994 12.522,46.292 L12.522,46.266 C12.522,45.668 13.068,45.187 14.004,45.187 C14.836,45.187 15.655,45.512 16.474,46.123 L17.332,44.914 C16.409,44.173 15.356,43.77 14.03,43.77 C12.223,43.77 10.923,44.849 10.923,46.409 L10.923,46.435 C10.923,48.112 12.015,48.684 13.952,49.152 C15.642,49.542 16.006,49.893 16.006,50.543 L16.006,50.569 C16.006,51.245 15.382,51.713 14.394,51.713 C13.276,51.713 12.392,51.284 11.521,50.53 L10.559,51.674 C11.651,52.649 12.964,53.13 14.355,53.13 Z M20.905429,53.143 C21.958429,53.143 22.673429,52.701 23.141429,52.142 L23.141429,53 L24.675429,53 L24.675429,48.931 C24.675429,48.034 24.441429,47.306 23.934429,46.812 C23.453429,46.318 22.686429,46.045 21.659429,46.045 C20.567429,46.045 19.826429,46.266 19.072429,46.604 L19.488429,47.839 C20.112429,47.579 20.684429,47.41 21.451429,47.41 C22.556429,47.41 23.154429,47.93 23.154429,48.905 L23.154429,49.074 C22.621429,48.905 22.075429,48.788 21.308429,48.788 C19.631429,48.788 18.474429,49.516 18.474429,50.998 L18.474429,51.024 C18.474429,52.402 19.618429,53.143 20.905429,53.143 Z M21.347429,51.999 C20.593429,51.999 20.008429,51.622 20.008429,50.959 L20.008429,50.933 C20.008429,50.218 20.606429,49.789 21.620429,49.789 C22.244429,49.789 22.777429,49.906 23.180429,50.062 L23.180429,50.53 C23.180429,51.401 22.387429,51.999 21.347429,51.999 Z M28.417858,53.117 C29.015858,53.117 29.444858,52.987 29.834858,52.766 L29.834858,51.479 C29.522858,51.635 29.210858,51.713 28.859858,51.713 C28.326858,51.713 28.014858,51.466 28.014858,50.855 L28.014858,47.488 L29.860858,47.488 L29.860858,46.136 L28.014858,46.136 L28.014858,44.251 L26.441858,44.251 L26.441858,46.136 L25.570858,46.136 L25.570858,47.488 L26.441858,47.488 L26.441858,51.102 C26.441858,52.61 27.260858,53.117 28.417858,53.117 Z M32.745287,53 L32.745287,46.136 L31.172287,46.136 L31.172287,53 L32.745287,53 Z M35.993716,53 L35.993716,49.126 C35.993716,48.06 36.630716,47.423 37.540716,47.423 C38.476716,47.423 39.009716,48.034 39.009716,49.1 L39.009716,53 L40.582716,53 L40.582716,48.619 C40.582716,47.033 39.685716,45.993 38.138716,45.993 C37.072716,45.993 36.435716,46.552 35.993716,47.189 L35.993716,46.136 L34.420716,46.136 L34.420716,53 L35.993716,53 Z M47.599574,53.143 C48.652574,53.143 49.367574,52.701 49.835574,52.142 L49.835574,53 L51.369574,53 L51.369574,48.931 C51.369574,48.034 51.135574,47.306 50.628574,46.812 C50.147574,46.318 49.380574,46.045 48.353574,46.045 C47.261574,46.045 46.520574,46.266 45.766574,46.604 L46.182574,47.839 C46.806574,47.579 47.378574,47.41 48.145574,47.41 C49.250574,47.41 49.848574,47.93 49.848574,48.905 L49.848574,49.074 C49.315574,48.905 48.769574,48.788 48.002574,48.788 C46.325574,48.788 45.168574,49.516 45.168574,50.998 L45.168574,51.024 C45.168574,52.402 46.312574,53.143 47.599574,53.143 Z M48.041574,51.999 C47.287574,51.999 46.702574,51.622 46.702574,50.959 L46.702574,50.933 C46.702574,50.218 47.300574,49.789 48.314574,49.789 C48.938574,49.789 49.471574,49.906 49.874574,50.062 L49.874574,50.53 C49.874574,51.401 49.081574,51.999 48.041574,51.999 Z M54.540003,53 L54.540003,43.51 L52.967003,43.51 L52.967003,53 L54.540003,53 Z M59.049432,53.143 C60.167432,53.143 60.882432,52.571 61.389432,51.856 L61.389432,53 L62.962432,53 L62.962432,43.51 L61.389432,43.51 L61.389432,47.202 C60.895432,46.552 60.180432,45.993 59.049432,45.993 C57.411432,45.993 55.864432,47.28 55.864432,49.555 L55.864432,49.581 C55.864432,51.856 57.437432,53.143 59.049432,53.143 Z M59.426432,51.778 C58.360432,51.778 57.450432,50.907 57.450432,49.581 L57.450432,49.555 C57.450432,48.19 58.347432,47.358 59.426432,47.358 C60.479432,47.358 61.415432,48.229 61.415432,49.555 L61.415432,49.581 C61.415432,50.894 60.479432,51.778 59.426432,51.778 Z M66.223861,53 L66.223861,46.136 L64.650861,46.136 L64.650861,53 L66.223861,53 Z M71.34429,45.291 C72.59229,45.291 73.47629,44.602 73.58029,43.406 L72.48829,43.406 C72.33229,43.874 72.00729,44.199 71.34429,44.199 C70.68129,44.199 70.35629,43.874 70.20029,43.406 L69.12129,43.406 C69.21229,44.602 70.09629,45.291 71.34429,45.291 Z M70.95429,55.106 C72.18929,55.106 73.15129,54.807 73.77529,54.183 C74.34729,53.611 74.64629,52.753 74.64629,51.596 L74.64629,46.136 L73.07329,46.136 L73.07329,47.163 C72.54029,46.526 71.82529,45.993 70.66829,45.993 C69.06929,45.993 67.54829,47.189 67.54829,49.217 L67.54829,49.243 C67.54829,51.258 69.05629,52.454 70.66829,52.454 C71.79929,52.454 72.51429,51.934 73.08629,51.193 L73.08629,51.726 C73.08629,53.104 72.31929,53.832 70.91529,53.832 C69.97929,53.832 69.21229,53.559 68.47129,53.104 L67.88629,54.287 C68.77029,54.82 69.82329,55.106 70.95429,55.106 Z M71.08429,51.115 C70.00529,51.115 69.13429,50.348 69.13429,49.23 L69.13429,49.204 C69.13429,48.073 69.99229,47.319 71.08429,47.319 C72.17629,47.319 73.09929,48.086 73.09929,49.204 L73.09929,49.23 C73.09929,50.348 72.17629,51.115 71.08429,51.115 Z M77.907719,53 L77.907719,46.136 L76.334719,46.136 L76.334719,53 L77.907719,53 Z M81.156148,53 L81.156148,49.126 C81.156148,48.06 81.793148,47.423 82.703148,47.423 C83.639148,47.423 84.172148,48.034 84.172148,49.1 L84.172148,53 L85.745148,53 L85.745148,48.619 C85.745148,47.033 84.848148,45.993 83.301148,45.993 C82.235148,45.993 81.598148,46.552 81.156148,47.189 L81.156148,46.136 L79.583148,46.136 L79.583148,53 L81.156148,53 Z M88.928577,53 L88.928577,46.136 L87.355577,46.136 L87.355577,53 L88.928577,53 Z M96.259006,53 L96.259006,51.713 L92.294006,51.713 L96.259006,47.215 L96.259006,46.136 L90.435006,46.136 L90.435006,47.423 L94.257006,47.423 L90.292006,51.921 L90.292006,53 L96.259006,53 Z M105.420864,53 C107.448864,53 108.787864,52.129 108.787864,50.504 L108.787864,50.478 C108.787864,49.243 108.046864,48.632 106.980864,48.268 C107.656864,47.917 108.280864,47.332 108.280864,46.24 L108.280864,46.214 C108.280864,45.603 108.072864,45.109 107.669864,44.706 C107.149864,44.186 106.330864,43.9 105.290864,43.9 L101.208864,43.9 L101.208864,53 L105.420864,53 Z M104.965864,47.735 L102.781864,47.735 L102.781864,45.317 L105.082864,45.317 C106.109864,45.317 106.681864,45.759 106.681864,46.474 L106.681864,46.5 C106.681864,47.332 105.992864,47.735 104.965864,47.735 Z M105.433864,51.583 L102.781864,51.583 L102.781864,49.087 L105.316864,49.087 C106.577864,49.087 107.188864,49.542 107.188864,50.309 L107.188864,50.335 C107.188864,51.154 106.525864,51.583 105.433864,51.583 Z M112.010293,53.143 C113.063293,53.143 113.778293,52.701 114.246293,52.142 L114.246293,53 L115.780293,53 L115.780293,48.931 C115.780293,48.034 115.546293,47.306 115.039293,46.812 C114.558293,46.318 113.791293,46.045 112.764293,46.045 C111.672293,46.045 110.931293,46.266 110.177293,46.604 L110.593293,47.839 C111.217293,47.579 111.789293,47.41 112.556293,47.41 C113.661293,47.41 114.259293,47.93 114.259293,48.905 L114.259293,49.074 C113.726293,48.905 113.180293,48.788 112.413293,48.788 C110.736293,48.788 109.579293,49.516 109.579293,50.998 L109.579293,51.024 C109.579293,52.402 110.723293,53.143 112.010293,53.143 Z M112.452293,51.999 C111.698293,51.999 111.113293,51.622 111.113293,50.959 L111.113293,50.933 C111.113293,50.218 111.711293,49.789 112.725293,49.789 C113.349293,49.789 113.882293,49.906 114.285293,50.062 L114.285293,50.53 C114.285293,51.401 113.492293,51.999 112.452293,51.999 Z M118.859722,53 L118.859722,50.387 C118.859722,48.567 119.821722,47.67 121.199722,47.67 L121.290722,47.67 L121.290722,46.006 C120.081722,45.954 119.288722,46.656 118.859722,47.683 L118.859722,46.136 L117.286722,46.136 L117.286722,53 L118.859722,53 Z M124.578151,53.117 C125.176151,53.117 125.605151,52.987 125.995151,52.766 L125.995151,51.479 C125.683151,51.635 125.371151,51.713 125.020151,51.713 C124.487151,51.713 124.175151,51.466 124.175151,50.855 L124.175151,47.488 L126.021151,47.488 L126.021151,46.136 L124.175151,46.136 L124.175151,44.251 L122.602151,44.251 L122.602151,46.136 L121.731151,46.136 L121.731151,47.488 L122.602151,47.488 L122.602151,51.102 C122.602151,52.61 123.421151,53.117 124.578151,53.117 Z M128.64558,55.119 C129.75058,55.119 130.36158,54.599 130.90758,53.195 L133.63758,46.136 L131.99958,46.136 L130.21858,51.232 L128.28158,46.136 L126.59158,46.136 L129.45158,53.013 C129.19158,53.598 128.91858,53.793 128.47658,53.793 C128.15158,53.793 127.83958,53.689 127.55358,53.533 L127.02058,54.703 C127.50158,54.963 127.99558,55.119 128.64558,55.119 Z M139.913438,53 L139.913438,50.075 L141.720438,50.075 C143.722438,50.075 145.360438,49.009 145.360438,46.968 L145.360438,46.942 C145.360438,45.109 144.034438,43.9 141.902438,43.9 L138.314438,43.9 L138.314438,53 L139.913438,53 Z M141.772438,48.632 L139.913438,48.632 L139.913438,45.356 L141.772438,45.356 C142.968438,45.356 143.735438,45.915 143.735438,46.981 L143.735438,47.007 C143.735438,47.956 142.981438,48.632 141.772438,48.632 Z M148.803867,53.143 C149.869867,53.143 150.506867,52.584 150.948867,51.934 L150.948867,53 L152.534867,53 L152.534867,46.136 L150.948867,46.136 L150.948867,50.01 C150.948867,51.076 150.311867,51.7 149.401867,51.7 C148.465867,51.7 147.932867,51.102 147.932867,50.036 L147.932867,46.136 L146.359867,46.136 L146.359867,50.504 C146.359867,52.103 147.256867,53.143 148.803867,53.143 Z M156.095296,53.143 C157.148296,53.143 157.863296,52.701 158.331296,52.142 L158.331296,53 L159.865296,53 L159.865296,48.931 C159.865296,48.034 159.631296,47.306 159.124296,46.812 C158.643296,46.318 157.876296,46.045 156.849296,46.045 C155.757296,46.045 155.016296,46.266 154.262296,46.604 L154.678296,47.839 C155.302296,47.579 155.874296,47.41 156.641296,47.41 C157.746296,47.41 158.344296,47.93 158.344296,48.905 L158.344296,49.074 C157.811296,48.905 157.265296,48.788 156.498296,48.788 C154.821296,48.788 153.664296,49.516 153.664296,50.998 L153.664296,51.024 C153.664296,52.402 154.808296,53.143 156.095296,53.143 Z M156.537296,51.999 C155.783296,51.999 155.198296,51.622 155.198296,50.959 L155.198296,50.933 C155.198296,50.218 155.796296,49.789 156.810296,49.789 C157.434296,49.789 157.967296,49.906 158.370296,50.062 L158.370296,50.53 C158.370296,51.401 157.577296,51.999 156.537296,51.999 Z M162.944725,53 L162.944725,49.126 C162.944725,48.06 163.581725,47.423 164.491725,47.423 C165.427725,47.423 165.960725,48.034 165.960725,49.1 L165.960725,53 L167.533725,53 L167.533725,48.619 C167.533725,47.033 166.636725,45.993 165.089725,45.993 C164.023725,45.993 163.386725,46.552 162.944725,47.189 L162.944725,46.136 L161.371725,46.136 L161.371725,53 L162.944725,53 Z M174.147583,53 L174.147583,49.126 C174.147583,48.073 174.745583,47.423 175.616583,47.423 C176.487583,47.423 177.007583,48.021 177.007583,49.087 L177.007583,53 L178.580583,53 L178.580583,49.126 C178.580583,48.021 179.191583,47.423 180.049583,47.423 C180.933583,47.423 181.440583,48.008 181.440583,49.1 L181.440583,53 L183.013583,53 L183.013583,48.619 C183.013583,46.942 182.103583,45.993 180.608583,45.993 C179.568583,45.993 178.840583,46.474 178.294583,47.202 C177.930583,46.474 177.228583,45.993 176.240583,45.993 C175.187583,45.993 174.589583,46.565 174.147583,47.176 L174.147583,46.136 L172.574583,46.136 L172.574583,53 L174.147583,53 Z M186.262012,45.083 L186.262012,43.588 L184.572012,43.588 L184.572012,45.083 L186.262012,45.083 Z M186.210012,53 L186.210012,46.136 L184.637012,46.136 L184.637012,53 L186.210012,53 Z M189.458441,53 L189.458441,51.037 L190.433441,50.023 L192.461441,53 L194.307441,53 L191.486441,48.931 L194.216441,46.136 L192.305441,46.136 L189.458441,49.178 L189.458441,43.51 L187.885441,43.51 L187.885441,53 L189.458441,53 Z M197.24387,53.117 C197.84187,53.117 198.27087,52.987 198.66087,52.766 L198.66087,51.479 C198.34887,51.635 198.03687,51.713 197.68587,51.713 C197.15287,51.713 196.84087,51.466 196.84087,50.855 L196.84087,47.488 L198.68687,47.488 L198.68687,46.136 L196.84087,46.136 L196.84087,44.251 L195.26787,44.251 L195.26787,46.136 L194.39687,46.136 L194.39687,47.488 L195.26787,47.488 L195.26787,51.102 C195.26787,52.61 196.08687,53.117 197.24387,53.117 Z M201.883299,53.143 C202.936299,53.143 203.651299,52.701 204.119299,52.142 L204.119299,53 L205.653299,53 L205.653299,48.931 C205.653299,48.034 205.419299,47.306 204.912299,46.812 C204.431299,46.318 203.664299,46.045 202.637299,46.045 C201.545299,46.045 200.804299,46.266 200.050299,46.604 L200.466299,47.839 C201.090299,47.579 201.662299,47.41 202.429299,47.41 C203.534299,47.41 204.132299,47.93 204.132299,48.905 L204.132299,49.074 C203.599299,48.905 203.053299,48.788 202.286299,48.788 C200.609299,48.788 199.452299,49.516 199.452299,50.998 L199.452299,51.024 C199.452299,52.402 200.596299,53.143 201.883299,53.143 Z M202.325299,51.999 C201.571299,51.999 200.986299,51.622 200.986299,50.959 L200.986299,50.933 C200.986299,50.218 201.584299,49.789 202.598299,49.789 C203.222299,49.789 203.755299,49.906 204.158299,50.062 L204.158299,50.53 C204.158299,51.401 203.365299,51.999 202.325299,51.999 Z M208.732728,53 L208.732728,50.387 C208.732728,48.567 209.694728,47.67 211.072728,47.67 L211.163728,47.67 L211.163728,46.006 C209.954728,45.954 209.161728,46.656 208.732728,47.683 L208.732728,46.136 L207.159728,46.136 L207.159728,53 L208.732728,53 Z M213.814157,53 L213.814157,46.136 L212.241157,46.136 L212.241157,53 L213.814157,53 Z M217.062586,53 L217.062586,49.126 C217.062586,48.06 217.699586,47.423 218.609586,47.423 C219.545586,47.423 220.078586,48.034 220.078586,49.1 L220.078586,53 L221.651586,53 L221.651586,48.619 C221.651586,47.033 220.754586,45.993 219.207586,45.993 C218.141586,45.993 217.504586,46.552 217.062586,47.189 L217.062586,46.136 L215.489586,46.136 L215.489586,53 L217.062586,53 Z M224.835015,53 L224.835015,46.136 L223.262015,46.136 L223.262015,53 L224.835015,53 Z M228.083444,53 L228.083444,49.126 C228.083444,48.06 228.720444,47.423 229.630444,47.423 C230.566444,47.423 231.099444,48.034 231.099444,49.1 L231.099444,53 L232.672444,53 L232.672444,48.619 C232.672444,47.033 231.775444,45.993 230.228444,45.993 C229.162444,45.993 228.525444,46.552 228.083444,47.189 L228.083444,46.136 L226.510444,46.136 L226.510444,53 L228.083444,53 Z M12.392,70.119 C13.497,70.119 14.108,69.599 14.654,68.195 L17.384,61.136 L15.746,61.136 L13.965,66.232 L12.028,61.136 L10.338,61.136 L13.198,68.013 C12.938,68.598 12.665,68.793 12.223,68.793 C11.898,68.793 11.586,68.689 11.3,68.533 L10.767,69.703 C11.248,69.963 11.742,70.119 12.392,70.119 Z M20.008429,68.143 C21.061429,68.143 21.776429,67.701 22.244429,67.142 L22.244429,68 L23.778429,68 L23.778429,63.931 C23.778429,63.034 23.544429,62.306 23.037429,61.812 C22.556429,61.318 21.789429,61.045 20.762429,61.045 C19.670429,61.045 18.929429,61.266 18.175429,61.604 L18.591429,62.839 C19.215429,62.579 19.787429,62.41 20.554429,62.41 C21.659429,62.41 22.257429,62.93 22.257429,63.905 L22.257429,64.074 C21.724429,63.905 21.178429,63.788 20.411429,63.788 C18.734429,63.788 17.577429,64.516 17.577429,65.998 L17.577429,66.024 C17.577429,67.402 18.721429,68.143 20.008429,68.143 Z M20.450429,66.999 C19.696429,66.999 19.111429,66.622 19.111429,65.959 L19.111429,65.933 C19.111429,65.218 19.709429,64.789 20.723429,64.789 C21.347429,64.789 21.880429,64.906 22.283429,65.062 L22.283429,65.53 C22.283429,66.401 21.490429,66.999 20.450429,66.999 Z M26.857858,68 L26.857858,65.387 C26.857858,63.567 27.819858,62.67 29.197858,62.67 L29.288858,62.67 L29.288858,61.006 C28.079858,60.954 27.286858,61.656 26.857858,62.683 L26.857858,61.136 L25.284858,61.136 L25.284858,68 L26.857858,68 Z M31.939287,68 L31.939287,61.136 L30.366287,61.136 L30.366287,68 L31.939287,68 Z M35.967716,68.13 C37.397716,68.13 38.515716,67.415 38.515716,65.972 L38.515716,65.946 C38.515716,64.711 37.384716,64.256 36.383716,63.944 C35.577716,63.684 34.836716,63.476 34.836716,62.969 L34.836716,62.943 C34.836716,62.553 35.187716,62.267 35.798716,62.267 C36.370716,62.267 37.072716,62.514 37.735716,62.917 L38.359716,61.799 C37.631716,61.318 36.695716,61.019 35.837716,61.019 C34.472716,61.019 33.393716,61.812 33.393716,63.112 L33.393716,63.138 C33.393716,64.451 34.524716,64.867 35.538716,65.153 C36.344716,65.4 37.072716,65.582 37.072716,66.115 L37.072716,66.141 C37.072716,66.596 36.682716,66.882 36.006716,66.882 C35.304716,66.882 34.511716,66.596 33.757716,66.037 L33.055716,67.103 C33.913716,67.779 34.992716,68.13 35.967716,68.13 Z M41.413145,68 L41.413145,61.136 L39.840145,61.136 L39.840145,68 L41.413145,68 Z M48.183003,68 L48.183003,66.037 L49.158003,65.023 L51.186003,68 L53.032003,68 L50.211003,63.931 L52.941003,61.136 L51.030003,61.136 L48.183003,64.178 L48.183003,58.51 L46.610003,58.51 L46.610003,68 L48.183003,68 Z M55.643432,68.143 C56.696432,68.143 57.411432,67.701 57.879432,67.142 L57.879432,68 L59.413432,68 L59.413432,63.931 C59.413432,63.034 59.179432,62.306 58.672432,61.812 C58.191432,61.318 57.424432,61.045 56.397432,61.045 C55.305432,61.045 54.564432,61.266 53.810432,61.604 L54.226432,62.839 C54.850432,62.579 55.422432,62.41 56.189432,62.41 C57.294432,62.41 57.892432,62.93 57.892432,63.905 L57.892432,64.074 C57.359432,63.905 56.813432,63.788 56.046432,63.788 C54.369432,63.788 53.212432,64.516 53.212432,65.998 L53.212432,66.024 C53.212432,67.402 54.356432,68.143 55.643432,68.143 Z M56.085432,66.999 C55.331432,66.999 54.746432,66.622 54.746432,65.959 L54.746432,65.933 C54.746432,65.218 55.344432,64.789 56.358432,64.789 C56.982432,64.789 57.515432,64.906 57.918432,65.062 L57.918432,65.53 C57.918432,66.401 57.125432,66.999 56.085432,66.999 Z M63.753861,68.143 C64.871861,68.143 65.586861,67.571 66.093861,66.856 L66.093861,68 L67.666861,68 L67.666861,58.51 L66.093861,58.51 L66.093861,62.202 C65.599861,61.552 64.884861,60.993 63.753861,60.993 C62.115861,60.993 60.568861,62.28 60.568861,64.555 L60.568861,64.581 C60.568861,66.856 62.141861,68.143 63.753861,68.143 Z M64.130861,66.778 C63.064861,66.778 62.154861,65.907 62.154861,64.581 L62.154861,64.555 C62.154861,63.19 63.051861,62.358 64.130861,62.358 C65.183861,62.358 66.119861,63.229 66.119861,64.555 L66.119861,64.581 C66.119861,65.894 65.183861,66.778 64.130861,66.778 Z M71.24029,68.143 C72.29329,68.143 73.00829,67.701 73.47629,67.142 L73.47629,68 L75.01029,68 L75.01029,63.931 C75.01029,63.034 74.77629,62.306 74.26929,61.812 C73.78829,61.318 73.02129,61.045 71.99429,61.045 C70.90229,61.045 70.16129,61.266 69.40729,61.604 L69.82329,62.839 C70.44729,62.579 71.01929,62.41 71.78629,62.41 C72.89129,62.41 73.48929,62.93 73.48929,63.905 L73.48929,64.074 C72.95629,63.905 72.41029,63.788 71.64329,63.788 C69.96629,63.788 68.80929,64.516 68.80929,65.998 L68.80929,66.024 C68.80929,67.402 69.95329,68.143 71.24029,68.143 Z M71.68229,66.999 C70.92829,66.999 70.34329,66.622 70.34329,65.959 L70.34329,65.933 C70.34329,65.218 70.94129,64.789 71.95529,64.789 C72.57929,64.789 73.11229,64.906 73.51529,65.062 L73.51529,65.53 C73.51529,66.401 72.72229,66.999 71.68229,66.999 Z M78.089719,68 L78.089719,65.387 C78.089719,63.567 79.051719,62.67 80.429719,62.67 L80.520719,62.67 L80.520719,61.006 C79.311719,60.954 78.518719,61.656 78.089719,62.683 L78.089719,61.136 L76.516719,61.136 L76.516719,68 L78.089719,68 Z M87.862577,68.143 C88.980577,68.143 89.695577,67.571 90.202577,66.856 L90.202577,68 L91.775577,68 L91.775577,58.51 L90.202577,58.51 L90.202577,62.202 C89.708577,61.552 88.993577,60.993 87.862577,60.993 C86.224577,60.993 84.677577,62.28 84.677577,64.555 L84.677577,64.581 C84.677577,66.856 86.250577,68.143 87.862577,68.143 Z M88.239577,66.778 C87.173577,66.778 86.263577,65.907 86.263577,64.581 L86.263577,64.555 C86.263577,63.19 87.160577,62.358 88.239577,62.358 C89.292577,62.358 90.228577,63.229 90.228577,64.555 L90.228577,64.581 C90.228577,65.894 89.292577,66.778 88.239577,66.778 Z M95.349006,68.143 C96.402006,68.143 97.117006,67.701 97.585006,67.142 L97.585006,68 L99.119006,68 L99.119006,63.931 C99.119006,63.034 98.885006,62.306 98.378006,61.812 C97.897006,61.318 97.130006,61.045 96.103006,61.045 C95.011006,61.045 94.270006,61.266 93.516006,61.604 L93.932006,62.839 C94.556006,62.579 95.128006,62.41 95.895006,62.41 C97.000006,62.41 97.598006,62.93 97.598006,63.905 L97.598006,64.074 C97.065006,63.905 96.519006,63.788 95.752006,63.788 C94.075006,63.788 92.918006,64.516 92.918006,65.998 L92.918006,66.024 C92.918006,67.402 94.062006,68.143 95.349006,68.143 Z M95.791006,66.999 C95.037006,66.999 94.452006,66.622 94.452006,65.959 L94.452006,65.933 C94.452006,65.218 95.050006,64.789 96.064006,64.789 C96.688006,64.789 97.221006,64.906 97.624006,65.062 L97.624006,65.53 C97.624006,66.401 96.831006,66.999 95.791006,66.999 Z M102.198435,68 L102.198435,64.126 C102.198435,63.06 102.835435,62.423 103.745435,62.423 C104.681435,62.423 105.214435,63.034 105.214435,64.1 L105.214435,68 L106.787435,68 L106.787435,63.619 C106.787435,62.033 105.890435,60.993 104.343435,60.993 C103.277435,60.993 102.640435,61.552 102.198435,62.189 L102.198435,58.51 L100.625435,58.51 L100.625435,68 L102.198435,68 Z M110.282864,68.143 C111.335864,68.143 112.050864,67.701 112.518864,67.142 L112.518864,68 L114.052864,68 L114.052864,63.931 C114.052864,63.034 113.818864,62.306 113.311864,61.812 C112.830864,61.318 112.063864,61.045 111.036864,61.045 C109.944864,61.045 109.203864,61.266 108.449864,61.604 L108.865864,62.839 C109.489864,62.579 110.061864,62.41 110.828864,62.41 C111.933864,62.41 112.531864,62.93 112.531864,63.905 L112.531864,64.074 C111.998864,63.905 111.452864,63.788 110.685864,63.788 C109.008864,63.788 107.851864,64.516 107.851864,65.998 L107.851864,66.024 C107.851864,67.402 108.995864,68.143 110.282864,68.143 Z M110.724864,66.999 C109.970864,66.999 109.385864,66.622 109.385864,65.959 L109.385864,65.933 C109.385864,65.218 109.983864,64.789 110.997864,64.789 C111.621864,64.789 112.154864,64.906 112.557864,65.062 L112.557864,65.53 C112.557864,66.401 111.764864,66.999 110.724864,66.999 Z M123.474722,68 C125.502722,68 126.841722,67.129 126.841722,65.504 L126.841722,65.478 C126.841722,64.243 126.100722,63.632 125.034722,63.268 C125.710722,62.917 126.334722,62.332 126.334722,61.24 L126.334722,61.214 C126.334722,60.603 126.126722,60.109 125.723722,59.706 C125.203722,59.186 124.384722,58.9 123.344722,58.9 L119.262722,58.9 L119.262722,68 L123.474722,68 Z M123.019722,62.735 L120.835722,62.735 L120.835722,60.317 L123.136722,60.317 C124.163722,60.317 124.735722,60.759 124.735722,61.474 L124.735722,61.5 C124.735722,62.332 124.046722,62.735 123.019722,62.735 Z M123.487722,66.583 L120.835722,66.583 L120.835722,64.087 L123.370722,64.087 C124.631722,64.087 125.242722,64.542 125.242722,65.309 L125.242722,65.335 C125.242722,66.154 124.579722,66.583 123.487722,66.583 Z M130.064151,68.143 C131.117151,68.143 131.832151,67.701 132.300151,67.142 L132.300151,68 L133.834151,68 L133.834151,63.931 C133.834151,63.034 133.600151,62.306 133.093151,61.812 C132.612151,61.318 131.845151,61.045 130.818151,61.045 C129.726151,61.045 128.985151,61.266 128.231151,61.604 L128.647151,62.839 C129.271151,62.579 129.843151,62.41 130.610151,62.41 C131.715151,62.41 132.313151,62.93 132.313151,63.905 L132.313151,64.074 C131.780151,63.905 131.234151,63.788 130.467151,63.788 C128.790151,63.788 127.633151,64.516 127.633151,65.998 L127.633151,66.024 C127.633151,67.402 128.777151,68.143 130.064151,68.143 Z M130.506151,66.999 C129.752151,66.999 129.167151,66.622 129.167151,65.959 L129.167151,65.933 C129.167151,65.218 129.765151,64.789 130.779151,64.789 C131.403151,64.789 131.936151,64.906 132.339151,65.062 L132.339151,65.53 C132.339151,66.401 131.546151,66.999 130.506151,66.999 Z M136.91358,68 L136.91358,65.387 C136.91358,63.567 137.87558,62.67 139.25358,62.67 L139.34458,62.67 L139.34458,61.006 C138.13558,60.954 137.34258,61.656 136.91358,62.683 L136.91358,61.136 L135.34058,61.136 L135.34058,68 L136.91358,68 Z M142.632009,68.117 C143.230009,68.117 143.659009,67.987 144.049009,67.766 L144.049009,66.479 C143.737009,66.635 143.425009,66.713 143.074009,66.713 C142.541009,66.713 142.229009,66.466 142.229009,65.855 L142.229009,62.488 L144.075009,62.488 L144.075009,61.136 L142.229009,61.136 L142.229009,59.251 L140.656009,59.251 L140.656009,61.136 L139.785009,61.136 L139.785009,62.488 L140.656009,62.488 L140.656009,66.102 C140.656009,67.61 141.475009,68.117 142.632009,68.117 Z M146.699438,70.119 C147.804438,70.119 148.415438,69.599 148.961438,68.195 L151.691438,61.136 L150.053438,61.136 L148.272438,66.232 L146.335438,61.136 L144.645438,61.136 L147.505438,68.013 C147.245438,68.598 146.972438,68.793 146.530438,68.793 C146.205438,68.793 145.893438,68.689 145.607438,68.533 L145.074438,69.703 C145.555438,69.963 146.049438,70.119 146.699438,70.119 Z M157.967296,68 L157.967296,65.075 L159.774296,65.075 C161.776296,65.075 163.414296,64.009 163.414296,61.968 L163.414296,61.942 C163.414296,60.109 162.088296,58.9 159.956296,58.9 L156.368296,58.9 L156.368296,68 L157.967296,68 Z M159.826296,63.632 L157.967296,63.632 L157.967296,60.356 L159.826296,60.356 C161.022296,60.356 161.789296,60.915 161.789296,61.981 L161.789296,62.007 C161.789296,62.956 161.035296,63.632 159.826296,63.632 Z M166.857725,68.143 C167.923725,68.143 168.560725,67.584 169.002725,66.934 L169.002725,68 L170.588725,68 L170.588725,61.136 L169.002725,61.136 L169.002725,65.01 C169.002725,66.076 168.365725,66.7 167.455725,66.7 C166.519725,66.7 165.986725,66.102 165.986725,65.036 L165.986725,61.136 L164.413725,61.136 L164.413725,65.504 C164.413725,67.103 165.310725,68.143 166.857725,68.143 Z M174.149154,68.143 C175.202154,68.143 175.917154,67.701 176.385154,67.142 L176.385154,68 L177.919154,68 L177.919154,63.931 C177.919154,63.034 177.685154,62.306 177.178154,61.812 C176.697154,61.318 175.930154,61.045 174.903154,61.045 C173.811154,61.045 173.070154,61.266 172.316154,61.604 L172.732154,62.839 C173.356154,62.579 173.928154,62.41 174.695154,62.41 C175.800154,62.41 176.398154,62.93 176.398154,63.905 L176.398154,64.074 C175.865154,63.905 175.319154,63.788 174.552154,63.788 C172.875154,63.788 171.718154,64.516 171.718154,65.998 L171.718154,66.024 C171.718154,67.402 172.862154,68.143 174.149154,68.143 Z M174.591154,66.999 C173.837154,66.999 173.252154,66.622 173.252154,65.959 L173.252154,65.933 C173.252154,65.218 173.850154,64.789 174.864154,64.789 C175.488154,64.789 176.021154,64.906 176.424154,65.062 L176.424154,65.53 C176.424154,66.401 175.631154,66.999 174.591154,66.999 Z M180.998583,68 L180.998583,64.126 C180.998583,63.06 181.635583,62.423 182.545583,62.423 C183.481583,62.423 184.014583,63.034 184.014583,64.1 L184.014583,68 L185.587583,68 L185.587583,63.619 C185.587583,62.033 184.690583,60.993 183.143583,60.993 C182.077583,60.993 181.440583,61.552 180.998583,62.189 L180.998583,61.136 L179.425583,61.136 L179.425583,68 L180.998583,68 Z M192.201441,68 L192.201441,64.126 C192.201441,63.06 192.838441,62.423 193.748441,62.423 C194.684441,62.423 195.217441,63.034 195.217441,64.1 L195.217441,68 L196.790441,68 L196.790441,63.619 C196.790441,62.033 195.893441,60.993 194.346441,60.993 C193.280441,60.993 192.643441,61.552 192.201441,62.189 L192.201441,58.51 L190.628441,58.51 L190.628441,68 L192.201441,68 Z M201.45587,68.156 C202.71687,68.156 203.61387,67.649 204.26387,66.869 L203.34087,66.05 C202.79487,66.583 202.24887,66.869 201.48187,66.869 C200.46787,66.869 199.67487,66.245 199.50587,65.127 L204.54987,65.127 C204.56287,64.971 204.57587,64.828 204.57587,64.685 C204.57587,62.709 203.47087,60.993 201.28687,60.993 C199.32387,60.993 197.93287,62.605 197.93287,64.568 L197.93287,64.594 C197.93287,66.713 199.46687,68.156 201.45587,68.156 Z M203.01587,64.087 L199.49287,64.087 C199.63587,63.021 200.31187,62.28 201.27387,62.28 C202.31387,62.28 202.91187,63.073 203.01587,64.087 Z M208.617299,68.143 C209.735299,68.143 210.450299,67.571 210.957299,66.856 L210.957299,68 L212.530299,68 L212.530299,58.51 L210.957299,58.51 L210.957299,62.202 C210.463299,61.552 209.748299,60.993 208.617299,60.993 C206.979299,60.993 205.432299,62.28 205.432299,64.555 L205.432299,64.581 C205.432299,66.856 207.005299,68.143 208.617299,68.143 Z M208.994299,66.778 C207.928299,66.778 207.018299,65.907 207.018299,64.581 L207.018299,64.555 C207.018299,63.19 207.915299,62.358 208.994299,62.358 C210.047299,62.358 210.983299,63.229 210.983299,64.555 L210.983299,64.581 C210.983299,65.894 210.047299,66.778 208.994299,66.778 Z M215.843728,60.083 L215.843728,58.588 L214.153728,58.588 L214.153728,60.083 L215.843728,60.083 Z M215.791728,68 L215.791728,61.136 L214.218728,61.136 L214.218728,68 L215.791728,68 Z M218.871157,70.119 C219.976157,70.119 220.587157,69.599 221.133157,68.195 L223.863157,61.136 L222.225157,61.136 L220.444157,66.232 L218.507157,61.136 L216.817157,61.136 L219.677157,68.013 C219.417157,68.598 219.144157,68.793 218.702157,68.793 C218.377157,68.793 218.065157,68.689 217.779157,68.533 L217.246157,69.703 C217.727157,69.963 218.221157,70.119 218.871157,70.119 Z M227.592586,68.156 C228.853586,68.156 229.750586,67.649 230.400586,66.869 L229.477586,66.05 C228.931586,66.583 228.385586,66.869 227.618586,66.869 C226.604586,66.869 225.811586,66.245 225.642586,65.127 L230.686586,65.127 C230.699586,64.971 230.712586,64.828 230.712586,64.685 C230.712586,62.709 229.607586,60.993 227.423586,60.993 C225.460586,60.993 224.069586,62.605 224.069586,64.568 L224.069586,64.594 C224.069586,66.713 225.603586,68.156 227.592586,68.156 Z M229.152586,64.087 L225.629586,64.087 C225.772586,63.021 226.448586,62.28 227.410586,62.28 C228.450586,62.28 229.048586,63.073 229.152586,64.087 Z M233.337015,65.114 L233.818015,59.355 L233.818015,58.9 L231.972015,58.9 L231.972015,59.355 L232.466015,65.114 L233.337015,65.114 Z M233.766015,68 L233.766015,66.206 L232.037015,66.206 L232.037015,68 L233.766015,68 Z" id="SatınaldığınızBartyPuanmiktarınınyarısıkadardahaBartyPuanhediye!" fill="#FFFFFF" fill-rule="nonzero"></path>
            <path d="M14.452,26.65 C16.552,26.65 17.938,24.928 17.938,22.891 L17.938,22.849 C17.938,20.833 16.573,19.132 14.494,19.132 C12.415,19.132 11.008,20.833 11.008,22.891 L11.008,22.933 C11.008,24.949 12.394,26.65 14.452,26.65 Z M14.578,34 L19.534,27.133 L25.33,19.3 L23.251,19.3 L18.274,26.188 L12.499,34 L14.578,34 Z M14.494,25.033 C13.549,25.033 12.877,24.088 12.877,22.891 L12.877,22.849 C12.877,21.715 13.465,20.749 14.452,20.749 C15.397,20.749 16.069,21.715 16.069,22.891 L16.069,22.933 C16.069,24.067 15.481,25.033 14.494,25.033 Z M23.335,34.168 C25.414,34.168 26.821,32.446 26.821,30.409 L26.821,30.367 C26.821,28.351 25.435,26.65 23.377,26.65 C21.298,26.65 19.891,28.351 19.891,30.409 L19.891,30.451 C19.891,32.467 21.277,34.168 23.335,34.168 Z M23.377,32.551 C22.432,32.551 21.76,31.606 21.76,30.409 L21.76,30.367 C21.76,29.233 22.348,28.267 23.335,28.267 C24.28,28.267 24.952,29.233 24.952,30.409 L24.952,30.451 C24.952,31.585 24.364,32.551 23.377,32.551 Z M33.7629999,34.252 C37.0179999,34.252 39.2229999,32.278 39.2229999,29.275 L39.2229999,29.233 C39.2229999,26.125 36.9549999,24.613 34.0989999,24.613 C33.1119999,24.613 32.4609999,24.781 31.7679999,25.033 L31.9989999,21.589 L38.5719999,21.589 L38.5719999,19.3 L29.7729999,19.3 L29.3529999,26.503 L30.9069999,27.532 C31.6629999,27.175 32.5659999,26.881 33.6159999,26.881 C35.4009999,26.881 36.6609999,27.826 36.6609999,29.317 L36.6609999,29.359 C36.6609999,30.892 35.5059999,31.9 33.7419999,31.9 C32.3769999,31.9 31.1379999,31.228 29.9619999,30.136 L28.3659999,32.005 C29.7519999,33.349 31.5159999,34.252 33.7629999,34.252 Z M47.5929999,34.252 C51.4569999,34.252 54.0189999,30.85 54.0189999,26.65 L54.0189999,26.608 C54.0189999,22.408 51.4779999,19.048 47.6349999,19.048 C43.7709999,19.048 41.2089999,22.45 41.2089999,26.65 L41.2089999,26.692 C41.2089999,30.892 43.7289999,34.252 47.5929999,34.252 Z M47.6349999,31.921 C45.3459999,31.921 43.8759999,29.548 43.8759999,26.65 L43.8759999,26.608 C43.8759999,23.689 45.3249999,21.379 47.5929999,21.379 C49.8609999,21.379 51.3519999,23.752 51.3519999,26.65 L51.3519999,26.692 C51.3519999,29.569 49.9239999,31.921 47.6349999,31.921 Z M69.3099997,34 C72.5859997,34 74.7489997,32.593 74.7489997,29.968 L74.7489997,29.926 C74.7489997,27.931 73.5519997,26.944 71.8299997,26.356 C72.9219997,25.789 73.9299997,24.844 73.9299997,23.08 L73.9299997,23.038 C73.9299997,22.051 73.5939997,21.253 72.9429997,20.602 C72.1029997,19.762 70.7799997,19.3 69.0999997,19.3 L62.5059997,19.3 L62.5059997,34 L69.3099997,34 Z M68.5749997,25.495 L65.0469997,25.495 L65.0469997,21.589 L68.7639997,21.589 C70.4229997,21.589 71.3469997,22.303 71.3469997,23.458 L71.3469997,23.5 C71.3469997,24.844 70.2339997,25.495 68.5749997,25.495 Z M69.3309997,31.711 L65.0469997,31.711 L65.0469997,27.679 L69.1419997,27.679 C71.1789997,27.679 72.1659997,28.414 72.1659997,29.653 L72.1659997,29.695 C72.1659997,31.018 71.0949997,31.711 69.3309997,31.711 Z M80.1159996,34.231 C81.8169996,34.231 82.9719996,33.517 83.7279996,32.614 L83.7279996,34 L86.2059996,34 L86.2059996,27.427 C86.2059996,25.978 85.8279996,24.802 85.0089996,24.004 C84.2319996,23.206 82.9929996,22.765 81.3339996,22.765 C79.5699996,22.765 78.3729996,23.122 77.1549996,23.668 L77.8269996,25.663 C78.8349996,25.243 79.7589996,24.97 80.9979996,24.97 C82.7829996,24.97 83.7489996,25.81 83.7489996,27.385 L83.7489996,27.658 C82.8879996,27.385 82.0059996,27.196 80.7669996,27.196 C78.0579996,27.196 76.1889996,28.372 76.1889996,30.766 L76.1889996,30.808 C76.1889996,33.034 78.0369996,34.231 80.1159996,34.231 Z M80.8299996,32.383 C79.6119996,32.383 78.6669996,31.774 78.6669996,30.703 L78.6669996,30.661 C78.6669996,29.506 79.6329996,28.813 81.2709996,28.813 C82.2789996,28.813 83.1399996,29.002 83.7909996,29.254 L83.7909996,30.01 C83.7909996,31.417 82.5099996,32.383 80.8299996,32.383 Z M91.3419996,34 L91.3419996,29.779 C91.3419996,26.839 92.8959996,25.39 95.1219996,25.39 L95.2689996,25.39 L95.2689996,22.702 C93.3159996,22.618 92.0349996,23.752 91.3419996,25.411 L91.3419996,22.912 L88.8009996,22.912 L88.8009996,34 L91.3419996,34 Z M100.740999,34.189 C101.706999,34.189 102.399999,33.979 103.029999,33.622 L103.029999,31.543 C102.525999,31.795 102.021999,31.921 101.454999,31.921 C100.593999,31.921 100.089999,31.522 100.089999,30.535 L100.089999,25.096 L103.071999,25.096 L103.071999,22.912 L100.089999,22.912 L100.089999,19.867 L97.5489995,19.867 L97.5489995,22.912 L96.1419995,22.912 L96.1419995,25.096 L97.5489995,25.096 L97.5489995,30.934 C97.5489995,33.37 98.8719995,34.189 100.740999,34.189 Z M107.472999,37.423 C109.257999,37.423 110.244999,36.583 111.126999,34.315 L115.536999,22.912 L112.890999,22.912 L110.013999,31.144 L106.884999,22.912 L104.154999,22.912 L108.774999,34.021 C108.354999,34.966 107.913999,35.281 107.199999,35.281 C106.674999,35.281 106.170999,35.113 105.708999,34.861 L104.847999,36.751 C105.624999,37.171 106.422999,37.423 107.472999,37.423 Z M125.997999,34 L125.997999,27.805 L133.011999,27.805 L133.011999,34 L135.594999,34 L135.594999,19.3 L133.011999,19.3 L133.011999,25.411 L125.997999,25.411 L125.997999,19.3 L123.414999,19.3 L123.414999,34 L125.997999,34 Z M143.712999,34.252 C145.749999,34.252 147.198999,33.433 148.248999,32.173 L146.757999,30.85 C145.875999,31.711 144.993999,32.173 143.754999,32.173 C142.116999,32.173 140.835999,31.165 140.562999,29.359 L148.710999,29.359 C148.731999,29.107 148.752999,28.876 148.752999,28.645 C148.752999,25.453 146.967999,22.681 143.439999,22.681 C140.268999,22.681 138.021999,25.285 138.021999,28.456 L138.021999,28.498 C138.021999,31.921 140.499999,34.252 143.712999,34.252 Z M146.232999,27.679 L140.541999,27.679 C140.772999,25.957 141.864999,24.76 143.418999,24.76 C145.098999,24.76 146.064999,26.041 146.232999,27.679 Z M155.442999,34.231 C157.248999,34.231 158.403999,33.307 159.222999,32.152 L159.222999,34 L161.763999,34 L161.763999,18.67 L159.222999,18.67 L159.222999,24.634 C158.424999,23.584 157.269999,22.681 155.442999,22.681 C152.796999,22.681 150.297999,24.76 150.297999,28.435 L150.297999,28.477 C150.297999,32.152 152.838999,34.231 155.442999,34.231 Z M156.051999,32.026 C154.329999,32.026 152.859999,30.619 152.859999,28.477 L152.859999,28.435 C152.859999,26.23 154.308999,24.886 156.051999,24.886 C157.752999,24.886 159.264999,26.293 159.264999,28.435 L159.264999,28.477 C159.264999,30.598 157.752999,32.026 156.051999,32.026 Z M167.277999,21.211 L167.277999,18.796 L164.547999,18.796 L164.547999,21.211 L167.277999,21.211 Z M167.193999,34 L167.193999,22.912 L164.652999,22.912 L164.652999,34 L167.193999,34 Z M172.329999,37.423 C174.114999,37.423 175.101999,36.583 175.983999,34.315 L180.393999,22.912 L177.747999,22.912 L174.870999,31.144 L171.741999,22.912 L169.011999,22.912 L173.631999,34.021 C173.211999,34.966 172.770999,35.281 172.056999,35.281 C171.531999,35.281 171.027999,35.113 170.565999,34.861 L169.704999,36.751 C170.481999,37.171 171.279999,37.423 172.329999,37.423 Z M186.579999,34.252 C188.616999,34.252 190.065999,33.433 191.115999,32.173 L189.624999,30.85 C188.742999,31.711 187.860999,32.173 186.621999,32.173 C184.983999,32.173 183.702999,31.165 183.429999,29.359 L191.577999,29.359 C191.598999,29.107 191.619999,28.876 191.619999,28.645 C191.619999,25.453 189.834999,22.681 186.306999,22.681 C183.135999,22.681 180.888999,25.285 180.888999,28.456 L180.888999,28.498 C180.888999,31.921 183.366999,34.252 186.579999,34.252 Z M189.099999,27.679 L183.408999,27.679 C183.639999,25.957 184.731999,24.76 186.285999,24.76 C187.965999,24.76 188.931999,26.041 189.099999,27.679 Z M196.020999,29.338 L196.797999,20.035 L196.797999,19.3 L193.815999,19.3 L193.815999,20.035 L194.613999,29.338 L196.020999,29.338 Z M196.713999,34 L196.713999,31.102 L193.920999,31.102 L193.920999,34 L196.713999,34 Z" id="%50BartyHediye!" fill="#FFFFFF" fill-rule="nonzero"></path>
            <g id="present-copy" transform="translate(269.000000, 9.000000)" fill-rule="nonzero">
                <path d="M16.2789939,0.0769105691 C14.5685163,0.552794715 12.4187093,4.69120935 13.0965955,6.28319106 C14.3784756,9.29365854 25.8315549,10.3214431 25.8315549,10.3214431 L28.3633435,7.43729675 C28.3633435,7.43729675 19.7256606,-0.882012195 16.2789939,0.0769105691 Z" id="Path" fill="#E56353"></path>
                <path d="M14.4608638,6.02272358 C15.8392175,6.07213415 22.2981402,6.4428252 26.0528963,9.09836382 L25.2961992,9.49230691 C25.2961992,9.49230691 16.6333638,8.29795732 14.3844004,6.2071748 C14.3120732,6.13998984 14.3618191,6.01914634 14.4608638,6.02272358 Z" id="Path" fill="#D15241"></path>
                <path d="M38.6702541,0.0769105691 C40.3806199,0.552794715 42.5304268,4.69120935 41.8526524,6.28319106 C40.5708841,9.29365854 29.1176931,10.3214431 29.1176931,10.3214431 L26.5859045,7.43729675 C26.5859045,7.43729675 35.2234756,-0.882012195 38.6702541,0.0769105691 Z" id="Path" fill="#E56353"></path>
                <path d="M40.4884959,6.02272358 C39.1100305,6.07213415 32.6512195,6.4428252 28.8964634,9.09836382 L29.3960467,9.49230691 C29.3960467,9.49230691 38.3159959,8.29795732 40.5649593,6.2071748 C40.637063,6.13998984 40.5874289,6.01914634 40.4884959,6.02272358 Z" id="Path" fill="#D15241"></path>
                <path d="M54.1222358,9.49230691 L0.826788618,9.49230691 C0.370914634,9.49230691 0.00134146341,9.86020325 0.00134146341,10.3139533 L0.00134146341,19.8747866 C0.00134146341,20.3286484 0.370914634,20.6965447 0.826788618,20.6965447 L54.122124,20.6965447 C54.577998,20.6965447 54.947683,20.3286484 54.947683,19.8747866 L54.947683,10.3139533 C54.947683,9.86009146 54.577998,9.49230691 54.1222358,9.49230691 Z" id="Path" fill="#FCD462"></path>
                <rect id="Rectangle" fill="#F6C358" x="2.93590447" y="20.6964329" width="49.0796748" height="1.67984756"></rect>
                <path d="M2.93612805,22.3763923 L2.93612805,53.8117988 C2.93612805,54.438374 3.4463313,54.9463415 4.0759248,54.9463415 L50.873435,54.9463415 C51.5030285,54.9463415 52.0132317,54.438374 52.0132317,53.8117988 L52.0132317,22.3763923 L2.93612805,22.3763923 Z" id="Path" fill="#FCD462"></path>
                <rect id="Rectangle" fill="#E56353" x="24.0404776" y="22.379187" width="6.86829268" height="32.570061"></rect>
                <rect id="Rectangle" fill="#D15241" x="24.0404776" y="20.6964329" width="6.86829268" height="1.67984756"></rect>
                <rect id="Rectangle" fill="#E56353" x="24.0404776" y="9.49197154" width="6.86829268" height="11.2044614"></rect>
                <path d="M27.474624,6.41465447 C25.7671646,6.41465447 24.382998,7.79244919 24.382998,9.49219512 L30.5661382,9.49219512 C30.56625,7.79256098 29.1820833,6.41465447 27.474624,6.41465447 Z" id="Path" fill="#D15241"></path>
            </g>
            <g id="discount-copy" transform="translate(243.105182, 32.500000)" fill="#E56353" fill-rule="nonzero">
                <path d="M45.7355028,23.5015924 L47.7975665,18.2378319 C48.0237473,17.6571221 47.8475025,16.9987927 47.3510798,16.604945 L42.8803377,13.0574406 L41.9756146,7.48895117 C41.8757426,6.87374376 41.3822572,6.393652 40.7536509,6.29590877 L35.0638826,5.41047008 L31.4420528,1.03214824 C31.0425647,0.546306881 30.3552101,0.373818824 29.7765398,0.595178497 L24.3951998,2.61616356 L19.0167973,0.598053298 C18.4205025,0.373818824 17.7537098,0.552056483 17.3512843,1.03502304 L13.7265171,5.41334488 L8.03674876,6.29878357 C7.41107986,6.39652681 6.91759453,6.87949336 6.8177225,7.49182597 L5.9129994,13.0603154 L1.43931993,16.6078198 C0.9458346,16.9987927 0.766652428,17.6571221 0.992833203,18.2378319 L3.05489689,23.5015924 L0.992833203,28.765353 C0.763715015,29.3460628 0.9458346,30.0043922 1.43931993,30.3953651 L5.9129994,33.9399947 L6.8177225,39.5084841 C6.91759453,40.1236915 7.40814245,40.6066581 8.03674876,40.7044013 L13.7265171,41.58984 L17.3512843,45.965287 C17.7537098,46.4540032 18.4263773,46.6264912 19.0197347,46.4022568 L24.3951998,44.3870213 L29.7736024,46.4051316 C29.9439724,46.4683772 30.1202171,46.5 30.2993993,46.5 C30.7311989,46.5 31.1571238,46.3131379 31.4420528,45.965287 L35.0638826,41.58984 L40.7536509,40.7044013 C41.3822572,40.6066581 41.8757426,40.1236915 41.9756146,39.5084841 L42.8803377,33.9399947 L47.3510798,30.3953651 C47.8475025,30.0015174 48.0237473,29.3460628 47.7975665,28.765353 L45.7355028,23.5015924 Z" id="Path"></path>
            </g>
            <path d="M252.672,56.611 C254.61,56.611 255.919,55.098 255.919,53.279 L255.919,53.245 C255.919,51.426 254.661,49.913 252.672,49.913 C250.683,49.913 249.425,51.426 249.425,53.245 L249.425,53.279 C249.425,55.098 250.734,56.611 252.672,56.611 Z M253.42,62 L257.721,56.645 L263.076,50.1 L260.509,50.1 L256.106,55.591 L250.853,62 L253.42,62 Z M252.672,54.452 C252.23,54.452 251.788,53.993 251.788,53.279 L251.788,53.245 C251.788,52.514 252.179,52.072 252.672,52.072 C253.148,52.072 253.556,52.531 253.556,53.245 L253.556,53.279 C253.556,54.01 253.114,54.452 252.672,54.452 Z M261.257,62.187 C263.195,62.187 264.504,60.674 264.504,58.855 L264.504,58.821 C264.504,57.002 263.246,55.489 261.257,55.489 C259.268,55.489 258.01,57.002 258.01,58.821 L258.01,58.855 C258.01,60.674 259.319,62.187 261.257,62.187 Z M261.257,60.028 C260.815,60.028 260.373,59.569 260.373,58.855 L260.373,58.821 C260.373,58.09 260.764,57.648 261.257,57.648 C261.733,57.648 262.141,58.107 262.141,58.821 L262.141,58.855 C262.141,59.586 261.699,60.028 261.257,60.028 Z M269.621,62.255 C272.647,62.255 274.908,60.691 274.908,57.937 L274.908,57.903 C274.908,55.404 272.902,54.146 270.93,54.146 C269.995,54.146 269.298,54.401 268.669,54.792 L268.754,53.245 L274.381,53.245 L274.381,50.1 L265.796,50.1 L265.456,56.288 L267.853,57.478 C268.414,57.036 268.941,56.73 269.672,56.73 C270.505,56.73 271.066,57.172 271.066,57.869 L271.066,57.903 C271.066,58.549 270.522,59.042 269.57,59.042 C268.601,59.042 267.649,58.566 266.629,57.75 L264.436,60.3 C265.762,61.49 267.309,62.255 269.621,62.255 Z M280.977,62.255 C284.581,62.255 286.723,59.331 286.723,56.05 L286.723,56.016 C286.723,52.735 284.615,49.845 281.011,49.845 C277.407,49.845 275.265,52.769 275.265,56.05 L275.265,56.084 C275.265,59.365 277.373,62.255 280.977,62.255 Z M281.011,58.804 C279.94,58.804 279.209,57.682 279.209,56.05 L279.209,56.016 C279.209,54.384 279.906,53.296 280.977,53.296 C282.048,53.296 282.779,54.418 282.779,56.05 L282.779,56.084 C282.779,57.716 282.082,58.804 281.011,58.804 Z" id="%50" fill="#FFFFFF" fill-rule="nonzero"></path>
        </g>
    </g>
</svg>