<?xml version="1.0" encoding="UTF-8"?>
<svg width="61px" height="61px" viewBox="0 0 61 61" version="1.1" xmlns="http://www.w3.org/2000/svg" xmlns:xlink="http://www.w3.org/1999/xlink">
    <title>Group 4</title>
    <g id="App_V5" stroke="none" stroke-width="1" fill="none" fill-rule="evenodd">
        <g id="05_leaderboard_giris" transform="translate(-159.000000, -177.000000)">
            <g id="Group-4" transform="translate(159.000000, 177.000000)">
                <circle id="Oval" fill="#0A2239" cx="30.5" cy="30.5" r="30.5"></circle>
                <g id="Group-3" transform="translate(14.767908, 12.000000)" fill="#FFD623" fill-rule="nonzero">
                    <path d="M19.2502782,35.3719008 C18.8853196,35.3719008 18.5891212,35.6680992 18.5891212,36.0330579 C18.5891212,36.3980165 18.8853196,36.6942149 19.2502782,36.6942149 C19.6152369,36.6942149 19.9114353,36.3980165 19.9114353,36.0330579 C19.9114353,35.6680992 19.6152369,35.3719008 19.2502782,35.3719008 Z" id="Path" transform="translate(19.250278, 36.033058) rotate(-360.000000) translate(-19.250278, -36.033058) "></path>
                    <path d="M30.1593692,3.59375 L27.8453196,3.59375 L27.8453196,2.34375 C27.8453196,1.05140625 26.8072369,0 25.53127,0 L7.01887329,0 C5.74290634,0 4.7048237,1.05140625 4.7048237,2.34375 L4.7048237,3.59375 L2.39077411,3.59375 C1.11480717,3.59375 0.0767245258,4.64515625 0.0767245258,5.9375 C0.0767245258,11.0200781 2.42486778,14.7552344 6.23425621,15.7951563 C7.54015152,18.7064844 9.60490083,21.1814063 12.2256391,22.9697656 C12.8292975,23.3817188 13.1896722,24.0869531 13.1896722,24.85625 L13.1896722,29.1608594 C12.6609119,29.2982031 12.1758099,29.5766406 11.7795675,29.9780469 C11.1966584,30.5685156 10.8756226,31.353125 10.8756226,32.1875 L10.1042727,32.1875 C8.82830579,32.1875 7.79022315,33.2389063 7.79022315,34.53125 L7.79022315,39.21875 C7.79022315,39.6502344 8.13563362,40 8.56157301,40 L23.9885703,40 C24.4145096,40 24.7599201,39.6502344 24.7599201,39.21875 L24.7599201,34.53125 C24.7599201,33.2389063 23.7218375,32.1875 22.4458705,32.1875 L21.6745207,32.1875 C21.6745207,30.7340625 20.6897383,29.5091406 19.3604711,29.1614063 L19.3604711,24.8601563 C19.3604711,24.0883594 19.7210771,23.3817969 20.3252755,22.9698438 C22.9462452,21.1813281 25.0109945,18.7063281 26.3168127,15.7949219 C30.1256612,14.7546094 32.4734187,11.0196875 32.4734187,5.9375 C32.4734187,4.64515625 31.4353361,3.59375 30.1593692,3.59375 Z M1.61942425,5.9375 C1.61942425,5.50671875 1.9654518,5.15625 2.39077411,5.15625 L4.7048237,5.15625 L4.7048237,8.6484375 C4.7048237,10.4292969 4.97117081,12.1732031 5.49700001,13.8526562 C3.04233334,12.6211719 1.61942425,9.77703125 1.61942425,5.9375 Z M22.4458705,33.75 C22.8711928,33.75 23.2172204,34.1004688 23.2172204,34.53125 L23.2172204,38.4375 L9.33292287,38.4375 L9.33292287,34.53125 C9.33292287,34.1004688 9.67895042,33.75 10.1042727,33.75 L22.4458705,33.75 Z M26.3026198,8.6484375 C26.3026198,10.7825 25.8831598,12.8590625 25.0556557,14.8203125 C23.8785758,17.6107031 21.9448017,19.980625 19.4635234,21.6738281 C18.433,22.3764063 17.8177714,23.5675781 17.8177714,24.8601563 L17.8177714,29.84375 C17.8177714,30.2752344 18.1631818,30.625 18.5891212,30.625 C19.4397658,30.625 20.1318209,31.3259375 20.1318209,32.1875 L12.4183223,32.1875 C12.4183223,31.7704688 12.5789174,31.3782031 12.8704105,31.0828906 C13.1476336,30.8021094 13.5114793,30.6413281 13.9005482,30.6261719 C13.9205262,30.6277344 13.9406584,30.6285156 13.9609449,30.6285156 C14.3868843,30.6285156 14.7322948,30.2752344 14.7322948,29.84375 L14.7322948,24.85625 C14.7322948,23.5664063 14.1174518,22.3767969 13.0876226,21.6739844 C10.606113,19.9807031 8.67233885,17.6107813 7.49510469,14.8201563 C6.66729202,12.8596094 6.24752342,10.783125 6.24752342,8.6484375 L6.24752342,2.34375 C6.24752342,1.91296875 6.59355097,1.5625 7.01887329,1.5625 L25.53127,1.5625 C25.9565923,1.5625 26.3026198,1.91296875 26.3026198,2.34375 L26.3026198,8.6484375 Z M27.0534518,13.8525 C27.5790496,12.1726563 27.8453196,10.4288281 27.8453196,8.6484375 L27.8453196,5.15625 L30.1593692,5.15625 C30.5846915,5.15625 30.930719,5.50671875 30.930719,5.9375 C30.930719,9.77679688 29.5079642,12.6208594 27.0534518,13.8525 Z" id="Shape" transform="translate(16.275072, 20.000000) rotate(-360.000000) translate(-16.275072, -20.000000) "></path>
                    <path d="M22.1870302,9.11705359 C22.0947662,8.83563904 21.8489906,8.63054294 21.5531176,8.58810927 L18.1643978,8.10128776 L16.6486768,5.06137343 C16.5163663,4.79604638 16.2434219,4.62809917 15.9444865,4.62809917 C15.6455511,4.62809917 15.3726066,4.79604638 15.2402961,5.06137343 L13.7245751,8.10128776 L10.3359339,8.58810927 C10.0400609,8.63062066 9.79436378,8.83571676 9.70194272,9.11705359 C9.60960019,9.39846813 9.68663082,9.70731689 9.90068333,9.91381191 L12.3532571,12.2795282 L11.7743887,15.6203641 C11.7238987,15.9119596 11.8449805,16.2065861 12.08683,16.3805176 C12.3286795,16.5543713 12.6492871,16.5772979 12.9137511,16.4396605 L15.944565,14.8625422 L18.9760856,16.4396605 C19.2422771,16.5781528 19.5627276,16.5532832 19.8030067,16.3804398 C20.0447777,16.2065084 20.1658594,15.9118042 20.1152909,15.6202087 L19.5357944,12.2794505 L21.9882896,9.91381191 C22.2024206,9.70731689 22.2793727,9.39846813 22.1870302,9.11705359 Z M18.143982,11.4515275 C17.9589043,11.630122 17.8743355,11.8874441 17.9181511,12.1396369 L18.2982788,14.3310332 L16.309852,13.2965375 C16.0809587,13.1775522 15.8077002,13.1775522 15.579121,13.2966152 L13.5913223,14.3310332 L13.9710574,12.1394815 C14.014716,11.8872887 13.9302257,11.6300443 13.745148,11.4515275 L12.1366918,9.89997822 L14.3589589,9.58071532 C14.6147854,9.54395502 14.8359049,9.38494531 14.9503123,9.15552368 L15.944565,7.16137407 L16.9388177,9.15552368 C17.0532251,9.38494531 17.2743446,9.54395502 17.5301711,9.58071532 L19.7525167,9.89997822 L18.143982,11.4515275 Z" id="Shape" transform="translate(15.944493, 10.578512) rotate(-360.000000) translate(-15.944493, -10.578512) "></path>
                    <path d="M16.1648788,35.3719008 L13.0794793,35.3719008 C12.65354,35.3719008 12.3081295,35.6679008 12.3081295,36.0330579 C12.3081295,36.3982149 12.65354,36.6942149 13.0794793,36.6942149 L16.1648788,36.6942149 C16.5908182,36.6942149 16.9362287,36.3982149 16.9362287,36.0330579 C16.9362287,35.6679008 16.5908182,35.3719008 16.1648788,35.3719008 Z" id="Path" transform="translate(14.622179, 36.033058) rotate(-360.000000) translate(-14.622179, -36.033058) "></path>
                    <path d="M28.1758981,37.4424152 L28.5064766,37.4424152 C28.3380743,37.3298152 28.2248178,37.3186152 28.1758981,37.4424152 Z" id="Path" transform="translate(28.341187, 37.398065) rotate(-360.000000) translate(-28.341187, -37.398065) "></path>
                </g>
            </g>
        </g>
    </g>
</svg>