<?xml version="1.0" encoding="UTF-8"?>
<svg width="20px" height="17px" viewBox="0 0 20 17" version="1.1" xmlns="http://www.w3.org/2000/svg" xmlns:xlink="http://www.w3.org/1999/xlink">
    <title>urundetay_kargo</title>
    <g id="App_V4" stroke="none" stroke-width="1" fill="none" fill-rule="evenodd">
        <g id="takas_teklifi_gonder_1" transform="translate(-195.000000, -418.000000)" stroke="#00856C">
            <path d="M197.636364,431.5 L196,431.5 L196,419 L206.636364,419 L206.636364,430.666667 M206.636364,431.5 L202.545455,431.5 M200.090909,434 C201.446517,434 202.545455,432.880712 202.545455,431.5 C202.545455,430.119288 201.446517,429 200.090909,429 C198.735301,429 197.636364,430.119288 197.636364,431.5 C197.636364,432.880712 198.735301,434 200.090909,434 Z M209.090909,434 C210.446517,434 211.545455,432.880712 211.545455,431.5 C211.545455,430.119288 210.446517,429 209.090909,429 C207.735301,429 206.636364,430.119288 206.636364,431.5 C206.636364,432.880712 207.735301,434 209.090909,434 Z M206.636364,423.166667 L210.727273,423.166667 L214,427.333333 L214,431.5 L211.545455,431.5" id="urundetay_kargo"></path>
        </g>
    </g>
</svg>