<?xml version="1.0" encoding="UTF-8"?>
<svg width="32px" height="32px" viewBox="0 0 32 32" version="1.1" xmlns="http://www.w3.org/2000/svg" xmlns:xlink="http://www.w3.org/1999/xlink">
    <title>urundetay_fav</title>
    <g id="App_V4" stroke="none" stroke-width="1" fill="none" fill-rule="evenodd">
        <g id="takas_teklifi_gonder_1" transform="translate(-324.000000, -74.000000)">
            <g id="urundetay_fav" transform="translate(324.000000, 74.000000)">
                <rect id="Rectangle-Copy-3" fill="#FFFFFF" x="0" y="0" width="32" height="32"></rect>
                <path d="M16,21.6004 L10.3611698,25.8963831 C9.92185492,26.2310782 9.29439577,26.1462672 8.95970059,25.7069523 C8.75126398,25.4333622 8.69805463,25.0718543 8.81882139,24.7498096 L11.2,18.4 L11.2,18.4 L6.4,14.8 C5.9581722,14.4686292 5.86862915,13.8418278 6.2,13.4 C6.38885438,13.1481942 6.6852427,13 7,13 L13,13 L13,13 L15.0513167,6.84604989 C15.2259645,6.32210658 15.7922844,6.03894659 16.3162278,6.21359436 C16.6148328,6.31312936 16.8491483,6.5474449 16.9486833,6.84604989 L19,13 L19,13 L25,13 C25.5522847,13 26,13.4477153 26,14 C26,14.3147573 25.8518058,14.6111456 25.6,14.8 L20.8,18.4 L20.8,18.4 L23.1811786,24.7498096 C23.3750987,25.26693 23.1130932,25.8433421 22.5959729,26.0372623 C22.2739282,26.158029 21.9124203,26.1048197 21.6388302,25.8963831 L16,21.6004 L16,21.6004 Z" id="Shape-Copy" fill="#F2CC0F"></path>
            </g>
        </g>
    </g>
</svg>