<?xml version="1.0" encoding="UTF-8"?>
<svg width="31px" height="32px" viewBox="0 0 31 32" version="1.1" xmlns="http://www.w3.org/2000/svg" xmlns:xlink="http://www.w3.org/1999/xlink">
    <title>green_b</title>
    <g id="App_V5" stroke="none" stroke-width="1" fill="none" fill-rule="evenodd">
        <g id="06_1" transform="translate(-160.000000, -292.000000)">
            <g id="green_b" transform="translate(161.000000, 293.000000)">
                <path d="M10.0840336,21.3600983 L10.0840336,7.6931863 C10.0840336,7.4268554 10.2012886,7.21659732 10.4358022,7.06240575 C10.6703158,6.90821417 10.94621,6.83111954 11.2634931,6.83111954 L15.2571016,6.83111954 C18.02988,6.83111954 19.4162483,8.06463363 19.4162483,10.5316988 C19.4162483,12.2418235 18.8299732,13.3561913 17.6574052,13.8748357 C18.360946,14.155184 18.8920423,14.5511701 19.2507102,15.0628058 C19.609378,15.5744414 19.7887092,16.3208576 19.7887092,17.3020767 L19.7887092,17.7436231 C19.7887092,19.2995563 19.4162521,20.4314456 18.6713265,21.1393251 C17.926401,21.8472046 16.9193872,22.201139 15.6502548,22.201139 L11.2634931,22.201139 C10.9186202,22.201139 10.6358286,22.1170358 10.41511,21.9488268 C10.1943913,21.7806178 10.0840336,21.584377 10.0840336,21.3600983 Z M12.7533367,19.8041729 L15.0915635,19.8041729 C16.4296704,19.8041729 17.0987139,19.0402352 17.0987139,17.5123369 L17.0987139,17.1759206 C17.0987139,16.3909453 16.9297287,15.8232485 16.5917532,15.4728131 C16.2537777,15.1223777 15.7537195,14.9471627 15.0915635,14.9471627 L12.7533367,14.9471627 L12.7533367,19.8041729 Z M12.7533367,12.8025088 L15.0708712,12.8025088 C15.608873,12.8025088 16.0192656,12.6413109 16.3020614,12.3189104 C16.5848572,11.9965098 16.726253,11.5549678 16.726253,10.9942712 C16.726253,10.447592 16.5779598,10.0165629 16.2813691,9.70117106 C15.9847784,9.38577921 15.5743858,9.22808565 15.0501789,9.22808565 L12.7533367,9.22808565 L12.7533367,12.8025088 Z" id="B" fill="#04D684" fill-rule="nonzero"></path>
                <path d="M14.2857143,29.0322581 C22.1754964,29.0322581 28.5714286,22.5331657 28.5714286,14.516129 C28.5714286,6.49909234 22.1754964,0 14.2857143,0 C6.39593215,0 0,6.49909234 0,14.516129 C0,22.5331657 6.39593215,29.0322581 14.2857143,29.0322581 Z" id="Oval" stroke="#04D684" stroke-width="2" stroke-dasharray="2,1"></path>
            </g>
        </g>
    </g>
</svg>