<?xml version="1.0" encoding="UTF-8"?>
<svg width="22px" height="22px" viewBox="0 0 22 22" version="1.1" xmlns="http://www.w3.org/2000/svg" xmlns:xlink="http://www.w3.org/1999/xlink">
    <title>navy_b copy@2x</title>
    <g id="App_V5" stroke="none" stroke-width="1" fill="none" fill-rule="evenodd">
        <g id="06_1" transform="translate(-27.000000, -410.000000)">
            <g id="barty_puan_nedir" transform="translate(18.000000, 395.000000)">
                <g id="navy_b-copy" transform="translate(10.000000, 16.142615)">
                    <path d="M6.72268908,14.2400655 L6.72268908,5.12879087 C6.72268908,4.95123694 6.8008591,4.81106488 6.95720149,4.7082705 C7.11354389,4.60547612 7.29747336,4.5540797 7.50899542,4.5540797 L10.1714011,4.5540797 C12.01992,4.5540797 12.9441656,5.37642242 12.9441656,7.02113253 C12.9441656,8.16121567 12.5533154,8.90412756 11.7716035,9.24989049 C12.2406307,9.43678936 12.5946949,9.70078006 12.8338068,10.0418705 C13.0729187,10.382961 13.1924728,10.8805718 13.1924728,11.5347178 L13.1924728,11.8290821 C13.1924728,12.8663708 12.944168,13.6209637 12.447551,14.0928834 C11.950934,14.5648031 11.2795915,14.8007594 10.4335032,14.8007594 L7.50899542,14.8007594 C7.27908013,14.8007594 7.09055243,14.7446905 6.94340665,14.6325512 C6.79626086,14.5204119 6.72268908,14.3895846 6.72268908,14.2400655 Z M8.50222448,13.202782 L10.0610423,13.202782 C10.9531136,13.202782 11.3991426,12.6934902 11.3991426,11.6748913 L11.3991426,11.4506138 C11.3991426,10.9272969 11.2864858,10.5488323 11.0611688,10.3152088 C10.8358518,10.0815852 10.5024797,9.96477511 10.0610423,9.96477511 L8.50222448,9.96477511 L8.50222448,13.202782 Z M8.50222448,8.53500586 L10.0472475,8.53500586 C10.4059153,8.53500586 10.6795104,8.42754062 10.8680409,8.21260691 C11.0565715,7.9976732 11.1508353,7.70331189 11.1508353,7.32951413 C11.1508353,6.96506132 11.0519732,6.67770861 10.8542461,6.46744738 C10.6565189,6.25718614 10.3829238,6.1520571 10.0334526,6.1520571 L8.50222448,6.1520571 L8.50222448,8.53500586 Z" id="B" fill="#FFFFFF" fill-rule="nonzero"></path>
                    <path d="M9.52380952,19.3548387 C14.7836643,19.3548387 19.047619,15.0221105 19.047619,9.67741935 C19.047619,4.33272823 14.7836643,0 9.52380952,0 C4.26395476,0 0,4.33272823 0,9.67741935 C0,15.0221105 4.26395476,19.3548387 9.52380952,19.3548387 Z" id="Oval" stroke="#FFFFFF" stroke-width="2" stroke-dasharray="2,1"></path>
                </g>
            </g>
        </g>
    </g>
</svg>