<?xml version="1.0" encoding="UTF-8"?>
<svg width="31px" height="31px" viewBox="0 0 31 31" version="1.1" xmlns="http://www.w3.org/2000/svg" xmlns:xlink="http://www.w3.org/1999/xlink">
    <title>urundetay_barty</title>
    <g id="App_V5" stroke="none" stroke-width="1" fill="none" fill-rule="evenodd">
        <g id="03_1" transform="translate(-20.000000, -491.000000)">
            <g id="urundetay_barty" transform="translate(21.000000, 492.000000)">
                <path d="M10.4158533,20.9418186 L10.4158533,8.05759513 C10.4158533,7.8065167 10.5281762,7.60829986 10.7528253,7.46293866 C10.9774744,7.31757747 11.2417635,7.24489796 11.5457006,7.24489796 L15.3713239,7.24489796 C18.0274694,7.24489796 19.3555222,8.40777009 19.3555222,10.7335492 C19.3555222,12.3457371 18.7939078,13.3962863 17.6706622,13.8852285 C18.3446096,14.1495216 18.8533661,14.52283 19.1969471,15.0051649 C19.5405281,15.4874997 19.7123161,16.1911695 19.7123161,17.1161953 L19.7123161,17.5324548 C19.7123161,18.9992815 19.3555258,20.0663488 18.6419344,20.7336888 C17.9283431,21.4010289 16.9636878,21.7346939 15.7479396,21.7346939 L11.5457006,21.7346939 C11.2153342,21.7346939 10.9444379,21.6554071 10.7330034,21.4968313 C10.5215689,21.3382554 10.4158533,21.1532531 10.4158533,20.9418186 Z M12.9728761,19.4749993 L15.2127488,19.4749993 C16.4945703,19.4749993 17.1354714,18.7548114 17.1354714,17.3144141 L17.1354714,16.997264 C17.1354714,16.2572434 16.9735943,15.7220579 16.6498353,15.3916916 C16.3260762,15.0613252 15.8470522,14.8961445 15.2127488,14.8961445 L12.9728761,14.8961445 L12.9728761,19.4749993 Z M12.9728761,12.8743125 L15.1929269,12.8743125 C15.7082984,12.8743125 16.1014285,12.7223463 16.3723289,12.4184092 C16.6432293,12.1144722 16.7786775,11.6982168 16.7786775,11.1696306 C16.7786775,10.6542591 16.6366221,10.2479146 16.352507,9.95058489 C16.068392,9.65325516 15.6752619,9.50459253 15.173105,9.50459253 L12.9728761,9.50459253 L12.9728761,12.8743125 Z" id="B" fill="#04D684" fill-rule="nonzero"></path>
                <path d="M14.4897959,28.9795918 C22.4922892,28.9795918 28.9795918,22.4922892 28.9795918,14.4897959 C28.9795918,6.4873026 22.4922892,0 14.4897959,0 C6.4873026,0 0,6.4873026 0,14.4897959 C0,22.4922892 6.4873026,28.9795918 14.4897959,28.9795918 Z" id="Oval" stroke="#04D684" stroke-width="2" stroke-dasharray="2,1"></path>
            </g>
        </g>
    </g>
</svg>