<?xml version="1.0" encoding="UTF-8"?>
<svg width="61px" height="61px" viewBox="0 0 61 61" version="1.1" xmlns="http://www.w3.org/2000/svg" xmlns:xlink="http://www.w3.org/1999/xlink">
    <title>Group 4</title>
    <g id="App_V5" stroke="none" stroke-width="1" fill="none" fill-rule="evenodd">
        <g id="02_Ayin_Urunu_Alindi_popup" transform="translate(-158.000000, -216.000000)">
            <g id="Group-3" transform="translate(158.000000, 216.000000)">
                <circle id="Oval" fill="#0A2239" cx="30.5" cy="30.5" r="30.5"></circle>
                <path d="M17.4285714,28.8571429 L43.1428571,28.8571429 L43.1428571,46 L17.4285714,46 L17.4285714,28.8571429 Z M16,28.8571429 L16,23.1428571 L44.5714286,23.1428571 L44.5714286,28.8571429 L16,28.8571429 Z M30.2857143,46 L30.2857143,23.1428571 L30.2857143,46 Z M23.1428571,23.1428571 L30.2857143,23.1428571 C30.2857143,23.1428571 27.4285714,16 23.1428571,16 C18.1428571,16 17.4285714,23.1428571 23.1428571,23.1428571 Z M37.6919742,23.1428571 L30.549117,23.1428571 C30.549117,23.1428571 33.1428571,16 37.6919742,16 C42.4285714,16 43.4062599,23.1428571 37.6919742,23.1428571 Z" id="Combined-Shape" stroke="#FFD623" stroke-width="2"></path>
            </g>
        </g>
    </g>
</svg>