<?xml version="1.0" encoding="UTF-8"?>
<svg width="42px" height="41px" viewBox="0 0 42 41" version="1.1" xmlns="http://www.w3.org/2000/svg" xmlns:xlink="http://www.w3.org/1999/xlink">
    <title>Group 2</title>
    <g id="App_V5" stroke="none" stroke-width="1" fill="none" fill-rule="evenodd">
        <g id="01_Ayin_Urunu_Basla" transform="translate(-38.000000, -367.000000)">
            <g id="Group-2" transform="translate(38.500000, 367.000000)">
                <rect id="Rectangle-Copy-57" fill="#194B7C" x="0" y="0" width="41" height="41"></rect>
                <g id="Group-21" transform="translate(11.554980, 6.000000)" fill="#FFFFFF" fill-rule="nonzero">
                    <path d="M13.7748047,7.543125 L13.7748047,6.90404297 C13.7748047,6.49453125 13.4941992,6.1434375 13.0925391,6.05027344 C12.9290625,6.01236328 12.7624805,5.98617187 12.5973633,5.97246094 C11.4231445,5.87566406 10.423418,6.3384375 9.45673828,6.78626953 C8.55,7.20632812 7.69347656,7.603125 6.744375,7.52185547 C6.10271484,7.46689453 5.39068359,7.28267578 4.68521484,6.98923828 C4.49958984,6.91201172 4.28871094,6.93240234 4.12142578,7.04402344 C3.95425781,7.15552734 3.85447266,7.34208984 3.85447266,7.543125 C3.85447266,10.2781055 6.07957031,12.5032031 8.81460937,12.5032031 C11.549707,12.5032031 13.7748047,10.2781055 13.7748047,7.543125 L13.7748047,7.543125 Z M8.81466797,11.6242969 C6.70453125,11.6242969 4.96324219,10.014668 4.75447266,7.95867187 C5.40931641,8.19515625 6.06410156,8.345625 6.66943359,8.39748047 C7.85126953,8.49849609 8.85533203,8.03349609 9.82623047,7.58367187 C10.729043,7.16537109 11.5820508,6.76998047 12.5248828,6.84832031 C12.6476367,6.85845703 12.7717969,6.87796875 12.895957,6.90398437 L12.895957,7.54306641 C12.895957,9.79347656 11.0650195,11.6242969 8.81466797,11.6242969 L8.81466797,11.6242969 Z" id="Shape"></path>
                    <path d="M11.0026758,13.9778906 C13.758457,13.0412109 15.6099609,10.455293 15.6099609,7.543125 L15.6099609,3.28335938 C16.7333789,3.22453125 17.6293359,2.29212891 17.6293359,1.15429688 L17.6293359,1.0528125 C17.6293359,0.472324219 17.1570117,0 16.5765234,0 L3.43042969,0 C3.18773437,0 2.99097656,0.196757813 2.99097656,0.439453125 C2.99097656,0.682148438 3.18773437,0.87890625 3.43042969,0.87890625 L16.5765234,0.87890625 C16.6724414,0.87890625 16.7504297,0.956894531 16.7504297,1.0528125 L16.7504297,1.15429688 C16.7504297,1.84535156 16.1882227,2.4075 15.4972266,2.4075 L2.13210937,2.4075 C1.44105469,2.4075 0.87890625,1.84535156 0.87890625,1.15429688 L0.87890625,1.0528125 C0.87890625,0.956894531 0.956953125,0.87890625 1.0528125,0.87890625 L1.67255859,0.87890625 C1.91525391,0.87890625 2.11201172,0.682148438 2.11201172,0.439453125 C2.11201172,0.196757813 1.91525391,0 1.67255859,0 L1.0528125,0 C0.472265625,0 -2.55795385e-14,0.472324219 -2.55795385e-14,1.0528125 L-2.55795385e-14,1.15429688 C-2.55795385e-14,2.29212891 0.895957031,3.22453125 2.019375,3.28335938 L2.019375,7.54306641 C2.019375,10.4552344 3.87087891,13.0411523 6.62666016,13.977832 C7.0659375,14.1271289 7.36107422,14.5379297 7.36107422,15 C7.36107422,15.4620703 7.0659375,15.8728125 6.62666016,16.0221094 C3.87087891,16.9587891 2.019375,19.544707 2.019375,22.456875 L2.019375,26.716582 C0.895957031,26.7754102 -2.55795385e-14,27.7078125 -2.55795385e-14,28.8456445 L-2.55795385e-14,28.9471289 C-2.55795385e-14,29.5276758 0.472324219,30 1.0528125,30 L7.535625,30 C7.77832031,30 7.97507812,29.8031836 7.97507812,29.5604883 C7.97507812,29.317793 7.77832031,29.1210352 7.535625,29.1210352 L1.0528125,29.1210352 C0.956894531,29.1210352 0.87890625,29.0429883 0.87890625,28.9471289 L0.87890625,28.8457031 C0.87890625,28.154707 1.44111328,27.5925 2.13210937,27.5925 L15.497168,27.5925 C16.1882227,27.5925 16.7503711,28.1546484 16.7503711,28.8457031 L16.7503711,28.9471875 C16.7503711,29.0430469 16.6723242,29.1210938 16.5764648,29.1210938 L9.2934375,29.1210938 C9.05074219,29.1210938 8.85398437,29.3178516 8.85398437,29.5605469 C8.85398437,29.8032422 9.05074219,30 9.2934375,30 L16.5764648,30 C17.1570117,30 17.6293359,29.5277344 17.6293359,28.9471875 L17.6293359,28.8457031 C17.6293359,27.7078711 16.7333203,26.7754688 15.6099023,26.7166406 L15.6099023,22.4569336 C15.6099023,19.5447656 13.7583984,16.9588477 11.0026172,16.022168 C10.5633398,15.8728711 10.2682031,15.4620703 10.2682031,15 C10.2682617,14.5379297 10.5633984,14.1271875 11.0026758,13.9778906 L11.0026758,13.9778906 Z M8.81466797,23.2694531 C9.83431641,23.2694531 10.8104297,23.6475 11.5631836,24.3339258 C12.252832,24.9628125 12.7020117,25.8008203 12.8452148,26.7136523 L4.78441406,26.7136523 C4.92632812,25.8083789 5.36859375,24.9769336 6.04974609,24.3489844 C6.80490234,23.652832 7.78681641,23.2694531 8.81466797,23.2694531 L8.81466797,23.2694531 Z M10.7198437,16.8543164 C13.119082,17.6698242 14.7310547,19.9213477 14.7310547,22.4569336 L14.7310547,26.7136523 L13.7325,26.7136523 C13.5831445,25.550918 13.0275,24.4797656 12.1553906,23.6845312 C11.3491992,22.9493555 10.3322461,22.505625 9.25412109,22.4104102 L9.25412109,21.0828516 C9.25412109,20.8401562 9.05736328,20.6433984 8.81466797,20.6433984 C8.57197266,20.6433984 8.37521484,20.8401562 8.37521484,21.0828516 L8.37521484,22.4104102 C7.28765625,22.5063281 6.26361328,22.9563867 5.45402344,23.7027539 C4.59222656,24.4972266 4.04425781,25.56 3.89613281,26.7136523 L2.89828125,26.7136523 L2.89828125,22.4569336 C2.89828125,19.9212891 4.51025391,17.6698242 6.90949219,16.8543164 C7.70525391,16.5837891 8.23992187,15.8385938 8.23992187,15 C8.23992187,14.1614062 7.70525391,13.4162109 6.90949219,13.1457422 C4.51025391,12.330293 2.89828125,10.0787695 2.89828125,7.543125 L2.89828125,3.28640625 L14.7310547,3.28640625 L14.7310547,7.543125 C14.7310547,10.0787109 13.119082,12.3302344 10.7198437,13.1457422 C9.92408203,13.4162695 9.38941406,14.1614648 9.38941406,15.0000586 C9.38935547,15.8386523 9.92402344,16.5837891 10.7198437,16.8543164 Z" id="Shape"></path>
                    <path d="M8.81466797,17.3973047 C8.57197266,17.3973047 8.37521484,17.5940625 8.37521484,17.8367578 L8.37521484,18.9556641 C8.37521484,19.1983594 8.57197266,19.3951172 8.81466797,19.3951172 C9.05736328,19.3951172 9.25412109,19.1983594 9.25412109,18.9556641 L9.25412109,17.8367578 C9.25412109,17.5940625 9.05736328,17.3973047 8.81466797,17.3973047 Z" id="Path"></path>
                </g>
            </g>
        </g>
    </g>
</svg>