<?xml version="1.0" encoding="UTF-8"?>
<svg width="14px" height="15px" viewBox="0 0 14 15" version="1.1" xmlns="http://www.w3.org/2000/svg" xmlns:xlink="http://www.w3.org/1999/xlink">
    <title>green_b copy 3</title>
    <g id="App_V5" stroke="none" stroke-width="1" fill="none" fill-rule="evenodd" opacity="0.3">
        <g id="04_Ayin_Urunu_Alindi" transform="translate(-287.000000, -124.000000)">
            <g id="Group" transform="translate(0.000000, 55.000000)">
                <g id="green_b-copy-3" transform="translate(288.000000, 70.000000)">
                    <path d="M4.3697479,9.2560426 L4.3697479,3.33371406 C4.3697479,3.21830401 4.42055841,3.12719217 4.52218097,3.06037582 C4.62380353,2.99355948 4.74335768,2.9601518 4.88084702,2.9601518 L6.61141071,2.9601518 C7.81294799,2.9601518 8.41370762,3.49467457 8.41370762,4.56373614 C8.41370762,5.30479019 8.15965504,5.78768292 7.65154226,6.01242882 C7.95640993,6.13391309 8.18655167,6.30550704 8.34197441,6.52721583 C8.49739714,6.74892463 8.57510734,7.07237164 8.57510734,7.49756659 L8.57510734,7.68890335 C8.57510734,8.36314105 8.41370923,8.85362643 8.09090817,9.16037421 C7.76810711,9.46712199 7.33173445,9.62049358 6.78177709,9.62049358 L4.88084702,9.62049358 C4.73140209,9.62049358 4.60885908,9.58404885 4.51321432,9.51115829 C4.41756956,9.43826772 4.3697479,9.35323001 4.3697479,9.2560426 Z M5.52644591,8.58180827 L6.5396775,8.58180827 C7.11952385,8.58180827 7.40944268,8.2507686 7.40944268,7.58867933 L7.40944268,7.44289894 C7.40944268,7.10274298 7.33621576,6.85674103 7.18975972,6.70488569 C7.04330368,6.55303035 6.82661178,6.47710382 6.5396775,6.47710382 L5.52644591,6.47710382 L5.52644591,8.58180827 Z M5.52644591,5.54775381 L6.53071085,5.54775381 C6.76384495,5.54775381 6.94168176,5.4779014 7.0642266,5.33819449 C7.18677145,5.19848758 7.24804295,5.00715273 7.24804295,4.76418419 C7.24804295,4.52728986 7.18378259,4.3405106 7.05525995,4.20384079 C6.92673731,4.06717099 6.7489005,3.99883711 6.5217442,3.99883711 L5.52644591,3.99883711 L5.52644591,5.54775381 Z" id="B" fill="#FFFFFF" fill-rule="nonzero"></path>
                    <path d="M6.19047619,12.5806452 C9.60938178,12.5806452 12.3809524,9.76437181 12.3809524,6.29032258 C12.3809524,2.81627335 9.60938178,0 6.19047619,0 C2.7715706,0 0,2.81627335 0,6.29032258 C0,9.76437181 2.7715706,12.5806452 6.19047619,12.5806452 Z" id="Oval" stroke="#FFFFFF" stroke-dasharray="2,1"></path>
                </g>
            </g>
        </g>
    </g>
</svg>