<?xml version="1.0" encoding="UTF-8"?>
<svg width="200px" height="143px" viewBox="0 0 200 143" version="1.1" xmlns="http://www.w3.org/2000/svg" xmlns:xlink="http://www.w3.org/1999/xlink">
    <title>Group 2</title>
    <g id="App_V5" stroke="none" stroke-width="1" fill="none" fill-rule="evenodd">
        <g id="04_Ayin_Urunu_Alindi" transform="translate(-88.000000, -120.000000)">
            <g id="Group-2" transform="translate(187.997037, 191.477494) rotate(-15.000000) translate(-187.997037, -191.477494) translate(97.997037, 141.977494)">
                <rect id="Rectangle" stroke="#E9686A" stroke-width="2" fill="#FFFFFF" x="1.43478261" y="1.5" width="176.956522" height="96"></rect>
                <path d="M58.1917294,17.0479696 L58.1917294,12.0799696 L52.2517294,12.0799696 L52.2517294,17.0479696 L58.1917294,17.0479696 Z M50.2357294,17.0479696 L50.2357294,12.0799696 L44.2957294,12.0799696 L44.2957294,17.0479696 L50.2357294,17.0479696 Z M51.1717294,44.4439696 C58.3357294,44.4439696 62.9797294,40.8439696 62.9797294,32.7439696 L62.9797294,18.7759696 L55.9237294,18.7759696 L55.9237294,32.9599696 C55.9237294,36.4879696 54.0877294,38.1439696 51.2437294,38.1439696 C48.4357294,38.1439696 46.5997294,36.4159696 46.5997294,32.7799696 L46.5997294,18.7759696 L39.5437294,18.7759696 L39.5437294,32.9239696 C39.5437294,40.8079696 44.0437294,44.4439696 51.1717294,44.4439696 Z M73.4684353,43.9759696 L73.4684353,36.3439696 L76.5644353,36.3439696 L81.6404353,43.9759696 L89.6684353,43.9759696 L83.6564353,35.1919696 C86.7884353,33.8599696 88.8404353,31.3039696 88.8404353,27.4159696 L88.8404353,27.3439696 C88.8404353,24.8599696 88.0844353,22.9519696 86.6084353,21.4759696 C84.9164353,19.7839696 82.2524353,18.7759696 78.4004353,18.7759696 L66.4844353,18.7759696 L66.4844353,43.9759696 L73.4684353,43.9759696 Z M78.1124353,30.8719696 L73.4684353,30.8719696 L73.4684353,24.7879696 L78.0764353,24.7879696 C80.3804353,24.7879696 81.8564353,25.7959696 81.8564353,27.8119696 L81.8564353,27.8839696 C81.8564353,29.7199696 80.4524353,30.8719696 78.1124353,30.8719696 Z M110.093141,17.0479696 L110.093141,12.0799696 L104.153141,12.0799696 L104.153141,17.0479696 L110.093141,17.0479696 Z M102.137141,17.0479696 L102.137141,12.0799696 L96.1971412,12.0799696 L96.1971412,17.0479696 L102.137141,17.0479696 Z M103.073141,44.4439696 C110.237141,44.4439696 114.881141,40.8439696 114.881141,32.7439696 L114.881141,18.7759696 L107.825141,18.7759696 L107.825141,32.9599696 C107.825141,36.4879696 105.989141,38.1439696 103.145141,38.1439696 C100.337141,38.1439696 98.5011412,36.4159696 98.5011412,32.7799696 L98.5011412,18.7759696 L91.4451412,18.7759696 L91.4451412,32.9239696 C91.4451412,40.8079696 95.9451412,44.4439696 103.073141,44.4439696 Z M125.297847,43.9759696 L125.297847,30.1519696 L136.097847,43.9759696 L142.181847,43.9759696 L142.181847,18.7759696 L135.269847,18.7759696 L135.269847,32.0959696 L124.901847,18.7759696 L118.385847,18.7759696 L118.385847,43.9759696 L125.297847,43.9759696 Z M29.5346706,79.9759696 L31.3346706,75.4399696 L41.0906706,75.4399696 L42.8906706,79.9759696 L50.3786706,79.9759696 L39.6506706,54.5959696 L32.9186706,54.5959696 L22.2266706,79.9759696 L29.5346706,79.9759696 Z M39.0386706,70.0039696 L33.3866706,70.0039696 L36.2306706,62.8759696 L39.0386706,70.0039696 Z M71.3793765,79.9759696 L71.3793765,73.8559696 L59.1753765,73.8559696 L59.1753765,54.7759696 L52.1913765,54.7759696 L52.1913765,79.9759696 L71.3793765,79.9759696 Z M80.9320823,79.9759696 L80.9320823,54.7759696 L73.9480823,54.7759696 L73.9480823,79.9759696 L80.9320823,79.9759696 Z M91.8167882,79.9759696 L91.8167882,66.1519696 L102.616788,79.9759696 L108.700788,79.9759696 L108.700788,54.7759696 L101.788788,54.7759696 L101.788788,68.0959696 L91.4207882,54.7759696 L84.9047882,54.7759696 L84.9047882,79.9759696 L91.8167882,79.9759696 Z M122.141494,79.9759696 C131.177494,79.9759696 136.469494,74.5759696 136.469494,67.3039696 L136.469494,67.2319696 C136.469494,59.9599696 131.249494,54.7759696 122.285494,54.7759696 L112.529494,54.7759696 L112.529494,79.9759696 L122.141494,79.9759696 Z M122.357494,73.7839696 L119.513494,73.7839696 L119.513494,60.9319696 L122.357494,60.9319696 C126.569494,60.9319696 129.341494,63.3079696 129.341494,67.3399696 L129.341494,67.4119696 C129.341494,71.4799696 126.569494,73.7839696 122.357494,73.7839696 Z M146.6342,79.9759696 L146.6342,54.7759696 L139.6502,54.7759696 L139.6502,79.9759696 L146.6342,79.9759696 Z M156.006906,71.7679696 L158.094906,57.8359696 L158.094906,54.7759696 L150.318906,54.7759696 L150.318906,57.8359696 L152.442906,71.7679696 L156.006906,71.7679696 Z M157.770906,79.9759696 L157.770906,73.8559696 L150.678906,73.8559696 L150.678906,79.9759696 L157.770906,79.9759696 Z" id="ÜRÜNALINDI!" fill="#E9686A" fill-rule="nonzero"></path>
            </g>
        </g>
    </g>
</svg>