<?xml version="1.0" encoding="UTF-8"?>
<svg width="60px" height="60px" viewBox="0 0 60 60" version="1.1" xmlns="http://www.w3.org/2000/svg" xmlns:xlink="http://www.w3.org/1999/xlink">
    <title>adim_teslimat</title>
    <g id="App_V5" stroke="none" stroke-width="1" fill="none" fill-rule="evenodd">
        <g id="07_2" transform="translate(-184.000000, -753.000000)">
            <g id="adim_teslimat" transform="translate(184.000000, 753.000000)">
                <circle id="Oval" fill="#379B4F" cx="30" cy="30" r="30"></circle>
                <path d="M19.7272727,38.4545455 L17,38.4545455 L17,18 L34.7272727,18 L34.7272727,37.0909091 M34.7272727,38.4545455 L27.9090909,38.4545455 M23.8181818,42.5454545 C26.0775285,42.5454545 27.9090909,40.7138922 27.9090909,38.4545455 C27.9090909,36.1951988 26.0775285,34.3636364 23.8181818,34.3636364 C21.5588351,34.3636364 19.7272727,36.1951988 19.7272727,38.4545455 C19.7272727,40.7138922 21.5588351,42.5454545 23.8181818,42.5454545 Z M38.8181818,42.5454545 C41.0775285,42.5454545 42.9090909,40.7138922 42.9090909,38.4545455 C42.9090909,36.1951988 41.0775285,34.3636364 38.8181818,34.3636364 C36.5588351,34.3636364 34.7272727,36.1951988 34.7272727,38.4545455 C34.7272727,40.7138922 36.5588351,42.5454545 38.8181818,42.5454545 Z M34.7272727,24.8181818 L41.5454545,24.8181818 L47,31.6363636 L47,38.4545455 L42.9090909,38.4545455" id="Path-Copy-3" stroke="#FFFFFF" stroke-width="3"></path>
            </g>
        </g>
    </g>
</svg>