<?xml version="1.0" encoding="UTF-8"?>
<svg width="336px" height="52px" viewBox="0 0 336 52" version="1.1" xmlns="http://www.w3.org/2000/svg" xmlns:xlink="http://www.w3.org/1999/xlink">
    <title>barty_puan_nedir</title>
    <defs>
        <rect id="path-1" x="-4.54747351e-13" y="0" width="336" height="52"></rect>
    </defs>
    <g id="App_V5" stroke="none" stroke-width="1" fill="none" fill-rule="evenodd">
        <g id="06_1" transform="translate(-18.000000, -395.000000)">
            <g id="barty_puan_nedir" transform="translate(18.000000, 395.000000)">
                <g id="navy_b-copy-2">
                    <mask id="mask-2" fill="white">
                        <use xlink:href="#path-1"></use>
                    </mask>
                    <use id="Mask" fill="#00D881" xlink:href="#path-1"></use>
                    <g opacity="0.3" mask="url(#mask-2)">
                        <g transform="translate(-12.000000, 4.142615)">
                            <path d="M15.1260504,32.0401474 L15.1260504,11.5397795 C15.1260504,11.1402831 15.301933,10.824896 15.6537034,10.5936086 C16.0054737,10.3623213 16.419315,10.2466793 16.8952397,10.2466793 L22.8856525,10.2466793 C27.04482,10.2466793 29.1243725,12.0969504 29.1243725,15.7975482 C29.1243725,18.3627353 28.2449597,20.034287 26.4861078,20.8122536 C27.541419,21.2327761 28.3380635,21.8267551 28.8760653,22.5942087 C29.414067,23.3616622 29.6830639,24.4812865 29.6830639,25.9531151 L29.6830639,26.6154347 C29.6830639,28.9493344 29.1243781,30.6471684 28.0069898,31.7089877 C26.8896015,32.7708069 25.3790808,33.3017086 23.4753822,33.3017086 L16.8952397,33.3017086 C16.3779303,33.3017086 15.953743,33.1755537 15.622665,32.9232402 C15.2915869,32.6709267 15.1260504,32.3765654 15.1260504,32.0401474 Z M19.1300051,29.7062594 L22.6373452,29.7062594 C24.6445056,29.7062594 25.6480708,28.5603529 25.6480708,26.2685054 L25.6480708,25.7638809 C25.6480708,24.586418 25.394593,23.7348728 24.8876298,23.2092197 C24.3806666,22.6835666 23.6305792,22.420744 22.6373452,22.420744 L19.1300051,22.420744 L19.1300051,29.7062594 Z M19.1300051,19.2037632 L22.6063068,19.2037632 C23.4133094,19.2037632 24.0288984,18.9619664 24.4530921,18.4783655 C24.8772858,17.9947647 25.0893795,17.3324517 25.0893795,16.4914068 C25.0893795,15.671388 24.8669398,15.0248444 24.4220537,14.5517566 C23.9771676,14.0786688 23.3615787,13.8421285 22.5752684,13.8421285 L19.1300051,13.8421285 L19.1300051,19.2037632 Z" id="B" stroke="none" fill="#FFFFFF" fill-rule="nonzero"></path>
                            <path d="M21.4285714,43.5483871 C33.2632446,43.5483871 42.8571429,33.7997486 42.8571429,21.7741935 C42.8571429,9.74863851 33.2632446,0 21.4285714,0 C9.59389822,0 0,9.74863851 0,21.7741935 C0,33.7997486 9.59389822,43.5483871 21.4285714,43.5483871 Z" id="Oval" stroke="#FFFFFF" stroke-width="2" fill="none" stroke-dasharray="2,1"></path>
                        </g>
                    </g>
                </g>
                <text id="Barty-Puan-nedir?-Si" font-family="Gotham-Medium, Gotham" font-size="13" font-weight="400" line-spacing="17" letter-spacing="-0.329412" fill="#FFFFFF">
                    <tspan x="41" y="25">Barty Puan nedir? Sistem nasıl çalışır?</tspan>
                </text>
                <g id="Group-Copy-8" transform="translate(309.000000, 20.000000)" stroke="#FFFFFF" stroke-linecap="round" stroke-width="2">
                    <line x1="0.24" y1="0.24" x2="5.52" y2="6" id="Line"></line>
                    <line x1="0.207486468" y1="11.793614" x2="5.48748647" y2="6.03361401" id="Line-Copy"></line>
                </g>
                <g id="navy_b-copy" transform="translate(10.000000, 16.142615)">
                    <path d="M6.72268908,14.2400655 L6.72268908,5.12879087 C6.72268908,4.95123694 6.8008591,4.81106488 6.95720149,4.7082705 C7.11354389,4.60547612 7.29747336,4.5540797 7.50899542,4.5540797 L10.1714011,4.5540797 C12.01992,4.5540797 12.9441656,5.37642242 12.9441656,7.02113253 C12.9441656,8.16121567 12.5533154,8.90412756 11.7716035,9.24989049 C12.2406307,9.43678936 12.5946949,9.70078006 12.8338068,10.0418705 C13.0729187,10.382961 13.1924728,10.8805718 13.1924728,11.5347178 L13.1924728,11.8290821 C13.1924728,12.8663708 12.944168,13.6209637 12.447551,14.0928834 C11.950934,14.5648031 11.2795915,14.8007594 10.4335032,14.8007594 L7.50899542,14.8007594 C7.27908013,14.8007594 7.09055243,14.7446905 6.94340665,14.6325512 C6.79626086,14.5204119 6.72268908,14.3895846 6.72268908,14.2400655 Z M8.50222448,13.202782 L10.0610423,13.202782 C10.9531136,13.202782 11.3991426,12.6934902 11.3991426,11.6748913 L11.3991426,11.4506138 C11.3991426,10.9272969 11.2864858,10.5488323 11.0611688,10.3152088 C10.8358518,10.0815852 10.5024797,9.96477511 10.0610423,9.96477511 L8.50222448,9.96477511 L8.50222448,13.202782 Z M8.50222448,8.53500586 L10.0472475,8.53500586 C10.4059153,8.53500586 10.6795104,8.42754062 10.8680409,8.21260691 C11.0565715,7.9976732 11.1508353,7.70331189 11.1508353,7.32951413 C11.1508353,6.96506132 11.0519732,6.67770861 10.8542461,6.46744738 C10.6565189,6.25718614 10.3829238,6.1520571 10.0334526,6.1520571 L8.50222448,6.1520571 L8.50222448,8.53500586 Z" id="B" fill="#FFFFFF" fill-rule="nonzero"></path>
                    <path d="M9.52380952,19.3548387 C14.7836643,19.3548387 19.047619,15.0221105 19.047619,9.67741935 C19.047619,4.33272823 14.7836643,0 9.52380952,0 C4.26395476,0 0,4.33272823 0,9.67741935 C0,15.0221105 4.26395476,19.3548387 9.52380952,19.3548387 Z" id="Oval" stroke="#FFFFFF" stroke-width="2" stroke-dasharray="2,1"></path>
                </g>
            </g>
        </g>
    </g>
</svg>