<?xml version="1.0" encoding="UTF-8"?>
<svg width="51px" height="50px" viewBox="0 0 51 50" version="1.1" xmlns="http://www.w3.org/2000/svg" xmlns:xlink="http://www.w3.org/1999/xlink">
    <title>barty_hep_yaninda</title>
    <g id="App_V5" stroke="none" stroke-width="1" fill="none" fill-rule="evenodd">
        <g id="02_2" transform="translate(-15.000000, -75.000000)">
            <g id="barty_hep_yaninda" transform="translate(15.500000, 75.000000)">
                <circle id="Oval" fill-opacity="0.1" fill="#32B1CC" cx="25" cy="25" r="25"></circle>
                <path d="M25.25,26.75 C28.0114237,26.75 30.25,24.5114237 30.25,21.75 C30.25,18.9885763 28.0114237,16.75 25.25,16.75 C22.4885763,16.75 20.25,18.9885763 20.25,21.75 C20.25,24.5114237 22.4885763,26.75 25.25,26.75 Z M17.75,38 L17.75,34.25 C17.75,30.1078644 21.1078644,26.75 25.25,26.75 C29.3921356,26.75 32.75,30.1078644 32.75,34.25 L32.75,38 M26.5,16.75 C27.0046606,14.6695771 29.0189309,13 31.5,13 C34.21527,13 36.47565,15.2385763 36.5,18 C36.47565,20.7614237 34.21527,23 31.5,23 L30.25,23 L31.5,23 C35.60943,23 39,26.3578644 39,30.5 L39,33 M24,16.75 C23.4953394,14.6695771 21.4810691,13 19,13 C16.28473,13 14.02435,15.2385763 14,18 C14.02435,20.7614237 16.28473,23 19,23 L20.25,23 L19,23 C14.89057,23 11.5,26.3578644 11.5,30.5 L11.5,33" id="People" stroke="#32B1CC" stroke-width="2"></path>
            </g>
        </g>
    </g>
</svg>