<?xml version="1.0" encoding="UTF-8"?>
<svg width="51px" height="50px" viewBox="0 0 51 50" version="1.1" xmlns="http://www.w3.org/2000/svg" xmlns:xlink="http://www.w3.org/1999/xlink">
    <title>barty_puan_takas_puani</title>
    <g id="App_V5" stroke="none" stroke-width="1" fill="none" fill-rule="evenodd">
        <g id="06_2" transform="translate(-16.000000, -85.000000)">
            <g id="barty_puan_takas_puani" transform="translate(16.500000, 85.000000)">
                <circle id="Oval-Copy-3" fill-opacity="0.1" fill="#32B1CC" cx="25" cy="25" r="25"></circle>
                <g id="navy_b-copy-2" transform="translate(13.500000, 13.000000)">
                    <path d="M8.40336134,17.8000819 L8.40336134,6.41098858 C8.40336134,6.18904617 8.50107387,6.0138311 8.69650187,5.88533812 C8.89192986,5.75684515 9.12184169,5.69259962 9.38624427,5.69259962 L12.7142514,5.69259962 C15.0249,5.69259962 16.180207,6.72052802 16.180207,8.77641566 C16.180207,10.2015196 15.6916443,11.1301595 14.7145043,11.5623631 C15.3007883,11.7959867 15.7433686,12.1259751 16.0422585,12.5523381 C16.3411483,12.9787012 16.490591,13.6007147 16.490591,14.4183973 L16.490591,14.7863526 C16.490591,16.0829636 16.1802101,17.0262047 15.5594388,17.6161043 C14.9386675,18.2060038 14.0994893,18.5009492 13.041879,18.5009492 L9.38624427,18.5009492 C9.09885017,18.5009492 8.86319053,18.4308632 8.67925831,18.290689 C8.49532608,18.1505149 8.40336134,17.9869808 8.40336134,17.8000819 Z M10.6277806,16.5034774 L12.5763029,16.5034774 C13.691392,16.5034774 14.2489282,15.8668627 14.2489282,14.5936141 L14.2489282,14.3132672 C14.2489282,13.6591211 14.1081072,13.1860404 13.826461,12.8940109 C13.5448148,12.6019814 13.1280996,12.4559689 12.5763029,12.4559689 L10.6277806,12.4559689 L10.6277806,16.5034774 Z M10.6277806,10.6687573 L12.5590593,10.6687573 C13.0073941,10.6687573 13.349388,10.5344258 13.5850512,10.2657586 C13.8207143,9.9970915 13.9385441,9.62913986 13.9385441,9.16189267 C13.9385441,8.70632665 13.8149665,8.34713576 13.5678076,8.08430922 C13.3206487,7.82148268 12.9786548,7.69007137 12.5418158,7.69007137 L10.6277806,7.69007137 L10.6277806,10.6687573 Z" id="B" fill="#32B1CC" fill-rule="nonzero"></path>
                    <path d="M11.9047619,24.1935484 C18.4795804,24.1935484 23.8095238,18.7776381 23.8095238,12.0967742 C23.8095238,5.41591028 18.4795804,0 11.9047619,0 C5.32994345,0 0,5.41591028 0,12.0967742 C0,18.7776381 5.32994345,24.1935484 11.9047619,24.1935484 Z" id="Oval" stroke="#32B1CC" stroke-width="2" stroke-dasharray="2,1"></path>
                </g>
            </g>
        </g>
    </g>
</svg>