<?xml version="1.0" encoding="UTF-8"?>
<svg width="51px" height="50px" viewBox="0 0 51 50" version="1.1" xmlns="http://www.w3.org/2000/svg" xmlns:xlink="http://www.w3.org/1999/xlink">
    <title>barty_blokaj</title>
    <g id="App_V5" stroke="none" stroke-width="1" fill="none" fill-rule="evenodd">
        <g id="02_2" transform="translate(-15.000000, -552.000000)">
            <g id="barty_blokaj" transform="translate(15.500000, 552.000000)">
                <circle id="Oval-Copy-3" fill-opacity="0.1" fill="#32B1CC" cx="25" cy="25" r="25"></circle>
                <path d="M18.9545455,23.2727273 L18.9545455,17.1363636 C18.9545455,13.4545455 21.4090909,11 25.0909091,11 C28.7727273,11 31.2272727,13.4545455 31.2272727,17.1363636 L31.2272727,23.2727273 M25.0909091,38 C29.8355372,38 33.6818182,34.153719 33.6818182,29.4090909 C33.6818182,24.6644628 29.8355372,20.8181818 25.0909091,20.8181818 C20.346281,20.8181818 16.5,24.6644628 16.5,29.4090909 C16.5,34.153719 20.346281,38 25.0909091,38 Z M25.0909091,28.1818182 L25.0909091,33.0909091 M25.0909091,29.4090909 C25.7687131,29.4090909 26.3181818,28.8596222 26.3181818,28.1818182 C26.3181818,27.5040142 25.7687131,26.9545455 25.0909091,26.9545455 C24.4131051,26.9545455 23.8636364,27.5040142 23.8636364,28.1818182 C23.8636364,28.8596222 24.4131051,29.4090909 25.0909091,29.4090909 Z" id="Secure" stroke="#32B1CC" stroke-width="2"></path>
            </g>
        </g>
    </g>
</svg>