<?xml version="1.0" encoding="UTF-8"?>
<svg width="51px" height="50px" viewBox="0 0 51 50" version="1.1" xmlns="http://www.w3.org/2000/svg" xmlns:xlink="http://www.w3.org/1999/xlink">
    <title>para_ile_takaslanmaz</title>
    <g id="App_V5" stroke="none" stroke-width="1" fill="none" fill-rule="evenodd">
        <g id="06_2" transform="translate(-16.000000, -453.000000)">
            <g id="para_ile_takaslanmaz" transform="translate(16.500000, 453.000000)">
                <circle id="Oval" fill-opacity="0.1" fill="#32B1CC" cx="25" cy="25" r="25"></circle>
                <line x1="14.5" y1="15" x2="36" y2="36.5" id="Line-Copy" stroke="#32B1CC" stroke-width="2" stroke-linecap="square"></line>
                <path d="M13.5,18 L37.5,18 L37.5,33.2727273 L13.5,33.2727273 L13.5,18 Z M14.5909091,22.3636364 L14.5909091,22.3636364 C16.3983865,22.3636364 17.8636364,20.8983865 17.8636364,19.0909091 M14.5909091,28.9090909 L14.5909091,28.9090909 C16.3983865,28.9090909 17.8636364,30.3743408 17.8636364,32.1818182 M36.4090909,22.3636364 L36.4090909,22.3636364 C34.6016135,22.3636364 33.1363636,20.8983865 33.1363636,19.0909091 M36.4090909,28.9090909 L36.4090909,28.9090909 C34.6016135,28.9090909 33.1363636,30.3743408 33.1363636,32.1818182 M25.5,30 C27.3074774,30 28.7727273,28.0463335 28.7727273,25.6363636 C28.7727273,23.2263938 27.3074774,21.2727273 25.5,21.2727273 C23.6925226,21.2727273 22.2272727,23.2263938 22.2272727,25.6363636 C22.2272727,28.0463335 23.6925226,30 25.5,30 Z" id="Group" stroke="#32B1CC" stroke-width="2"></path>
            </g>
        </g>
    </g>
</svg>