<?xml version="1.0" encoding="UTF-8"?>
<svg width="51px" height="50px" viewBox="0 0 51 50" version="1.1" xmlns="http://www.w3.org/2000/svg" xmlns:xlink="http://www.w3.org/1999/xlink">
    <title>puan_satin_alma</title>
    <g id="App_V5" stroke="none" stroke-width="1" fill="none" fill-rule="evenodd">
        <g id="06_2" transform="translate(-16.000000, -679.000000)">
            <g id="puan_satin_alma" transform="translate(16.500000, 679.000000)">
                <circle id="Oval-Copy-4" fill-opacity="0.1" fill="#32B1CC" cx="25" cy="25" r="25"></circle>
                <path d="M14.5,18.0008717 C14.5,17.4481055 14.9394583,17 15.5024617,17 L35.4975383,17 C36.0511826,17 36.5,17.4446309 36.5,18.0008717 L36.5,31.9991283 C36.5,32.5518945 36.0605417,33 35.4975383,33 L15.5024617,33 C14.9488174,33 14.5,32.5553691 14.5,31.9991283 L14.5,18.0008717 Z M14.5,21 L36.5,21 L36.5,23 L14.5,23 L14.5,21 Z M18.5,28 L20.5,28 L20.5,28.5 L18.5,28.5 L18.5,28 Z M23.5,28 L29.5,28 L29.5,28.5 L23.5,28.5 L23.5,28 Z" id="Group" stroke="#32B1CC" stroke-width="2"></path>
            </g>
        </g>
    </g>
</svg>