<?xml version="1.0" encoding="UTF-8"?>
<svg width="17px" height="17px" viewBox="0 0 17 17" version="1.1" xmlns="http://www.w3.org/2000/svg" xmlns:xlink="http://www.w3.org/1999/xlink">
    <title>question_mark_urun_degerleme</title>
    <g id="App_V5" stroke="none" stroke-width="1" fill="none" fill-rule="evenodd">
        <g id="06_1" transform="translate(-340.000000, -126.000000)" stroke="#000000">
            <path d="M348.5,142 C352.642136,142 356,138.642136 356,134.5 C356,130.357864 352.642136,127 348.5,127 C344.357864,127 341,130.357864 341,134.5 C341,138.642136 344.357864,142 348.5,142 Z M348.5,136.75 L348.5,136 C348.5,135.25 348.5,134.875 349.25,134.5 C350,134.125 350.75,133.75 350.75,132.625 C350.75,131.875 350,130.75 348.5,130.75 C347,130.75 346.25,131.698103 346.25,133 M348.5,137.5 L348.5,139" id="question_mark_urun_degerleme"></path>
        </g>
    </g>
</svg>