<?xml version="1.0" encoding="UTF-8"?>
<svg width="24px" height="23px" viewBox="0 0 24 23" version="1.1" xmlns="http://www.w3.org/2000/svg" xmlns:xlink="http://www.w3.org/1999/xlink">
    <title>takasodasihakkinda_04</title>
    <g id="App_V5" stroke="none" stroke-width="1" fill="none" fill-rule="evenodd">
        <g id="07_1" transform="translate(-26.000000, -358.000000)" stroke="#FFFFFF" stroke-width="2">
            <path d="M47,370 C47,374.971 42.971,379 38,379 C33.029,379 29,374.971 29,370 C29,365.029 33.029,361 38,361 C42.971,361 47,365.029 47,370 L47,370 Z M31.5,376.5 L28,380 L31.5,376.5 Z M44.5,376.5 L48,380 L44.5,376.5 Z M35,361 C34.2907801,359.907801 32.8817967,359 31,359 C28.9007092,359 27,360.900709 27,363 C27,364.881797 27.9078014,366.29078 29,367 M47,367 C48.0921986,366.29078 49,364.881797 49,363 C49,360.900709 47.0992908,359 45,359 C43.1182033,359 41.7092199,359.907801 41,361 M38,365 L38,370 L41,373" id="takasodasihakkinda_04"></path>
        </g>
    </g>
</svg>