<?xml version="1.0" encoding="UTF-8"?>
<svg width="20px" height="22px" viewBox="0 0 20 22" version="1.1" xmlns="http://www.w3.org/2000/svg" xmlns:xlink="http://www.w3.org/1999/xlink">
    <title>takasodasihakkinda_01</title>
    <g id="App_V5" stroke="none" stroke-width="1" fill="none" fill-rule="evenodd">
        <g id="07_1" transform="translate(-28.000000, -97.000000)" stroke="#FFFFFF" stroke-width="2">
            <path d="M44,104 C45.6568542,104 47,102.656854 47,101 C47,99.3431458 45.6568542,98 44,98 C42.3431458,98 41,99.3431458 41,101 C41,102.656854 42.3431458,104 44,104 Z M32,111 C33.6568542,111 35,109.656854 35,108 C35,106.343146 33.6568542,105 32,105 C30.3431458,105 29,106.343146 29,108 C29,109.656854 30.3431458,111 32,111 Z M44,118 C45.6568542,118 47,116.656854 47,115 C47,113.343146 45.6568542,112 44,112 C42.3431458,112 41,113.343146 41,115 C41,116.656854 42.3431458,118 44,118 Z M42,114 L34,109 M42,102 L34,107" id="takasodasihakkinda_01"></path>
        </g>
    </g>
</svg>