<?xml version="1.0" encoding="UTF-8"?>
<svg width="51px" height="50px" viewBox="0 0 51 50" version="1.1" xmlns="http://www.w3.org/2000/svg" xmlns:xlink="http://www.w3.org/1999/xlink">
    <title>takas_sureleri</title>
    <g id="App_V5" stroke="none" stroke-width="1" fill="none" fill-rule="evenodd">
        <g id="07_5" transform="translate(-16.000000, -80.000000)">
            <g id="takas_sureleri" transform="translate(16.500000, 80.000000)">
                <circle id="Oval-Copy-4" fill-opacity="0.1" fill="#32B1CC" cx="25" cy="25" r="25"></circle>
                <path d="M35.2272727,25.5 C35.2272727,31.1488636 30.6488636,35.7272727 25,35.7272727 C19.3511364,35.7272727 14.7727273,31.1488636 14.7727273,25.5 C14.7727273,19.8511364 19.3511364,15.2727273 25,15.2727273 C30.6488636,15.2727273 35.2272727,19.8511364 35.2272727,25.5 L35.2272727,25.5 Z M17.6136364,32.8863636 L13.6363636,36.8636364 L17.6136364,32.8863636 Z M32.3863636,32.8863636 L36.3636364,36.8636364 L32.3863636,32.8863636 Z M21.5909091,15.2727273 C20.7849774,14.0315925 19.1838599,13 17.0454545,13 C14.6598968,13 12.5,15.1598968 12.5,17.5454545 C12.5,19.6838599 13.5315925,21.2849774 14.7727273,22.0909091 M35.2272727,22.0909091 C36.4684075,21.2849774 37.5,19.6838599 37.5,17.5454545 C37.5,15.1598968 35.3401032,13 32.9545455,13 C30.8161401,13 29.2150226,14.0315925 28.4090909,15.2727273 M25,19.8181818 L25,25.5 L28.4090909,28.9090909" id="Clock" stroke="#32B1CC" stroke-width="2"></path>
            </g>
        </g>
    </g>
</svg>