<?xml version="1.0" encoding="UTF-8"?>
<svg width="28px" height="28px" viewBox="0 0 28 28" version="1.1" xmlns="http://www.w3.org/2000/svg" xmlns:xlink="http://www.w3.org/1999/xlink">
    <title>takasodasihakkinda_06</title>
    <g id="App_V5" stroke="none" stroke-width="1" fill="none" fill-rule="evenodd">
        <g id="07_1" transform="translate(-25.000000, -531.000000)">
            <g id="takasodasihakkinda_06" transform="translate(26.000000, 532.000000)">
                <path d="M9.06318083,19.0905879 L9.06318083,6.87578526 C9.06318083,6.63775202 9.1685656,6.44983386 9.37933831,6.31202514 C9.59011102,6.17421642 9.83807519,6.10531309 10.1232383,6.10531309 L13.7125556,6.10531309 C16.2046329,6.10531309 17.4506528,7.2077663 17.4506528,9.4127058 C17.4506528,10.9411298 16.923729,11.937096 15.8698654,12.4006344 C16.5021836,12.6511957 16.9795146,13.0051083 17.3018728,13.4623827 C17.6242311,13.919657 17.7854078,14.5867665 17.7854078,15.4637311 L17.7854078,15.8583632 C17.7854078,17.2489784 17.4506562,18.2606045 16.7811429,18.8932718 C16.1116296,19.5259391 15.2065603,19.842268 14.065908,19.842268 L10.1232383,19.842268 C9.8132784,19.842268 9.55911512,19.7671008 9.36074081,19.616764 C9.1623665,19.4664272 9.06318083,19.2910369 9.06318083,19.0905879 Z M11.4622582,17.6999796 L13.5637756,17.6999796 C14.7664198,17.6999796 15.367733,17.0172102 15.367733,15.6516511 L15.367733,15.3509791 C15.367733,14.6494074 15.2158549,14.1420284 14.9120942,13.8288267 C14.6083336,13.5156251 14.1588985,13.3590266 13.5637756,13.3590266 L11.4622582,13.3590266 L11.4622582,17.6999796 Z M11.4622582,11.4422422 L13.5451781,11.4422422 C14.0287155,11.4422422 14.3975622,11.2981716 14.6517292,11.0100261 C14.9058963,10.7218806 15.032978,10.3272525 15.032978,9.82612988 C15.032978,9.33753534 14.8996972,8.95230311 14.6331317,8.67042164 C14.3665663,8.38854017 13.9977196,8.24760155 13.5265806,8.24760155 L11.4622582,8.24760155 L11.4622582,11.4422422 Z" id="B" fill="#FFFFFF" fill-rule="nonzero"></path>
                <path d="M12.8395062,25.9475806 C19.9305696,25.9475806 25.6790123,20.1390169 25.6790123,12.9737903 C25.6790123,5.80856378 19.9305696,0 12.8395062,0 C5.74844272,0 0,5.80856378 0,12.9737903 C0,20.1390169 5.74844272,25.9475806 12.8395062,25.9475806 Z" id="Oval" stroke="#FFFFFF" stroke-width="2" stroke-dasharray="2,1"></path>
            </g>
        </g>
    </g>
</svg>