<?xml version="1.0" encoding="UTF-8"?>
<svg width="100px" height="102px" viewBox="0 0 100 102" version="1.1" xmlns="http://www.w3.org/2000/svg" xmlns:xlink="http://www.w3.org/1999/xlink">
    <title>urun_denetimi</title>
    <g id="App_V5" stroke="none" stroke-width="1" fill="none" fill-rule="evenodd">
        <g id="05_2" transform="translate(-139.000000, -71.000000)" fill-rule="nonzero">
            <g id="audit" transform="translate(139.000000, 71.000000)">
                <polygon id="Path" fill="#E0E0DE" points="63.2761987 98.2758621 58.6206897 82.7586207 41.3793103 82.7586207 36.7238013 98.2758621 31.0344828 98.2758621 31.0344828 101.724138 68.9655172 101.724138 68.9655172 98.2758621"></polygon>
                <polygon id="Path" fill="#D6D6D4" points="60.1722455 87.9310345 58.6206897 82.7586207 41.3793103 82.7586207 39.8277545 87.9310345"></polygon>
                <path d="M86.2068966,13.7931034 L94.8275862,13.7931034 C97.6840315,13.7931034 100,16.109072 100,18.9655172 L100,72.4137931 L0,72.4137931 L0,18.9655172 C0,16.109072 2.31596853,13.7931034 5.17241379,13.7931034 L10.3448276,13.7931034" id="Path" fill="#12293F"></path>
                <path d="M0,72.4137931 L0,77.5862069 C0,80.4426522 2.31596853,82.7586207 5.17241379,82.7586207 L94.8275862,82.7586207 C97.6840315,82.7586207 100,80.4426522 100,77.5862069 L100,72.4137931 L0,72.4137931 Z" id="Path" fill="#E0E0DE"></path>
                <path d="M72.4137931,0 L15.5172414,0 C12.6607961,0 10.3448276,2.31596853 10.3448276,5.17241379 L10.3448276,72.4137931 L89.6551724,72.4137931 L89.6551724,17.2413793 L72.4137931,0 Z" id="Path" fill="#32B1CC"></path>
                <polygon id="Path" fill="#5AC6D4" points="22.4137931 72.4137931 89.6551724 72.4137931 89.6551724 17.2413793 83.6206897 11.2068966"></polygon>
                <polygon id="Path" fill="#FFFFFF" points="15.5172414 5.17241379 18.9655172 5.17241379 18.9655172 8.62068966 15.5172414 8.62068966"></polygon>
                <polygon id="Path" fill="#FFFFFF" points="22.4137931 5.17241379 25.862069 5.17241379 25.862069 8.62068966 22.4137931 8.62068966"></polygon>
                <polygon id="Path" fill="#FFFFFF" points="29.3103448 5.17241379 32.7586207 5.17241379 32.7586207 8.62068966 29.3103448 8.62068966"></polygon>
                <polygon id="Path" fill="#FFD602" points="77.5862069 10.3448276 56.8965517 10.3448276 22.4137931 44.8275862 43.1034483 65.5172414 77.5862069 31.0344828"></polygon>
                <polygon id="Path" fill="#EBC502" points="66.9947131 10.3448276 38.2450498 60.6588429 43.1034483 65.5172414 77.5862069 31.0344828 77.5862069 10.3448276"></polygon>
                <path d="M68.9655172,22.4137931 C67.0612203,22.4137931 65.5172414,20.8698142 65.5172414,18.9655172 C65.5172414,17.0612203 67.0612203,15.5172414 68.9655172,15.5172414 C70.8698142,15.5172414 72.4137931,17.0612203 72.4137931,18.9655172 C72.4137931,20.8698142 70.8698142,22.4137931 68.9655172,22.4137931 Z" id="Path" fill="#60D1E0"></path>
                <polygon id="Path" fill="#F98500" points="31.5396013 44.3216259 33.9776401 41.8835871 46.0457638 53.9517108 43.607725 56.3897496"></polygon>
                <polygon id="Path" fill="#F98500" points="36.7120151 39.1500539 39.1500539 36.7111733 51.2181776 48.7801388 48.7801388 51.2181776"></polygon>
                <polygon id="Path" fill="#F98500" points="58.6206897 39.6551724 50 37.9310345 48.2758621 29.3103448 53.4482759 24.137931 62.0689655 25.862069 63.7931034 34.4827586"></polygon>
                <g id="Group" transform="translate(15.517241, 15.517241)">
                    <polygon id="Path" fill="#FFFFFF" points="0 0 17.2413793 0 17.2413793 3.44827586 0 3.44827586"></polygon>
                    <polygon id="Path" fill="#FFFFFF" points="0 6.89655172 17.2413793 6.89655172 17.2413793 10.3448276 0 10.3448276"></polygon>
                    <polygon id="Path" fill="#FFFFFF" points="0 13.7931034 10.3448276 13.7931034 10.3448276 17.2413793 0 17.2413793"></polygon>
                    <polygon id="Path" fill="#419BC2" points="65.5172414 34.4827586 68.9655172 34.4827586 68.9655172 37.9310345 65.5172414 37.9310345"></polygon>
                    <polygon id="Path" fill="#419BC2" points="51.7241379 41.3793103 68.9655172 41.3793103 68.9655172 44.8275862 51.7241379 44.8275862"></polygon>
                    <polygon id="Path" fill="#419BC2" points="51.7241379 48.2758621 68.9655172 48.2758621 68.9655172 51.7241379 51.7241379 51.7241379"></polygon>
                    <polygon id="Path" fill="#419BC2" points="51.7241379 34.4827586 62.0689655 34.4827586 62.0689655 37.9310345 51.7241379 37.9310345"></polygon>
                    <polygon id="Path" fill="#FFFFFF" points="0 41.3793103 12.0689655 41.3793103 12.0689655 44.8275862 0 44.8275862"></polygon>
                    <polygon id="Path" fill="#FFFFFF" points="0 48.2758621 17.2413793 48.2758621 17.2413793 51.7241379 0 51.7241379"></polygon>
                </g>
                <path d="M89.6551724,17.2413793 L79.3103448,17.2413793 C75.5017511,17.2413793 72.4137931,14.1534213 72.4137931,10.3448276 L72.4137931,0 L89.6551724,17.2413793 Z" id="Path" fill="#9FE4ED"></path>
                <polygon id="Path" fill="#5AC6D4" points="10.3448276 68.9655172 89.6551724 68.9655172 89.6551724 72.4137931 10.3448276 72.4137931"></polygon>
                <polygon id="Path" fill="#00856C" points="0 68.9655172 10.3448276 68.9655172 10.3448276 72.4137931 0 72.4137931"></polygon>
                <polygon id="Path" fill="#00856C" points="89.6551724 68.9655172 100 68.9655172 100 72.4137931 89.6551724 72.4137931"></polygon>
                <path d="M98.9291487,93.7567349 L82.7586207,77.5862069 L77.5862069,82.7586207 L93.7567349,98.9291487 C95.1853784,100.357792 97.501347,100.357792 98.9291487,98.9291487 C100.357792,97.501347 100.357792,95.1853784 98.9291487,93.7567349 Z" id="Path" fill="#E9686A"></path>
                <path d="M87.9099879,82.7375741 L82.7586207,77.5862069 L77.5862069,82.7586207 L82.7375741,87.9099879 C84.6974341,86.4384093 86.4384093,84.6974341 87.9099879,82.7375741 L87.9099879,82.7375741 Z" id="Path" fill="#DE4132"></path>
                <path d="M89.6551724,65.5172414 C89.6551724,79.8003099 78.076172,91.3793103 63.7931034,91.3793103 C49.5100349,91.3793103 37.9310345,79.8003099 37.9310345,65.5172414 C37.9310345,51.2341728 49.5100349,39.6551724 63.7931034,39.6551724 C78.076172,39.6551724 89.6551724,51.2341728 89.6551724,65.5172414 Z" id="Path" fill="#E9686A"></path>
                <path d="M82.7586207,65.5172414 C82.7586207,75.9917159 74.267578,84.4827586 63.7931034,84.4827586 C53.3186289,84.4827586 44.8275862,75.9917159 44.8275862,65.5172414 C44.8275862,55.0427668 53.3186289,46.5517241 63.7931034,46.5517241 C74.267578,46.5517241 82.7586207,55.0427668 82.7586207,65.5172414 Z" id="Path" fill="#48ADD9"></path>
                <path d="M79.3103448,65.5172414 C79.3103448,74.0874192 72.3632812,81.0344828 63.7931034,81.0344828 C55.2229256,81.0344828 48.2758621,74.0874192 48.2758621,65.5172414 C48.2758621,56.9470636 55.2229256,50 63.7931034,50 C72.3632812,50 79.3103448,56.9470636 79.3103448,65.5172414 Z" id="Path" fill="#4DB7E5"></path>
                <path d="M44.8275862,65.5172414 C53.999697,54.0224272 73.5865099,54.0224272 82.7586207,65.5172414 C73.5865099,77.0120556 53.999697,77.0120556 44.8275862,65.5172414 Z" id="Path" fill="#D6D6D4"></path>
                <path d="M72.4137931,65.5172414 C72.4137931,70.2779836 68.5538457,74.137931 63.7931034,74.137931 C59.0323612,74.137931 55.1724138,70.2779836 55.1724138,65.5172414 C55.1724138,60.7564991 59.0323612,56.8965517 63.7931034,56.8965517 C68.5538457,56.8965517 72.4137931,60.7564991 72.4137931,65.5172414 Z" id="Path" fill="#348FD9"></path>
                <path d="M69.0480198,58.7276065 C66.6748047,64.087756 62.5690328,68.4957569 57.3898841,71.2410763 C59.5551591,73.6883754 62.9209321,74.6944032 66.0737136,73.8390692 C69.2273371,72.9828933 71.6215989,70.4126819 72.252997,67.2068629 C72.8835534,64.001044 71.6418037,60.714406 69.0480198,58.7276065 L69.0480198,58.7276065 Z" id="Path" fill="#3086CD"></path>
                <path d="M63.7931034,68.9655172 C61.8888065,68.9655172 60.3448276,67.4215384 60.3448276,65.5172414 C60.3448276,63.6129444 61.8888065,62.0689655 63.7931034,62.0689655 C65.6974004,62.0689655 67.2413793,63.6129444 67.2413793,65.5172414 C67.2413793,67.4215384 65.6974004,68.9655172 63.7931034,68.9655172 Z" id="Path" fill="#2A71AD"></path>
            </g>
        </g>
    </g>
</svg>