<?xml version="1.0" encoding="UTF-8"?>
<svg width="16px" height="24px" viewBox="0 0 16 24" version="1.1" xmlns="http://www.w3.org/2000/svg" xmlns:xlink="http://www.w3.org/1999/xlink">
    <title>Secure</title>
    <g id="App_V4" stroke="none" stroke-width="1" fill="none" fill-rule="evenodd">
        <g id="02_checkout" transform="translate(-34.000000, -436.000000)" stroke="#04D684" stroke-width="1.5">
            <path d="M37,447 L37,442 C37,439 39,437 42,437 C45,437 47,439 47,442 L47,447 M42,459 C45.8659932,459 49,455.865993 49,452 C49,448.134007 45.8659932,445 42,445 C38.1340068,445 35,448.134007 35,452 C35,455.865993 38.1340068,459 42,459 Z M42,451 L42,455 M42,452 C42.5522847,452 43,451.552285 43,451 C43,450.447715 42.5522847,450 42,450 C41.4477153,450 41,450.447715 41,451 C41,451.552285 41.4477153,452 42,452 Z" id="Secure"></path>
        </g>
    </g>
</svg>