<?xml version="1.0" encoding="UTF-8"?>
<svg width="18px" height="14px" viewBox="0 0 18 14" version="1.1" xmlns="http://www.w3.org/2000/svg" xmlns:xlink="http://www.w3.org/1999/xlink">
    <title>credit_card</title>
    <g id="App_V5" stroke="none" stroke-width="1" fill="none" fill-rule="evenodd">
        <path d="M1,1.99210982 C1,1.4441827 1.44463086,1 2.00087166,1 L15.9991283,1 C16.5518945,1 17,1.44195002 17,1.99210982 L17,11.6442538 C17,12.1921809 16.5553691,12.6363636 15.9991283,12.6363636 L2.00087166,12.6363636 C1.4481055,12.6363636 1,12.1944136 1,11.6442538 L1,1.99210982 Z M1,3.90909091 L17,3.90909091 L17,5.36363636 L1,5.36363636 L1,3.90909091 Z M3.90909091,9 L5.36363636,9 L5.36363636,9.36363636 L3.90909091,9.36363636 L3.90909091,9 Z M7.54545455,9 L11.9090909,9 L11.9090909,9.36363636 L7.54545455,9.36363636 L7.54545455,9 Z" id="credit_card" stroke="#00856C"></path>
    </g>
</svg>