<?xml version="1.0" encoding="UTF-8"?>
<svg width="143px" height="51px" viewBox="0 0 143 51" version="1.1" xmlns="http://www.w3.org/2000/svg" xmlns:xlink="http://www.w3.org/1999/xlink">
    <title>Group 25</title>
    <defs>
        <polygon id="path-1" points="0.134174917 0.119389439 19.4473597 0.119389439 19.4473597 27.2710396 0.134174917 27.2710396"></polygon>
        <polygon id="path-3" points="0.141749175 0.0324427382 22.5619362 0.0324427382 22.5619362 24.0924092 0.141749175 24.0924092"></polygon>
    </defs>
    <g id="Page-1" stroke="none" stroke-width="1" fill="none" fill-rule="evenodd">
        <g id="Group-25">
            <path d="M59.2240264,24.7535149 C59.2240264,27.7561551 61.1885479,30.3880033 64.2283168,30.3880033 C67.3050495,30.3880033 69.0842574,27.7561551 69.0842574,24.7535149 C69.0842574,21.6398185 67.1566997,19.1932838 64.079967,19.1932838 C61.2256766,19.1932838 59.2240264,21.3804125 59.2240264,24.7535149 L59.2240264,24.7535149 Z M59.3722112,7.28470297 L59.3722112,16.1165512 L59.3722112,18.0487294 C60.9291419,16.0097855 63.0050495,15.3381683 65.4144554,15.3381683 C70.6411881,15.3381683 73.9032343,19.4526898 73.9032343,24.7165512 C73.9032343,29.8320627 70.529967,34.0208416 65.0809571,34.0208416 C62.560165,34.0208416 60.7809571,33.3117657 59.3722112,31.2729868 L59.3628053,33.6871782 L54.6274917,33.6871782 L54.6274917,7.28470297 L59.3722112,7.28470297 Z" id="Fill-1" fill="#04D684"></path>
            <path d="M80.2981188,28.3121782 C80.2981188,29.8319802 81.4472937,30.869934 83.4119802,30.869934 C85.2654455,30.869934 86.6368977,29.7948515 87.2670957,28.9052475 L87.2670957,25.6062376 L84.0421782,25.7915512 C81.5215512,25.939736 80.2981188,26.7923762 80.2981188,28.3121782 M81.8550495,34.0948515 C78.3705611,34.0948515 75.5533993,32.2044224 75.5533993,28.460363 C75.5533993,24.7164686 79.2232013,23.2709241 82.929967,23.0113531 L87.229967,22.7148185 L87.229967,22.2329703 C87.229967,19.9346205 85.710165,18.859703 83.2266667,18.859703 C80.8542244,18.859703 78.889538,19.7493069 78.1111551,20.3423762 L76.6654455,17.3027723 C78.0368977,16.4872607 80.5576898,15.4121782 83.6713861,15.4121782 C86.8593399,15.4121782 88.6756766,16.2278548 90.010165,17.4880858 C91.3075248,18.7484818 91.9748515,20.379505 91.9748515,23.4191089 L91.9748515,33.6870957 L87.4152805,33.6870957 L87.3411881,31.6113531 C86.599769,32.9087129 84.5240264,34.0948515 81.8550495,34.0948515" id="Fill-3" fill="#04D684"></path>
            <polygon id="Fill-5" fill="#04D684" points="115.872063 15.7441584 115.872063 10.1715512 111.164802 10.1715512 111.164802 15.7441584 107.04995 15.7441584 107.04995 19.5085149 111.164802 19.5085149 111.164802 21.4377228 111.164802 27.7562046 111.164802 33.6864026 113.800116 33.6864026 115.872063 33.6864026 115.872063 21.4377228 115.872063 19.5085149 120.926188 19.5085149 120.926188 15.7441584"></polygon>
            <g id="Group-9" transform="translate(122.442244, 15.624917)">
                <mask id="mask-2" fill="white">
                    <use xlink:href="#path-1"></use>
                </mask>
                <g id="Clip-8"></g>
                <polygon id="Fill-7" fill="#04D684" mask="url(#mask-2)" points="4.97146865 25.1136139 4.10315182 27.2710396 8.36915842 27.2629538 12.0666832 18.2042079 12.4117327 17.3028878 13.8802145 13.704703 14.0825248 13.2080033 19.4473762 0.119389439 14.5180033 0.119389439 10.0833498 12.1891914 9.83764026 12.8106436 5.10150165 0.119389439 0.134174917 0.119389439 7.18962046 17.3028878 7.63417492 18.3809406"></polygon>
            </g>
            <path d="M98.3430858,15.7442409 L93.624934,15.7442409 L93.624934,33.6864851 L98.3430858,33.6864851 L98.3430858,23.3313696 L98.3430858,23.3315347 L98.3430858,23.3312046 L98.3430858,23.2975413 C98.3439109,23.2543069 98.3488614,23.1711386 98.3703135,23.0572772 C98.3802145,23.0112376 98.3892904,22.965363 98.4016667,22.9194884 C98.4099175,22.8883003 98.4191584,22.8559571 98.4298845,22.8222937 C98.4402805,22.7881353 98.4533168,22.7541419 98.465033,22.7203135 C98.8166832,21.7734488 100.174274,19.5173432 105.399851,19.5173432 L105.399851,15.9033168 L105.399851,15.7957261 L105.399851,15.7442409 L104.406452,15.7442409 L104.406452,15.7442409 C101.790611,15.744901 99.6607426,16.0957261 98.3430858,17.4482013 L98.3430858,15.7442409 Z" id="Fill-10" fill="#04D684"></path>
            <path d="M21.1319637,23.7593069 L21.1776733,0.000561056106 L0.579653465,11.8593069 C-0.192128713,12.3036964 -0.193448845,13.4167327 0.577178218,13.8629373 L19.39533,24.7583168 C20.1657921,25.2045215 21.1303135,24.649571 21.1319637,23.7593069" id="Fill-12" fill="#04D684"></path>
            <path d="M31.7047855,8.09933993 L21.150495,14.1854785 L21.1777228,0 L31.7066007,6.09620462 C32.4768977,6.54207921 32.4759076,7.65462046 31.7047855,8.09933993" id="Fill-14" fill="#00856C"></path>
            <path d="M25.6636304,20.4085479 L46.1694059,32.4009571 L46.285593,8.63346535 C46.290033,7.7430363 45.3288119,7.18165017 44.5553795,7.62323432 L25.6740264,18.4012871 C24.899604,18.8435314 24.8936634,19.9582178 25.6636304,20.4085479" id="Fill-16" fill="#04D684"></path>
            <path d="M33.8735862,37.4232013 L33.9247525,25.239868 L46.169802,32.4012541 L35.6037954,38.4327723 C34.8306931,38.8740264 33.869802,38.3134653 33.8735862,37.4232013" id="Fill-18" fill="#00856C"></path>
            <g id="Group-22" transform="translate(5.445545, 25.855941)">
                <mask id="mask-4" fill="white">
                    <use xlink:href="#path-3"></use>
                </mask>
                <g id="Clip-21"></g>
                <path d="M20.8344884,0.183547855 L0.141749175,11.8530198 L20.6125413,23.9302475 C21.379538,24.3827228 22.3486799,23.835363 22.3570957,22.944934 L22.5619362,1.20351485 C22.570297,0.31209571 21.6108911,-0.254240924 20.8344884,0.183547855" id="Fill-20" fill="#04D684" mask="url(#mask-4)"></path>
            </g>
            <path d="M7.44526403,24.5576403 L17.9429538,30.7411386 L5.58684818,37.7092904 L5.70153465,25.5434488 C5.70978548,24.6535149 6.67826733,24.1059901 7.44526403,24.5576403" id="Fill-23" fill="#00856C"></path>
        </g>
    </g>
</svg>