<?xml version="1.0" encoding="UTF-8"?>
<svg width="20px" height="15px" viewBox="0 0 20 15" version="1.1" xmlns="http://www.w3.org/2000/svg" xmlns:xlink="http://www.w3.org/1999/xlink">
    <title>Group 11</title>
    <g id="App_V4" stroke="none" stroke-width="1" fill="none" fill-rule="evenodd">
        <g id="Group-11" transform="translate(1.000000, 1.000000)" stroke="#04D684">
            <path d="M1.0658141e-14,13.5 L1.0658141e-14,11.6590909 C1.0658141e-14,8.60897286 2.45454545,7.36363636 5.52272727,7.36363636 C8.59090909,7.36363636 11.0454545,8.59090909 11.0454545,11.6590909 L11.0454545,13.5 M5.52272727,7.36363636 C7.55613931,7.36363636 9.20454545,5.71523022 9.20454545,3.68181818 C9.20454545,1.64840615 7.55613931,0 5.52272727,0 C3.48931524,0 1.84090909,1.64840615 1.84090909,3.68181818 C1.84090909,5.71523022 3.48931524,7.36363636 5.52272727,7.36363636 Z" id="User"></path>
            <path d="M10.5,9.60855166 C11.283489,8.9994297 12.4143398,8.72727273 13.6792952,8.72727273 C16.0656588,8.72727273 17.9747497,9.68181818 17.9747497,12.0681818 L17.9747497,13.5" id="Path"></path>
            <circle id="Oval" cx="13.6792952" cy="5.86363636" r="2.86363636"></circle>
        </g>
    </g>
</svg>