<?xml version="1.0" encoding="UTF-8"?>
<svg width="316px" height="68px" viewBox="0 0 316 68" version="1.1" xmlns="http://www.w3.org/2000/svg" xmlns:xlink="http://www.w3.org/1999/xlink">
    <title>Group 14</title>
    <g id="App_V4" stroke="none" stroke-width="1" fill="none" fill-rule="evenodd">
        <g id="01_PTT_Modal" transform="translate(-29.000000, -475.000000)">
            <g id="Group-14" transform="translate(29.000000, 475.000000)">
                <path d="M87.5635001,64 L87.5635001,60.428 L90.3945001,57.559 L95.5055001,64 L97.3865001,64 L91.4395001,56.514 L97.1395001,50.7 L95.2015001,50.7 L87.5635001,58.642 L87.5635001,50.7 L86.0625001,50.7 L86.0625001,64 L87.5635001,64 Z M100.7495,64 L100.7495,59.307 L103.9795,59.307 C106.8105,59.307 109.2045,57.825 109.2045,54.956 L109.2045,54.918 C109.2045,52.296 107.2285,50.7 104.2265,50.7 L99.2485001,50.7 L99.2485001,64 L100.7495,64 Z M104.0365,57.939 L100.7495,57.939 L100.7495,52.087 L104.1125,52.087 C106.2595,52.087 107.6845,53.075 107.6845,54.975 L107.6845,55.013 C107.6845,56.761 106.2405,57.939 104.0365,57.939 Z M116.3675,64.228 C119.7875,64.228 121.9915,61.074 121.9915,57.35 L121.9915,57.312 C121.9915,53.588 119.8255,50.472 116.4055,50.472 C112.9855,50.472 110.7625,53.626 110.7625,57.35 L110.7625,57.388 C110.7625,61.112 112.9285,64.228 116.3675,64.228 Z M116.4055,62.86 C113.9165,62.86 112.3205,60.257 112.3205,57.35 L112.3205,57.312 C112.3205,54.386 113.8785,51.84 116.3675,51.84 C118.8375,51.84 120.4335,54.443 120.4335,57.35 L120.4335,57.388 C120.4335,60.295 118.8945,62.86 116.4055,62.86 Z M127.4825,64 L127.4825,50.605 L126.3805,50.605 L123.1315,51.726 L123.4925,52.942 L126.0005,52.163 L126.0005,64 L127.4825,64 Z M139.1295,64 L139.1295,62.632 L132.0805,62.632 L135.6335,59.478 C137.9705,57.445 138.9965,56.248 138.9965,54.31 L138.9965,54.272 C138.9965,52.106 137.2675,50.51 134.8735,50.51 C132.5365,50.51 131.2825,51.555 130.0855,53.341 L131.1875,54.139 C132.2515,52.657 133.2395,51.859 134.7595,51.859 C136.2035,51.859 137.4385,52.847 137.4385,54.405 C137.4385,55.735 136.6975,56.761 134.6645,58.585 L129.8385,62.841 L129.8385,64 L139.1295,64 Z M145.7415,64.228 C148.2115,64.228 150.1875,62.594 150.1875,60.219 L150.1875,60.181 C150.1875,57.749 148.1165,56.628 145.7985,56.438 L149.9785,51.802 L149.9785,50.7 L141.4855,50.7 L141.4855,52.049 L147.9835,52.049 L143.7845,56.78 L144.0885,57.673 L144.9435,57.673 C147.1285,57.673 148.6675,58.585 148.6675,60.238 L148.6675,60.276 C148.6675,61.834 147.3755,62.86 145.7605,62.86 C144.1265,62.86 142.8915,62.138 141.8845,60.884 L140.7825,61.853 C141.8655,63.259 143.5185,64.228 145.7415,64.228 Z M160.6755,64 L160.6755,60.846 L162.7275,60.846 L162.7275,59.592 L160.6755,59.592 L160.6755,50.605 L159.3455,50.605 L151.8215,59.744 L152.2015,60.846 L159.2125,60.846 L159.2125,64 L160.6755,64 Z M159.2125,59.592 L153.6265,59.592 L159.2125,52.733 L159.2125,59.592 Z M169.0355,64.228 C171.8095,64.228 173.7855,62.461 173.7855,59.858 L173.7855,59.82 C173.7855,57.274 171.7715,55.754 169.1875,55.754 C168.0855,55.754 167.3445,56.001 166.5655,56.343 L166.8505,52.087 L173.1965,52.087 L173.1965,50.7 L165.5395,50.7 L165.1595,57.179 L166.1665,57.844 C166.9455,57.426 167.8385,57.084 168.9595,57.084 C170.8975,57.084 172.2655,58.224 172.2655,59.877 L172.2655,59.915 C172.2655,61.587 170.9545,62.86 169.0545,62.86 C167.7055,62.86 166.4325,62.157 165.2735,61.036 L164.2855,62.119 C165.4825,63.316 167.1355,64.228 169.0355,64.228 Z M180.7585,64.228 C183.4565,64.228 185.5275,62.366 185.5275,59.801 L185.5275,59.763 C185.5275,57.274 183.3995,55.678 180.9295,55.678 C179.2005,55.678 178.0035,56.457 177.1295,57.73 L177.1295,57.54 C177.1295,54.538 178.4785,51.84 181.0435,51.84 C182.2595,51.84 183.1905,52.315 184.1785,53.151 L185.0525,51.992 C183.8935,51.042 182.7155,50.472 181.1195,50.472 C177.6425,50.472 175.5905,53.645 175.5905,57.692 L175.5905,57.73 C175.5905,60.447 176.1985,61.815 177.2625,62.879 C178.0985,63.715 179.2955,64.228 180.7585,64.228 Z M180.7775,62.898 C178.8205,62.898 177.4145,61.606 177.4145,59.915 L177.4145,59.877 C177.4145,58.395 178.7445,56.97 180.7395,56.97 C182.6585,56.97 183.9885,58.186 183.9885,59.82 L183.9885,59.858 C183.9885,61.549 182.7345,62.898 180.7775,62.898 Z M190.1065,64 L196.1485,51.821 L196.1485,50.7 L187.1235,50.7 L187.1235,52.068 L194.4385,52.068 L188.4345,64 L190.1065,64 Z M202.4755,64.19 C205.3065,64.19 207.4725,62.67 207.4725,60.409 L207.4725,60.371 C207.4725,58.794 206.3135,57.711 204.7365,57.122 C205.9715,56.552 207.0165,55.602 207.0165,54.063 L207.0165,54.025 C207.0165,51.973 204.9075,50.51 202.4755,50.51 C200.0435,50.51 197.9345,51.973 197.9345,54.025 L197.9345,54.063 C197.9345,55.602 198.9795,56.552 200.2145,57.122 C198.6185,57.692 197.4785,58.813 197.4785,60.39 L197.4785,60.428 C197.4785,62.651 199.6445,64.19 202.4755,64.19 Z M202.4755,56.59 C200.7845,56.59 199.4355,55.602 199.4355,54.158 L199.4355,54.12 C199.4355,52.79 200.7465,51.821 202.4755,51.821 C204.2045,51.821 205.5155,52.809 205.5155,54.12 L205.5155,54.158 C205.5155,55.602 204.1665,56.59 202.4755,56.59 Z M202.4755,62.879 C200.2905,62.879 198.9985,61.72 198.9985,60.39 L198.9985,60.352 C198.9985,58.87 200.5375,57.825 202.4755,57.825 C204.4135,57.825 205.9525,58.87 205.9525,60.352 L205.9525,60.39 C205.9525,61.739 204.6605,62.879 202.4755,62.879 Z M213.4955,64.228 C216.7825,64.228 219.0245,61.245 219.0245,57.027 L219.0245,56.989 C219.0245,54.329 218.3785,52.847 217.3715,51.84 C216.5165,50.985 215.3955,50.472 213.8755,50.472 C211.0445,50.472 209.0875,52.467 209.0875,54.994 L209.0875,55.032 C209.0875,57.426 210.9875,59.155 213.7235,59.155 C215.4335,59.155 216.6495,58.338 217.4855,57.046 L217.4855,57.312 C217.4855,60.181 216.0985,62.86 213.5335,62.86 C212.3555,62.86 211.3485,62.385 210.2655,61.435 L209.3915,62.594 C210.5125,63.525 211.7665,64.228 213.4955,64.228 Z M213.8945,57.863 C211.9565,57.863 210.6265,56.647 210.6265,54.956 L210.6265,54.918 C210.6265,53.265 211.8235,51.802 213.8185,51.802 C215.8135,51.802 217.2005,53.132 217.2005,54.823 L217.2005,54.861 C217.2005,56.381 215.9275,57.863 213.8945,57.863 Z M226.4915,64.228 C229.9115,64.228 232.1155,61.074 232.1155,57.35 L232.1155,57.312 C232.1155,53.588 229.9495,50.472 226.5295,50.472 C223.1095,50.472 220.8865,53.626 220.8865,57.35 L220.8865,57.388 C220.8865,61.112 223.0525,64.228 226.4915,64.228 Z M226.5295,62.86 C224.0405,62.86 222.4445,60.257 222.4445,57.35 L222.4445,57.312 C222.4445,54.386 224.0025,51.84 226.4915,51.84 C228.9615,51.84 230.5575,54.443 230.5575,57.35 L230.5575,57.388 C230.5575,60.295 229.0185,62.86 226.5295,62.86 Z" id="KP01234567890" fill="#303030" fill-rule="nonzero"></path>
                <line x1="0.5" y1="-2.27310792e-13" x2="0.5" y2="41" id="Line-8" stroke="#000000"></line>
                <line x1="72.5" y1="-2.27310792e-13" x2="72.5" y2="41" id="Line-8-Copy-24" stroke="#000000"></line>
                <line x1="143.5" y1="-2.27310792e-13" x2="143.5" y2="41" id="Line-8-Copy-48" stroke="#000000"></line>
                <line x1="214.5" y1="-2.27310792e-13" x2="214.5" y2="41" id="Line-8-Copy-72" stroke="#000000"></line>
                <line x1="285.5" y1="-2.27310792e-13" x2="285.5" y2="41" id="Line-8-Copy-96" stroke="#000000"></line>
                <line x1="23.5" y1="-2.27310792e-13" x2="23.5" y2="41" id="Line-8-Copy-8" stroke="#000000"></line>
                <line x1="95.5" y1="-2.27310792e-13" x2="95.5" y2="41" id="Line-8-Copy-25" stroke="#000000"></line>
                <line x1="166.5" y1="-2.27310792e-13" x2="166.5" y2="41" id="Line-8-Copy-49" stroke="#000000"></line>
                <line x1="237.5" y1="-2.27310792e-13" x2="237.5" y2="41" id="Line-8-Copy-73" stroke="#000000"></line>
                <line x1="308.5" y1="-2.27310792e-13" x2="308.5" y2="41" id="Line-8-Copy-97" stroke="#000000"></line>
                <line x1="48.5" y1="-2.27310792e-13" x2="48.5" y2="41" id="Line-8-Copy-16" stroke="#000000"></line>
                <line x1="120.5" y1="-2.27310792e-13" x2="120.5" y2="41" id="Line-8-Copy-26" stroke="#000000"></line>
                <line x1="191.5" y1="-2.27310792e-13" x2="191.5" y2="41" id="Line-8-Copy-50" stroke="#000000"></line>
                <line x1="262.5" y1="-2.27310792e-13" x2="262.5" y2="41" id="Line-8-Copy-74" stroke="#000000"></line>
                <line x1="10.5" y1="-2.27310792e-13" x2="10.5" y2="41" id="Line-8-Copy-3" stroke="#000000"></line>
                <line x1="82.5" y1="-2.27310792e-13" x2="82.5" y2="41" id="Line-8-Copy-27" stroke="#000000"></line>
                <line x1="153.5" y1="-2.27310792e-13" x2="153.5" y2="41" id="Line-8-Copy-51" stroke="#000000"></line>
                <line x1="224.5" y1="-2.27310792e-13" x2="224.5" y2="41" id="Line-8-Copy-75" stroke="#000000"></line>
                <line x1="295.5" y1="-2.27310792e-13" x2="295.5" y2="41" id="Line-8-Copy-99" stroke="#000000"></line>
                <line x1="33.5" y1="-2.27310792e-13" x2="33.5" y2="41" id="Line-8-Copy-9" stroke="#000000"></line>
                <line x1="105.5" y1="-2.27310792e-13" x2="105.5" y2="41" id="Line-8-Copy-28" stroke="#000000"></line>
                <line x1="176.5" y1="-2.27310792e-13" x2="176.5" y2="41" id="Line-8-Copy-52" stroke="#000000"></line>
                <line x1="247.5" y1="-2.27310792e-13" x2="247.5" y2="41" id="Line-8-Copy-76" stroke="#000000"></line>
                <line x1="58.5" y1="-2.27310792e-13" x2="58.5" y2="41" id="Line-8-Copy-17" stroke="#000000"></line>
                <line x1="130.5" y1="-2.27310792e-13" x2="130.5" y2="41" id="Line-8-Copy-29" stroke="#000000"></line>
                <line x1="201.5" y1="-2.27310792e-13" x2="201.5" y2="41" id="Line-8-Copy-53" stroke="#000000"></line>
                <line x1="272.5" y1="-2.27310792e-13" x2="272.5" y2="41" id="Line-8-Copy-77" stroke="#000000"></line>
                <line x1="3" y1="-2.27310792e-13" x2="3" y2="41" id="Line-8-Copy" stroke="#000000"></line>
                <line x1="75" y1="-2.27310792e-13" x2="75" y2="41" id="Line-8-Copy-30" stroke="#000000"></line>
                <line x1="146" y1="-2.27310792e-13" x2="146" y2="41" id="Line-8-Copy-54" stroke="#000000"></line>
                <line x1="217" y1="-2.27310792e-13" x2="217" y2="41" id="Line-8-Copy-78" stroke="#000000"></line>
                <line x1="288" y1="-2.27310792e-13" x2="288" y2="41" id="Line-8-Copy-102" stroke="#000000"></line>
                <line x1="26" y1="-2.27310792e-13" x2="26" y2="41" id="Line-8-Copy-10" stroke="#000000"></line>
                <line x1="98" y1="-2.27310792e-13" x2="98" y2="41" id="Line-8-Copy-31" stroke="#000000"></line>
                <line x1="169" y1="-2.27310792e-13" x2="169" y2="41" id="Line-8-Copy-55" stroke="#000000"></line>
                <line x1="240" y1="-2.27310792e-13" x2="240" y2="41" id="Line-8-Copy-79" stroke="#000000"></line>
                <line x1="311" y1="-2.27310792e-13" x2="311" y2="41" id="Line-8-Copy-103" stroke="#000000"></line>
                <line x1="51" y1="-2.27310792e-13" x2="51" y2="41" id="Line-8-Copy-18" stroke="#000000"></line>
                <line x1="123" y1="-2.27310792e-13" x2="123" y2="41" id="Line-8-Copy-32" stroke="#000000"></line>
                <line x1="194" y1="-2.27310792e-13" x2="194" y2="41" id="Line-8-Copy-56" stroke="#000000"></line>
                <line x1="265" y1="-2.27310792e-13" x2="265" y2="41" id="Line-8-Copy-80" stroke="#000000"></line>
                <line x1="13" y1="-2.27310792e-13" x2="13" y2="41" id="Line-8-Copy-4" stroke="#000000"></line>
                <line x1="85" y1="-2.27310792e-13" x2="85" y2="41" id="Line-8-Copy-33" stroke="#000000"></line>
                <line x1="156" y1="-2.27310792e-13" x2="156" y2="41" id="Line-8-Copy-57" stroke="#000000"></line>
                <line x1="227" y1="-2.27310792e-13" x2="227" y2="41" id="Line-8-Copy-81" stroke="#000000"></line>
                <line x1="298" y1="-2.27310792e-13" x2="298" y2="41" id="Line-8-Copy-105" stroke="#000000"></line>
                <line x1="36" y1="-2.27310792e-13" x2="36" y2="41" id="Line-8-Copy-11" stroke="#000000"></line>
                <line x1="108" y1="-2.27310792e-13" x2="108" y2="41" id="Line-8-Copy-34" stroke="#000000"></line>
                <line x1="179" y1="-2.27310792e-13" x2="179" y2="41" id="Line-8-Copy-58" stroke="#000000"></line>
                <line x1="250" y1="-2.27310792e-13" x2="250" y2="41" id="Line-8-Copy-82" stroke="#000000"></line>
                <line x1="61" y1="-2.27310792e-13" x2="61" y2="41" id="Line-8-Copy-19" stroke="#000000"></line>
                <line x1="133" y1="-2.27453844e-13" x2="133" y2="41" id="Line-8-Copy-35" stroke="#000000"></line>
                <line x1="204" y1="-2.27310792e-13" x2="204" y2="41" id="Line-8-Copy-59" stroke="#000000"></line>
                <line x1="275" y1="-2.27310792e-13" x2="275" y2="41" id="Line-8-Copy-83" stroke="#000000"></line>
                <line x1="15" y1="0" x2="15" y2="41" id="Line-8-Copy-5" stroke="#000000"></line>
                <line x1="87" y1="0" x2="87" y2="41" id="Line-8-Copy-36" stroke="#000000"></line>
                <line x1="158" y1="0" x2="158" y2="41" id="Line-8-Copy-60" stroke="#000000"></line>
                <line x1="229" y1="0" x2="229" y2="41" id="Line-8-Copy-84" stroke="#000000"></line>
                <line x1="300" y1="0" x2="300" y2="41" id="Line-8-Copy-108" stroke="#000000"></line>
                <line x1="38" y1="0" x2="38" y2="41" id="Line-8-Copy-12" stroke="#000000"></line>
                <line x1="110" y1="0" x2="110" y2="41" id="Line-8-Copy-37" stroke="#000000"></line>
                <line x1="181" y1="0" x2="181" y2="41" id="Line-8-Copy-61" stroke="#000000"></line>
                <line x1="252" y1="0" x2="252" y2="41" id="Line-8-Copy-85" stroke="#000000"></line>
                <line x1="63" y1="0" x2="63" y2="41" id="Line-8-Copy-20" stroke="#000000"></line>
                <line x1="135" y1="0" x2="135" y2="41" id="Line-8-Copy-38" stroke="#000000"></line>
                <line x1="206" y1="0" x2="206" y2="41" id="Line-8-Copy-62" stroke="#000000"></line>
                <line x1="277" y1="0" x2="277" y2="41" id="Line-8-Copy-86" stroke="#000000"></line>
                <line x1="17" y1="0" x2="17" y2="41" id="Line-8-Copy-6" stroke="#000000" stroke-width="0.5"></line>
                <line x1="89" y1="0" x2="89" y2="41" id="Line-8-Copy-39" stroke="#000000" stroke-width="0.5"></line>
                <line x1="160" y1="0" x2="160" y2="41" id="Line-8-Copy-63" stroke="#000000" stroke-width="0.5"></line>
                <line x1="231" y1="0" x2="231" y2="41" id="Line-8-Copy-87" stroke="#000000" stroke-width="0.5"></line>
                <line x1="302" y1="0" x2="302" y2="41" id="Line-8-Copy-111" stroke="#000000" stroke-width="0.5"></line>
                <line x1="40" y1="0" x2="40" y2="41" id="Line-8-Copy-13" stroke="#000000" stroke-width="0.5"></line>
                <line x1="112" y1="0" x2="112" y2="41" id="Line-8-Copy-40" stroke="#000000" stroke-width="0.5"></line>
                <line x1="183" y1="0" x2="183" y2="41" id="Line-8-Copy-64" stroke="#000000" stroke-width="0.5"></line>
                <line x1="254" y1="0" x2="254" y2="41" id="Line-8-Copy-88" stroke="#000000" stroke-width="0.5"></line>
                <line x1="65" y1="0" x2="65" y2="41" id="Line-8-Copy-21" stroke="#000000" stroke-width="0.5"></line>
                <line x1="137" y1="0" x2="137" y2="41" id="Line-8-Copy-41" stroke="#000000" stroke-width="0.5"></line>
                <line x1="208" y1="0" x2="208" y2="41" id="Line-8-Copy-65" stroke="#000000" stroke-width="0.5"></line>
                <line x1="279" y1="0" x2="279" y2="41" id="Line-8-Copy-89" stroke="#000000" stroke-width="0.5"></line>
                <line x1="7" y1="-2.27310792e-13" x2="7" y2="41" id="Line-8-Copy-2" stroke="#000000" stroke-width="2"></line>
                <line x1="79" y1="-2.27310792e-13" x2="79" y2="41" id="Line-8-Copy-42" stroke="#000000" stroke-width="2"></line>
                <line x1="150" y1="-2.27310792e-13" x2="150" y2="41" id="Line-8-Copy-66" stroke="#000000" stroke-width="2"></line>
                <line x1="221" y1="-2.27310792e-13" x2="221" y2="41" id="Line-8-Copy-90" stroke="#000000" stroke-width="2"></line>
                <line x1="292" y1="-2.27310792e-13" x2="292" y2="41" id="Line-8-Copy-114" stroke="#000000" stroke-width="2"></line>
                <line x1="30" y1="-2.27310792e-13" x2="30" y2="41" id="Line-8-Copy-14" stroke="#000000" stroke-width="2"></line>
                <line x1="102" y1="-2.27310792e-13" x2="102" y2="41" id="Line-8-Copy-43" stroke="#000000" stroke-width="2"></line>
                <line x1="173" y1="-2.27310792e-13" x2="173" y2="41" id="Line-8-Copy-67" stroke="#000000" stroke-width="2"></line>
                <line x1="244" y1="-2.27310792e-13" x2="244" y2="41" id="Line-8-Copy-91" stroke="#000000" stroke-width="2"></line>
                <line x1="315" y1="-2.27310792e-13" x2="315" y2="41" id="Line-8-Copy-115" stroke="#000000" stroke-width="2"></line>
                <line x1="55" y1="-2.27310792e-13" x2="55" y2="41" id="Line-8-Copy-22" stroke="#000000" stroke-width="2"></line>
                <line x1="127" y1="-2.27310792e-13" x2="127" y2="41" id="Line-8-Copy-44" stroke="#000000" stroke-width="2"></line>
                <line x1="198" y1="-2.27310792e-13" x2="198" y2="41" id="Line-8-Copy-68" stroke="#000000" stroke-width="2"></line>
                <line x1="269" y1="-2.27310792e-13" x2="269" y2="41" id="Line-8-Copy-92" stroke="#000000" stroke-width="2"></line>
                <line x1="21" y1="-2.27310792e-13" x2="21" y2="41" id="Line-8-Copy-7" stroke="#000000" stroke-width="2"></line>
                <line x1="93" y1="-2.27310792e-13" x2="93" y2="41" id="Line-8-Copy-45" stroke="#000000" stroke-width="2"></line>
                <line x1="164" y1="-2.27310792e-13" x2="164" y2="41" id="Line-8-Copy-69" stroke="#000000" stroke-width="2"></line>
                <line x1="235" y1="-2.27310792e-13" x2="235" y2="41" id="Line-8-Copy-93" stroke="#000000" stroke-width="2"></line>
                <line x1="306" y1="-2.27310792e-13" x2="306" y2="41" id="Line-8-Copy-117" stroke="#000000" stroke-width="2"></line>
                <line x1="44" y1="-2.27310792e-13" x2="44" y2="41" id="Line-8-Copy-15" stroke="#000000" stroke-width="2"></line>
                <line x1="116" y1="-2.27310792e-13" x2="116" y2="41" id="Line-8-Copy-46" stroke="#000000" stroke-width="2"></line>
                <line x1="187" y1="-2.27310792e-13" x2="187" y2="41" id="Line-8-Copy-70" stroke="#000000" stroke-width="2"></line>
                <line x1="258" y1="-2.27310792e-13" x2="258" y2="41" id="Line-8-Copy-94" stroke="#000000" stroke-width="2"></line>
                <line x1="69" y1="-2.27310792e-13" x2="69" y2="41" id="Line-8-Copy-23" stroke="#000000" stroke-width="2"></line>
                <line x1="141" y1="-2.27310792e-13" x2="141" y2="41" id="Line-8-Copy-47" stroke="#000000" stroke-width="2"></line>
                <line x1="212" y1="-2.27310792e-13" x2="212" y2="41" id="Line-8-Copy-71" stroke="#000000" stroke-width="2"></line>
                <line x1="283" y1="-2.27310792e-13" x2="283" y2="41" id="Line-8-Copy-95" stroke="#000000" stroke-width="2"></line>
            </g>
        </g>
    </g>
</svg>