<?xml version="1.0" encoding="UTF-8"?>
<svg width="16px" height="24px" viewBox="0 0 16 24" version="1.1" xmlns="http://www.w3.org/2000/svg" xmlns:xlink="http://www.w3.org/1999/xlink">
    <title>Secure Copy</title>
    <g id="App_V4" stroke="none" stroke-width="1" fill="none" fill-rule="evenodd">
        <g id="04" transform="translate(-35.000000, -544.000000)" stroke="#04D684" stroke-width="1.5">
            <path d="M38,555 L38,550 C38,547 40,545 43,545 C46,545 48,547 48,550 L48,555 M43,567 C46.8659932,567 50,563.865993 50,560 C50,556.134007 46.8659932,553 43,553 C39.1340068,553 36,556.134007 36,560 C36,563.865993 39.1340068,567 43,567 Z M43,559 L43,563 M43,560 C43.5522847,560 44,559.552285 44,559 C44,558.447715 43.5522847,558 43,558 C42.4477153,558 42,558.447715 42,559 C42,559.552285 42.4477153,560 43,560 Z" id="Secure-Copy"></path>
        </g>
    </g>
</svg>